<?xml version="1.0" encoding="UTF-8"?>
<svg xmlns="http://www.w3.org/2000/svg" width="595" height="595" viewBox="0 0 595 595">
  <path fill="#C62828" fill-rule="evenodd" d="M 288 7 L 287 8 L 286 8 L 285 9 L 284 9 L 283 10 L 280 10 L 279 11 L 277 11 L 276 12 L 274 12 L 273 13 L 271 13 L 270 14 L 268 14 L 267 15 L 266 15 L 266 16 L 265 17 L 260 17 L 259 18 L 257 18 L 256 19 L 254 19 L 252 21 L 249 21 L 249 22 L 248 23 L 243 23 L 243 24 L 242 25 L 239 25 L 238 26 L 236 26 L 235 27 L 232 27 L 231 28 L 229 28 L 228 29 L 226 29 L 225 30 L 223 30 L 223 31 L 222 32 L 217 32 L 216 33 L 215 33 L 215 34 L 214 35 L 209 35 L 207 37 L 203 37 L 202 38 L 201 38 L 200 39 L 199 39 L 198 40 L 195 40 L 194 41 L 192 41 L 191 42 L 190 42 L 189 43 L 187 43 L 181 49 L 180 49 L 174 55 L 174 57 L 173 58 L 171 58 L 170 59 L 170 60 L 168 62 L 167 62 L 165 64 L 165 66 L 164 67 L 162 67 L 159 70 L 159 71 L 158 72 L 157 72 L 153 76 L 152 76 L 151 77 L 151 78 L 150 79 L 149 79 L 148 80 L 148 82 L 147 83 L 145 83 L 145 84 L 144 85 L 143 85 L 143 86 L 142 87 L 141 87 L 135 93 L 135 94 L 133 96 L 132 96 L 129 99 L 129 100 L 128 101 L 127 101 L 127 105 L 126 106 L 125 106 L 124 107 L 124 109 L 123 110 L 123 112 L 122 113 L 122 117 L 121 118 L 120 118 L 120 120 L 119 121 L 119 123 L 118 124 L 118 127 L 117 128 L 117 129 L 116 130 L 116 132 L 115 133 L 115 135 L 114 136 L 114 138 L 113 139 L 113 140 L 112 141 L 112 143 L 111 144 L 111 146 L 110 147 L 110 149 L 109 150 L 109 153 L 108 154 L 108 155 L 107 156 L 107 157 L 106 158 L 106 160 L 105 161 L 105 165 L 103 167 L 103 175 L 102 176 L 101 176 L 101 180 L 102 181 L 102 185 L 103 186 L 103 189 L 104 190 L 104 193 L 105 194 L 105 197 L 106 198 L 106 202 L 107 203 L 107 206 L 108 207 L 108 211 L 109 212 L 109 215 L 110 216 L 110 220 L 112 222 L 112 228 L 113 229 L 113 233 L 114 234 L 114 236 L 115 237 L 115 241 L 116 242 L 116 245 L 117 246 L 117 249 L 118 250 L 118 254 L 119 255 L 119 258 L 120 259 L 120 260 L 121 261 L 121 265 L 122 266 L 122 271 L 123 272 L 123 275 L 124 276 L 124 281 L 125 282 L 125 305 L 124 306 L 124 333 L 123 334 L 123 351 L 124 352 L 124 353 L 126 355 L 127 355 L 129 357 L 130 357 L 132 359 L 134 359 L 135 360 L 135 361 L 136 361 L 137 362 L 138 362 L 140 364 L 143 364 L 144 365 L 145 365 L 146 366 L 146 368 L 147 368 L 149 370 L 150 370 L 152 372 L 152 375 L 153 376 L 153 382 L 154 383 L 154 390 L 155 391 L 155 397 L 156 398 L 156 404 L 157 405 L 157 412 L 158 413 L 158 419 L 159 420 L 159 427 L 160 428 L 160 434 L 161 435 L 161 440 L 162 441 L 162 449 L 163 450 L 163 455 L 164 456 L 164 464 L 165 465 L 165 471 L 166 472 L 166 475 L 167 476 L 167 480 L 168 480 L 169 481 L 169 483 L 171 483 L 172 484 L 172 486 L 176 490 L 177 490 L 178 491 L 178 493 L 183 498 L 184 498 L 185 499 L 185 500 L 187 502 L 189 502 L 190 503 L 190 506 L 196 512 L 197 512 L 198 513 L 198 514 L 199 515 L 199 516 L 206 523 L 207 523 L 208 524 L 208 525 L 210 527 L 210 528 L 213 531 L 214 531 L 215 532 L 215 533 L 217 535 L 218 535 L 219 536 L 219 537 L 220 538 L 221 538 L 222 539 L 222 541 L 225 544 L 226 544 L 227 545 L 227 546 L 228 546 L 230 548 L 230 549 L 232 551 L 232 552 L 239 559 L 240 559 L 241 560 L 241 561 L 243 563 L 245 563 L 246 564 L 246 567 L 247 568 L 249 568 L 250 569 L 250 571 L 258 571 L 259 572 L 263 572 L 264 571 L 342 571 L 342 570 L 343 569 L 346 569 L 346 568 L 352 562 L 352 560 L 353 559 L 354 559 L 355 558 L 355 556 L 356 555 L 358 555 L 359 554 L 359 553 L 360 552 L 361 552 L 361 549 L 362 548 L 364 548 L 367 545 L 367 544 L 371 540 L 371 537 L 372 536 L 374 536 L 377 533 L 377 532 L 380 529 L 380 527 L 381 526 L 383 526 L 383 523 L 384 522 L 386 522 L 386 521 L 387 520 L 388 520 L 390 518 L 390 516 L 391 515 L 392 515 L 397 510 L 397 509 L 399 507 L 399 505 L 400 504 L 402 504 L 403 503 L 403 502 L 405 500 L 405 498 L 406 497 L 408 497 L 409 496 L 409 495 L 410 494 L 410 492 L 411 491 L 413 491 L 414 490 L 414 488 L 415 487 L 416 487 L 420 483 L 420 481 L 421 480 L 421 479 L 422 478 L 424 478 L 424 477 L 425 476 L 425 471 L 426 470 L 426 460 L 427 459 L 427 450 L 428 449 L 428 439 L 429 438 L 429 426 L 430 425 L 430 417 L 431 416 L 431 407 L 432 406 L 432 394 L 433 393 L 433 386 L 434 385 L 434 377 L 435 376 L 435 370 L 437 368 L 439 368 L 442 365 L 443 365 L 443 363 L 444 362 L 447 362 L 447 361 L 448 360 L 449 360 L 451 358 L 452 358 L 455 355 L 456 355 L 458 353 L 458 352 L 459 351 L 461 351 L 462 350 L 463 350 L 466 347 L 467 347 L 467 342 L 466 341 L 466 332 L 465 331 L 465 323 L 464 322 L 464 316 L 463 315 L 463 306 L 462 305 L 462 297 L 461 296 L 461 290 L 460 289 L 460 285 L 459 284 L 459 282 L 460 281 L 460 278 L 461 277 L 461 271 L 462 270 L 462 268 L 463 267 L 463 263 L 464 262 L 464 257 L 465 256 L 465 253 L 466 252 L 466 248 L 467 247 L 467 241 L 468 240 L 468 236 L 469 235 L 469 231 L 470 230 L 470 228 L 471 227 L 471 222 L 472 221 L 472 217 L 473 216 L 473 212 L 474 211 L 474 208 L 475 207 L 475 202 L 476 201 L 476 199 L 477 198 L 477 194 L 478 193 L 478 189 L 479 188 L 479 185 L 480 184 L 480 179 L 481 178 L 481 176 L 482 175 L 482 168 L 481 167 L 481 166 L 480 165 L 480 164 L 477 161 L 477 157 L 476 156 L 476 154 L 475 154 L 474 153 L 474 151 L 473 150 L 473 147 L 472 146 L 472 145 L 471 144 L 471 143 L 470 142 L 470 140 L 469 139 L 469 138 L 467 136 L 467 133 L 466 132 L 466 131 L 465 130 L 465 129 L 464 128 L 464 126 L 463 125 L 463 124 L 462 123 L 462 122 L 461 122 L 460 121 L 460 119 L 459 118 L 459 117 L 458 116 L 458 113 L 457 112 L 457 109 L 456 108 L 456 106 L 455 105 L 455 104 L 454 103 L 454 102 L 452 100 L 452 99 L 448 95 L 448 94 L 444 90 L 443 90 L 441 88 L 441 87 L 440 87 L 439 86 L 439 85 L 430 76 L 429 76 L 423 70 L 422 70 L 421 69 L 421 68 L 420 67 L 419 67 L 418 66 L 418 65 L 404 51 L 403 51 L 402 50 L 402 49 L 400 47 L 398 47 L 397 46 L 397 44 L 395 44 L 394 43 L 392 43 L 391 42 L 386 42 L 385 41 L 385 40 L 383 40 L 382 39 L 381 39 L 380 38 L 378 38 L 377 37 L 375 37 L 374 36 L 371 36 L 370 35 L 369 35 L 368 34 L 365 34 L 364 33 L 362 33 L 360 31 L 358 31 L 357 30 L 355 30 L 354 29 L 352 29 L 351 28 L 350 28 L 349 27 L 347 27 L 346 26 L 344 26 L 343 25 L 341 25 L 340 24 L 338 24 L 337 23 L 332 23 L 331 22 L 331 21 L 328 21 L 326 19 L 324 19 L 323 18 L 320 18 L 318 16 L 316 16 L 315 15 L 312 15 L 311 14 L 310 14 L 309 13 L 307 13 L 306 12 L 305 12 L 304 11 L 302 11 L 301 10 L 298 10 L 297 9 L 294 9 L 293 8 L 291 8 L 290 7 Z M 273 480 L 274 479 L 279 479 L 280 480 L 281 480 L 282 481 L 291 481 L 292 480 L 297 480 L 298 481 L 299 481 L 300 482 L 305 482 L 306 481 L 307 481 L 308 480 L 310 480 L 311 479 L 315 479 L 316 480 L 318 480 L 319 481 L 322 481 L 323 480 L 325 480 L 327 482 L 327 485 L 328 486 L 330 486 L 331 487 L 331 490 L 330 491 L 330 496 L 331 497 L 331 500 L 332 501 L 332 503 L 333 504 L 333 507 L 334 508 L 334 510 L 335 511 L 335 515 L 336 516 L 336 519 L 337 520 L 337 522 L 338 523 L 338 526 L 339 527 L 339 530 L 340 531 L 340 534 L 341 535 L 341 537 L 342 538 L 342 540 L 343 541 L 343 545 L 344 546 L 344 549 L 345 550 L 345 554 L 338 561 L 285 561 L 284 562 L 255 562 L 252 559 L 252 555 L 251 554 L 251 552 L 252 551 L 252 549 L 253 548 L 253 536 L 254 535 L 254 533 L 255 532 L 255 526 L 256 525 L 256 516 L 257 515 L 257 512 L 258 511 L 258 505 L 259 504 L 259 498 L 260 497 L 260 491 L 261 490 L 261 484 L 262 483 L 262 481 L 263 480 L 265 480 L 266 481 L 267 481 L 268 482 L 270 482 L 270 481 L 271 480 Z M 225 468 L 226 467 L 231 467 L 232 468 L 232 470 L 234 470 L 235 469 L 239 469 L 240 470 L 242 470 L 243 471 L 243 473 L 248 473 L 249 474 L 249 475 L 251 477 L 253 477 L 254 478 L 254 487 L 253 488 L 253 494 L 252 495 L 252 500 L 251 501 L 251 507 L 250 508 L 250 514 L 249 515 L 249 523 L 248 524 L 248 527 L 247 528 L 247 533 L 246 534 L 244 534 L 243 533 L 243 532 L 242 531 L 242 530 L 241 529 L 241 525 L 240 524 L 240 522 L 239 521 L 239 518 L 238 517 L 238 515 L 237 514 L 237 511 L 236 510 L 235 510 L 234 509 L 234 501 L 233 500 L 233 498 L 232 497 L 232 494 L 230 492 L 230 487 L 229 486 L 229 484 L 228 483 L 228 481 L 227 480 L 227 477 L 226 476 L 226 474 L 225 473 Z M 363 465 L 364 464 L 366 464 L 368 466 L 368 468 L 367 469 L 367 472 L 366 473 L 366 476 L 365 477 L 365 480 L 364 481 L 364 484 L 363 485 L 363 488 L 362 489 L 362 492 L 361 493 L 361 496 L 360 497 L 360 500 L 359 501 L 359 504 L 358 505 L 358 508 L 357 509 L 357 512 L 356 513 L 356 516 L 355 517 L 355 520 L 354 521 L 354 523 L 353 524 L 353 527 L 352 528 L 352 531 L 351 532 L 348 532 L 347 531 L 347 525 L 346 524 L 346 520 L 345 519 L 345 516 L 344 515 L 344 512 L 343 511 L 343 509 L 342 508 L 342 507 L 341 506 L 341 501 L 340 500 L 340 497 L 339 496 L 339 494 L 338 493 L 338 490 L 337 489 L 337 486 L 336 485 L 336 484 L 335 483 L 335 478 L 336 477 L 338 477 L 340 475 L 340 472 L 341 471 L 343 471 L 345 469 L 347 469 L 348 470 L 353 470 L 353 469 L 355 467 L 357 467 L 358 468 L 361 468 L 363 466 Z M 280 462 L 281 461 L 291 461 L 292 462 L 292 471 L 291 472 L 289 472 L 288 473 L 285 473 L 284 472 L 282 472 L 280 470 Z M 265 460 L 266 459 L 270 459 L 271 460 L 272 460 L 273 461 L 273 462 L 274 463 L 274 468 L 273 469 L 273 470 L 272 471 L 271 471 L 270 472 L 268 472 L 266 470 L 266 468 L 265 467 Z M 321 458 L 323 458 L 324 459 L 324 469 L 323 470 L 322 470 L 321 471 L 318 471 L 317 470 L 317 461 L 318 460 L 319 460 Z M 332 457 L 333 456 L 337 456 L 338 457 L 338 462 L 337 463 L 337 464 L 335 466 L 333 466 L 332 465 Z M 252 457 L 253 456 L 255 456 L 256 457 L 257 457 L 259 459 L 259 461 L 258 462 L 258 464 L 259 465 L 259 467 L 258 468 L 254 468 L 253 467 L 253 464 L 252 463 Z M 240 454 L 241 453 L 244 453 L 246 455 L 246 459 L 245 460 L 242 460 L 241 459 L 241 457 L 240 456 Z M 347 452 L 349 452 L 350 453 L 350 459 L 348 461 L 346 461 L 345 460 L 345 454 Z M 228 449 L 229 448 L 232 448 L 234 450 L 234 456 L 233 457 L 229 457 L 228 456 Z M 360 446 L 362 446 L 363 447 L 363 454 L 362 455 L 360 455 L 358 453 L 358 448 Z M 345 432 L 346 431 L 348 431 L 349 432 L 349 441 L 348 442 L 346 442 L 345 441 Z M 333 430 L 334 429 L 336 429 L 337 430 L 337 432 L 338 433 L 338 443 L 337 444 L 337 445 L 336 446 L 335 446 L 334 447 L 332 447 L 331 446 L 331 431 L 332 430 Z M 228 430 L 229 429 L 233 429 L 234 430 L 234 431 L 235 432 L 235 435 L 234 436 L 234 438 L 233 439 L 230 439 L 229 438 L 229 437 L 228 436 Z M 359 428 L 362 428 L 363 429 L 363 434 L 362 435 L 361 435 L 360 436 L 358 436 L 357 435 L 357 430 Z M 266 429 L 267 428 L 271 428 L 272 429 L 272 430 L 273 431 L 273 450 L 272 451 L 267 451 L 266 450 Z M 241 429 L 242 428 L 244 428 L 245 429 L 245 430 L 246 431 L 246 442 L 244 444 L 242 444 L 241 443 Z M 315 427 L 316 426 L 321 426 L 323 428 L 323 449 L 322 450 L 321 450 L 320 451 L 317 451 L 316 450 L 316 449 L 315 448 Z M 283 425 L 288 425 L 289 426 L 290 426 L 291 427 L 291 430 L 292 431 L 292 434 L 291 435 L 291 452 L 290 453 L 281 453 L 280 452 L 280 428 Z M 302 423 L 304 423 L 305 424 L 308 424 L 309 425 L 309 427 L 308 428 L 308 452 L 307 453 L 300 453 L 299 452 L 299 444 L 298 443 L 298 427 Z M 386 400 L 387 399 L 389 399 L 390 400 L 390 404 L 389 405 L 389 408 L 388 409 L 388 413 L 387 414 L 387 417 L 386 418 L 386 421 L 385 422 L 385 425 L 384 426 L 384 429 L 383 430 L 383 433 L 382 434 L 382 435 L 381 436 L 381 437 L 375 443 L 373 443 L 372 442 L 372 437 L 371 436 L 371 421 L 374 418 L 374 417 L 376 415 L 376 414 L 378 412 L 378 411 L 379 410 L 379 409 L 380 408 L 381 408 L 381 407 L 383 405 L 383 404 L 386 401 Z M 198 400 L 199 399 L 201 399 L 202 400 L 202 402 L 203 403 L 203 404 L 204 405 L 205 405 L 206 406 L 206 407 L 207 408 L 207 409 L 210 412 L 210 413 L 211 413 L 212 414 L 212 415 L 213 416 L 213 417 L 217 421 L 217 422 L 220 425 L 220 426 L 221 427 L 221 440 L 220 441 L 220 446 L 219 447 L 217 447 L 212 442 L 211 442 L 207 438 L 207 435 L 206 434 L 206 431 L 205 430 L 205 427 L 204 426 L 204 423 L 203 422 L 203 421 L 202 420 L 202 417 L 201 416 L 201 413 L 200 412 L 200 407 L 199 406 L 199 403 L 198 402 Z M 417 379 L 418 378 L 422 378 L 423 379 L 423 382 L 422 383 L 422 397 L 421 398 L 421 409 L 420 410 L 420 419 L 419 420 L 419 430 L 418 431 L 418 442 L 417 443 L 417 454 L 416 455 L 416 466 L 415 467 L 415 472 L 414 473 L 414 474 L 408 480 L 408 481 L 407 482 L 406 482 L 406 483 L 405 484 L 405 486 L 404 487 L 402 487 L 402 488 L 396 494 L 396 495 L 390 501 L 390 502 L 384 508 L 384 509 L 377 516 L 377 517 L 370 524 L 370 525 L 365 530 L 363 530 L 362 529 L 362 524 L 363 523 L 364 523 L 364 520 L 365 519 L 365 515 L 366 514 L 366 511 L 367 510 L 367 505 L 368 504 L 369 504 L 369 501 L 370 500 L 370 497 L 371 496 L 371 488 L 372 487 L 373 487 L 373 482 L 374 481 L 374 480 L 375 479 L 375 476 L 376 475 L 376 471 L 378 469 L 378 465 L 379 464 L 379 461 L 380 460 L 380 458 L 381 457 L 381 455 L 382 454 L 382 451 L 383 450 L 383 448 L 384 447 L 385 447 L 389 443 L 389 442 L 391 440 L 391 438 L 392 437 L 392 433 L 393 432 L 393 430 L 394 429 L 394 426 L 395 425 L 395 422 L 396 421 L 396 418 L 397 417 L 397 413 L 398 412 L 398 408 L 399 407 L 399 402 L 401 400 L 401 395 L 402 394 L 402 393 L 403 392 L 403 389 L 404 388 L 404 385 L 408 381 L 412 381 L 413 380 L 414 380 L 415 379 Z M 162 377 L 163 376 L 169 376 L 170 377 L 170 378 L 173 378 L 174 379 L 176 379 L 177 380 L 179 380 L 180 381 L 182 381 L 183 382 L 184 382 L 186 384 L 186 387 L 187 388 L 187 391 L 188 392 L 188 395 L 189 396 L 189 398 L 190 399 L 190 403 L 191 404 L 191 405 L 192 406 L 192 411 L 193 412 L 193 415 L 194 416 L 194 417 L 195 418 L 195 423 L 196 424 L 196 427 L 197 428 L 197 431 L 198 431 L 199 432 L 199 437 L 200 438 L 200 442 L 201 443 L 201 444 L 202 444 L 203 445 L 203 446 L 204 447 L 205 447 L 206 448 L 208 448 L 209 449 L 209 451 L 211 453 L 212 453 L 213 454 L 213 460 L 214 460 L 215 461 L 215 466 L 216 467 L 216 469 L 217 469 L 218 470 L 218 476 L 219 477 L 219 480 L 220 481 L 220 484 L 221 485 L 221 487 L 222 488 L 222 491 L 223 492 L 223 494 L 224 495 L 224 497 L 225 498 L 225 501 L 227 503 L 227 507 L 228 508 L 228 512 L 229 513 L 229 515 L 230 516 L 230 519 L 231 520 L 231 522 L 232 523 L 232 525 L 233 526 L 233 529 L 235 531 L 235 537 L 234 538 L 232 538 L 229 535 L 229 534 L 223 528 L 221 528 L 220 527 L 220 525 L 218 523 L 218 522 L 217 521 L 214 521 L 213 520 L 213 517 L 211 515 L 209 515 L 208 514 L 208 511 L 205 508 L 203 508 L 202 507 L 202 505 L 196 499 L 196 498 L 193 495 L 191 495 L 190 494 L 190 492 L 185 487 L 185 486 L 184 486 L 183 485 L 183 484 L 177 478 L 177 477 L 175 475 L 175 474 L 174 473 L 174 467 L 173 466 L 173 459 L 172 458 L 172 451 L 171 450 L 171 443 L 170 442 L 170 436 L 169 435 L 169 430 L 168 429 L 168 420 L 167 419 L 167 412 L 166 411 L 166 404 L 165 403 L 165 397 L 164 396 L 164 389 L 163 388 L 163 381 L 162 380 Z M 289 368 L 295 368 L 296 369 L 298 369 L 299 370 L 301 370 L 302 371 L 303 371 L 304 372 L 305 372 L 308 375 L 309 375 L 310 376 L 310 379 L 311 380 L 311 382 L 312 383 L 312 384 L 313 384 L 314 385 L 314 389 L 315 390 L 315 391 L 316 392 L 316 393 L 317 394 L 317 396 L 318 397 L 318 398 L 319 399 L 319 400 L 320 401 L 320 403 L 321 404 L 321 405 L 322 406 L 322 408 L 323 409 L 323 410 L 324 411 L 324 412 L 325 412 L 326 413 L 326 418 L 325 419 L 321 419 L 320 418 L 320 417 L 317 417 L 316 418 L 312 418 L 311 417 L 310 417 L 306 413 L 304 413 L 303 414 L 301 414 L 299 416 L 298 416 L 297 417 L 297 418 L 296 419 L 293 419 L 292 418 L 283 418 L 282 419 L 278 419 L 277 420 L 267 420 L 266 419 L 265 419 L 264 418 L 264 414 L 265 413 L 265 410 L 267 408 L 267 406 L 268 405 L 268 402 L 270 400 L 270 399 L 271 398 L 271 395 L 273 393 L 273 389 L 274 388 L 275 388 L 275 384 L 276 383 L 276 381 L 277 380 L 278 380 L 279 379 L 279 378 L 280 377 L 280 375 L 283 372 L 284 372 L 286 370 L 287 370 Z M 323 363 L 326 363 L 327 364 L 328 364 L 329 365 L 330 365 L 331 366 L 333 366 L 334 367 L 335 367 L 336 368 L 338 368 L 339 369 L 343 369 L 344 370 L 344 371 L 345 371 L 346 372 L 348 372 L 349 373 L 350 373 L 351 374 L 352 374 L 353 375 L 357 375 L 358 376 L 358 377 L 360 377 L 361 378 L 366 378 L 367 379 L 367 381 L 369 381 L 370 382 L 372 382 L 373 383 L 374 383 L 375 384 L 377 384 L 378 385 L 379 385 L 380 386 L 382 386 L 383 387 L 383 390 L 382 391 L 382 392 L 381 393 L 381 394 L 379 396 L 379 397 L 376 400 L 376 401 L 374 403 L 374 406 L 373 407 L 371 407 L 371 408 L 369 410 L 369 413 L 368 414 L 366 414 L 366 415 L 362 419 L 356 419 L 355 420 L 349 420 L 348 419 L 342 419 L 341 420 L 337 420 L 334 417 L 334 416 L 333 415 L 333 412 L 332 411 L 332 410 L 331 409 L 331 407 L 330 406 L 330 405 L 329 404 L 329 403 L 328 402 L 328 401 L 327 400 L 327 398 L 326 397 L 326 396 L 324 394 L 324 391 L 323 390 L 323 389 L 322 388 L 322 386 L 321 385 L 321 384 L 320 383 L 320 381 L 319 380 L 319 379 L 318 378 L 318 376 L 317 375 L 317 374 L 316 373 L 316 370 L 317 369 L 318 369 L 319 368 L 319 367 Z M 258 363 L 259 362 L 261 362 L 262 363 L 263 363 L 266 366 L 267 366 L 270 369 L 271 369 L 274 372 L 274 374 L 273 375 L 273 377 L 272 378 L 272 379 L 271 380 L 271 382 L 270 383 L 270 385 L 269 386 L 269 387 L 268 388 L 268 389 L 267 390 L 267 392 L 266 393 L 266 394 L 265 395 L 265 398 L 264 399 L 264 400 L 263 401 L 263 404 L 262 405 L 262 407 L 261 408 L 260 408 L 260 409 L 259 410 L 259 411 L 258 412 L 258 414 L 257 415 L 257 416 L 256 417 L 256 418 L 255 419 L 255 420 L 254 421 L 253 421 L 252 422 L 249 422 L 248 421 L 227 421 L 225 419 L 223 419 L 222 418 L 222 415 L 219 412 L 219 411 L 217 411 L 216 410 L 216 407 L 214 407 L 212 405 L 212 402 L 210 400 L 210 399 L 207 396 L 207 395 L 204 392 L 204 391 L 201 388 L 201 386 L 202 385 L 204 385 L 205 384 L 207 384 L 208 383 L 210 383 L 211 382 L 213 382 L 214 381 L 215 381 L 216 380 L 218 380 L 219 379 L 220 379 L 221 378 L 223 378 L 224 377 L 224 376 L 225 375 L 230 375 L 231 374 L 232 374 L 233 373 L 234 373 L 235 372 L 236 372 L 237 371 L 239 371 L 240 370 L 242 370 L 243 369 L 244 369 L 246 367 L 249 367 L 250 366 L 251 366 L 252 365 L 253 365 L 254 364 L 256 364 L 257 363 Z M 158 311 L 159 310 L 162 310 L 167 315 L 167 316 L 170 319 L 170 320 L 173 323 L 173 324 L 174 324 L 175 325 L 175 327 L 177 329 L 177 333 L 174 336 L 174 337 L 172 339 L 172 340 L 169 343 L 169 344 L 167 346 L 167 347 L 166 348 L 166 349 L 165 350 L 164 350 L 164 352 L 163 353 L 162 353 L 161 354 L 161 355 L 158 358 L 158 359 L 154 363 L 152 363 L 151 362 L 151 361 L 150 361 L 148 359 L 147 359 L 146 358 L 145 358 L 143 356 L 142 356 L 140 354 L 139 354 L 138 353 L 138 351 L 140 349 L 141 349 L 143 347 L 144 347 L 146 345 L 147 345 L 149 343 L 150 343 L 152 341 L 153 341 L 157 337 L 157 334 L 156 333 L 156 332 L 155 331 L 155 330 L 154 329 L 154 328 L 153 327 L 153 326 L 152 325 L 152 323 L 150 321 L 150 316 L 153 313 L 154 313 L 155 312 L 156 312 L 157 311 Z M 133 308 L 134 307 L 136 307 L 137 308 L 137 311 L 138 312 L 138 313 L 139 313 L 140 314 L 140 315 L 141 316 L 141 320 L 142 321 L 142 322 L 143 323 L 143 324 L 144 325 L 144 327 L 145 328 L 145 329 L 146 330 L 146 333 L 144 335 L 143 335 L 141 337 L 140 337 L 138 339 L 137 339 L 136 340 L 133 340 L 132 339 L 132 334 L 133 333 Z M 447 304 L 448 303 L 450 303 L 451 304 L 451 309 L 452 310 L 452 318 L 453 319 L 453 328 L 454 329 L 454 331 L 453 332 L 448 332 L 447 331 L 447 330 L 446 330 L 443 327 L 442 327 L 440 325 L 438 325 L 437 324 L 437 322 L 438 321 L 439 321 L 440 320 L 440 317 L 441 316 L 441 315 L 442 314 L 443 314 L 443 313 L 444 312 L 444 311 L 445 310 L 445 308 L 447 306 Z M 147 247 L 148 246 L 151 246 L 152 247 L 152 248 L 157 253 L 157 299 L 155 301 L 154 301 L 153 302 L 152 302 L 151 303 L 150 303 L 149 304 L 149 305 L 148 306 L 145 306 L 143 304 L 143 303 L 142 302 L 142 301 L 141 300 L 141 298 L 140 297 L 140 296 L 139 295 L 139 294 L 138 293 L 138 292 L 137 292 L 136 291 L 136 283 L 137 282 L 137 280 L 138 279 L 138 276 L 139 275 L 139 272 L 140 271 L 140 269 L 141 268 L 141 265 L 142 264 L 142 262 L 143 261 L 143 259 L 144 258 L 144 256 L 145 255 L 145 254 L 146 253 L 146 250 L 147 249 Z M 425 235 L 426 234 L 431 234 L 432 235 L 432 237 L 433 238 L 433 240 L 434 241 L 434 242 L 435 243 L 435 245 L 436 246 L 436 248 L 437 249 L 437 251 L 438 252 L 438 254 L 439 255 L 439 257 L 440 258 L 440 260 L 441 261 L 441 263 L 442 264 L 442 266 L 443 267 L 443 269 L 444 270 L 444 272 L 445 273 L 445 275 L 446 276 L 446 278 L 447 279 L 447 285 L 446 286 L 446 287 L 445 288 L 445 289 L 444 290 L 444 291 L 443 292 L 443 293 L 442 294 L 442 295 L 441 296 L 441 297 L 440 298 L 440 299 L 439 300 L 439 301 L 438 302 L 438 303 L 437 304 L 437 305 L 436 306 L 436 307 L 435 308 L 435 309 L 434 310 L 434 311 L 433 312 L 433 313 L 432 314 L 432 315 L 431 316 L 431 317 L 430 318 L 430 319 L 429 320 L 429 322 L 427 324 L 427 326 L 426 327 L 426 330 L 427 330 L 429 332 L 430 332 L 432 334 L 433 334 L 434 335 L 435 335 L 437 337 L 438 337 L 440 339 L 441 339 L 442 340 L 443 340 L 444 341 L 445 341 L 447 343 L 448 343 L 449 344 L 450 344 L 451 345 L 451 347 L 448 350 L 447 350 L 442 355 L 441 355 L 438 358 L 437 358 L 434 361 L 433 361 L 432 362 L 429 362 L 428 361 L 428 358 L 427 357 L 427 356 L 426 355 L 426 354 L 425 353 L 425 352 L 424 351 L 424 350 L 422 348 L 421 348 L 420 347 L 420 343 L 419 342 L 419 341 L 417 339 L 417 338 L 414 335 L 414 333 L 413 332 L 413 331 L 412 330 L 412 329 L 409 326 L 409 322 L 410 321 L 411 321 L 414 318 L 414 317 L 415 316 L 415 314 L 416 313 L 417 313 L 417 312 L 418 311 L 420 311 L 422 309 L 422 308 L 431 299 L 431 297 L 432 296 L 433 296 L 434 295 L 434 287 L 433 286 L 433 275 L 432 274 L 432 264 L 431 263 L 431 253 L 430 252 L 430 251 L 429 250 L 429 248 L 428 247 L 428 245 L 427 244 L 427 242 L 426 241 L 426 239 L 425 238 Z M 157 227 L 158 226 L 161 226 L 163 228 L 163 229 L 165 231 L 165 234 L 164 235 L 164 238 L 163 239 L 162 239 L 162 240 L 160 242 L 158 242 L 157 241 L 157 240 L 154 237 L 154 233 L 155 232 L 155 231 L 156 230 L 156 229 L 157 228 Z M 273 203 L 275 203 L 277 205 L 277 206 L 278 206 L 279 207 L 279 208 L 286 215 L 286 216 L 290 220 L 295 220 L 298 217 L 298 216 L 301 213 L 301 212 L 306 207 L 309 207 L 311 209 L 311 210 L 314 213 L 314 214 L 316 216 L 316 217 L 318 219 L 318 224 L 316 226 L 316 229 L 315 230 L 315 231 L 314 232 L 314 234 L 313 235 L 313 237 L 312 238 L 312 239 L 311 240 L 311 242 L 310 243 L 310 245 L 309 246 L 309 247 L 308 248 L 308 250 L 307 251 L 307 254 L 306 255 L 306 260 L 307 261 L 307 262 L 308 263 L 308 264 L 310 266 L 310 267 L 311 268 L 311 269 L 313 271 L 313 272 L 314 273 L 314 274 L 316 276 L 316 277 L 317 278 L 317 279 L 319 281 L 319 282 L 320 283 L 320 284 L 322 286 L 322 287 L 323 288 L 323 289 L 325 291 L 325 292 L 326 293 L 326 294 L 327 295 L 327 296 L 329 298 L 329 299 L 330 300 L 330 301 L 334 305 L 335 305 L 336 306 L 337 306 L 338 307 L 339 307 L 340 308 L 341 308 L 342 309 L 343 309 L 344 310 L 345 310 L 346 311 L 347 311 L 348 312 L 349 312 L 350 313 L 351 313 L 352 314 L 353 314 L 354 315 L 355 315 L 356 316 L 357 316 L 358 317 L 360 317 L 361 318 L 362 318 L 363 319 L 364 319 L 365 320 L 367 320 L 368 321 L 369 321 L 370 322 L 373 322 L 374 323 L 376 323 L 377 324 L 379 324 L 380 325 L 385 325 L 386 326 L 389 326 L 390 327 L 394 327 L 395 328 L 398 328 L 399 329 L 399 330 L 400 331 L 400 332 L 401 333 L 401 334 L 403 336 L 403 337 L 404 338 L 404 339 L 406 341 L 406 342 L 407 343 L 407 344 L 409 346 L 409 347 L 410 348 L 410 349 L 411 350 L 411 351 L 413 353 L 413 354 L 414 355 L 414 356 L 416 358 L 416 359 L 417 360 L 417 361 L 418 362 L 418 363 L 420 365 L 421 365 L 422 366 L 422 368 L 421 369 L 419 369 L 418 370 L 416 370 L 415 371 L 414 371 L 413 372 L 411 372 L 410 373 L 409 373 L 408 374 L 406 374 L 405 375 L 404 375 L 403 376 L 401 376 L 400 377 L 399 377 L 399 378 L 398 379 L 391 379 L 390 380 L 387 380 L 386 379 L 382 379 L 381 378 L 381 377 L 379 377 L 378 376 L 377 376 L 376 375 L 373 375 L 371 373 L 370 373 L 369 372 L 367 372 L 366 371 L 365 371 L 364 370 L 363 370 L 362 369 L 359 369 L 357 367 L 355 367 L 354 366 L 351 366 L 350 365 L 350 364 L 348 364 L 347 363 L 346 363 L 345 362 L 344 362 L 343 361 L 340 361 L 339 360 L 336 360 L 335 359 L 334 359 L 333 358 L 332 358 L 331 357 L 331 354 L 333 352 L 333 351 L 334 350 L 334 348 L 335 347 L 335 332 L 334 331 L 334 330 L 333 329 L 333 328 L 331 328 L 330 327 L 330 326 L 329 325 L 329 322 L 328 321 L 328 320 L 327 319 L 327 318 L 325 316 L 325 315 L 324 314 L 324 313 L 322 311 L 322 310 L 321 309 L 321 308 L 318 305 L 318 304 L 317 304 L 316 303 L 316 301 L 314 299 L 314 297 L 312 297 L 311 296 L 311 292 L 309 290 L 309 289 L 307 287 L 307 286 L 304 283 L 304 282 L 302 282 L 300 284 L 300 286 L 298 288 L 298 290 L 297 291 L 297 293 L 296 294 L 295 294 L 293 296 L 291 296 L 289 294 L 289 293 L 287 291 L 287 290 L 285 288 L 284 288 L 283 287 L 283 286 L 281 286 L 281 288 L 280 289 L 278 289 L 278 291 L 275 294 L 275 295 L 274 296 L 274 297 L 273 298 L 273 300 L 272 301 L 271 301 L 271 302 L 270 303 L 270 305 L 269 306 L 268 306 L 268 307 L 266 309 L 266 310 L 265 311 L 265 312 L 264 313 L 264 315 L 263 316 L 262 316 L 262 317 L 261 318 L 261 319 L 260 320 L 260 321 L 258 323 L 258 324 L 256 326 L 256 327 L 255 328 L 255 329 L 253 331 L 253 342 L 254 343 L 254 345 L 255 346 L 255 348 L 256 349 L 256 351 L 257 352 L 257 354 L 254 357 L 251 357 L 250 358 L 249 358 L 248 359 L 246 359 L 245 360 L 244 360 L 243 361 L 242 361 L 241 362 L 239 362 L 238 363 L 237 363 L 236 364 L 235 364 L 234 365 L 232 365 L 231 366 L 230 366 L 229 367 L 228 367 L 227 368 L 225 368 L 224 369 L 223 369 L 222 370 L 221 370 L 220 371 L 218 371 L 217 372 L 216 372 L 215 373 L 213 373 L 211 375 L 208 375 L 207 376 L 205 376 L 204 377 L 201 377 L 200 378 L 192 378 L 190 376 L 189 376 L 188 375 L 187 375 L 186 374 L 183 374 L 182 373 L 180 373 L 179 372 L 175 372 L 174 371 L 174 370 L 171 370 L 170 369 L 165 369 L 164 368 L 164 365 L 165 364 L 166 364 L 167 363 L 167 362 L 169 360 L 169 359 L 171 357 L 171 355 L 172 354 L 173 354 L 174 353 L 174 352 L 177 349 L 177 348 L 180 345 L 180 344 L 182 342 L 182 341 L 185 338 L 185 337 L 186 336 L 187 336 L 188 335 L 190 335 L 191 334 L 192 334 L 193 333 L 195 333 L 196 332 L 197 332 L 198 331 L 200 331 L 201 330 L 203 330 L 204 329 L 205 329 L 206 328 L 208 328 L 209 327 L 210 327 L 211 326 L 213 326 L 214 325 L 215 325 L 216 324 L 218 324 L 219 323 L 220 323 L 220 322 L 221 321 L 226 321 L 227 320 L 228 320 L 229 319 L 231 319 L 232 318 L 234 318 L 235 317 L 236 317 L 237 316 L 239 316 L 240 315 L 241 315 L 242 314 L 244 314 L 244 313 L 245 312 L 246 312 L 247 311 L 247 310 L 249 308 L 249 305 L 250 304 L 252 304 L 253 303 L 253 302 L 256 299 L 256 298 L 257 297 L 257 296 L 259 294 L 259 293 L 261 291 L 261 290 L 263 288 L 263 287 L 265 285 L 265 284 L 267 282 L 267 281 L 269 279 L 269 278 L 270 277 L 270 274 L 271 273 L 273 273 L 273 272 L 275 270 L 275 269 L 277 267 L 277 266 L 278 265 L 278 259 L 277 259 L 276 258 L 276 254 L 275 254 L 274 253 L 274 248 L 272 246 L 272 242 L 271 241 L 271 240 L 270 239 L 270 237 L 269 236 L 269 234 L 268 233 L 268 231 L 267 230 L 267 228 L 266 227 L 266 226 L 265 225 L 265 223 L 264 222 L 264 221 L 263 220 L 263 218 L 264 217 L 265 217 L 265 213 L 266 212 L 267 212 L 268 211 L 268 210 L 269 209 L 269 208 L 270 207 L 270 206 Z M 116 204 L 117 203 L 119 203 L 120 204 L 122 204 L 123 205 L 123 209 L 126 212 L 126 213 L 127 213 L 128 214 L 128 215 L 129 216 L 129 217 L 132 220 L 132 221 L 135 224 L 135 225 L 136 226 L 138 226 L 139 227 L 139 229 L 140 229 L 141 230 L 141 235 L 140 236 L 140 239 L 139 240 L 139 242 L 138 243 L 138 245 L 137 246 L 137 252 L 136 253 L 136 254 L 135 255 L 134 255 L 134 257 L 133 258 L 133 261 L 132 262 L 130 262 L 128 260 L 128 259 L 127 258 L 127 253 L 126 252 L 126 248 L 124 246 L 124 240 L 123 239 L 123 236 L 122 235 L 122 231 L 121 230 L 121 227 L 120 226 L 120 222 L 119 221 L 119 217 L 118 216 L 118 213 L 117 212 L 117 209 L 116 208 Z M 406 202 L 407 201 L 409 201 L 412 204 L 412 205 L 414 207 L 414 208 L 417 211 L 417 212 L 419 214 L 419 215 L 422 218 L 422 219 L 424 221 L 424 223 L 423 224 L 416 224 L 415 223 L 413 223 L 412 222 L 410 222 L 409 221 L 409 220 L 405 220 L 404 219 L 404 218 L 403 217 L 402 217 L 401 216 L 400 216 L 399 215 L 398 215 L 397 214 L 397 212 L 400 209 L 400 206 L 401 205 L 404 205 L 406 203 Z M 462 199 L 464 199 L 465 200 L 465 204 L 464 205 L 464 209 L 463 210 L 463 214 L 462 215 L 462 219 L 461 220 L 461 224 L 460 225 L 460 229 L 459 230 L 459 234 L 458 235 L 458 239 L 457 240 L 457 244 L 456 245 L 456 249 L 455 250 L 455 253 L 453 255 L 451 255 L 450 254 L 450 250 L 449 249 L 449 247 L 448 246 L 448 245 L 447 244 L 447 241 L 446 240 L 446 239 L 445 238 L 445 236 L 444 235 L 444 233 L 443 232 L 443 229 L 442 228 L 442 226 L 443 225 L 443 224 L 445 222 L 445 220 L 446 219 L 447 219 L 447 217 L 448 216 L 449 216 L 450 215 L 450 213 L 451 212 L 452 212 L 452 211 L 455 208 L 455 207 L 458 204 L 458 202 L 459 201 L 460 201 Z M 185 185 L 187 185 L 190 188 L 190 189 L 192 191 L 192 192 L 193 193 L 193 194 L 195 196 L 195 197 L 196 198 L 196 199 L 198 201 L 198 202 L 200 202 L 201 203 L 201 207 L 202 208 L 202 209 L 203 210 L 203 211 L 204 212 L 204 215 L 202 217 L 200 217 L 198 219 L 196 219 L 195 220 L 192 220 L 191 221 L 189 221 L 188 222 L 186 222 L 185 223 L 183 223 L 182 224 L 180 224 L 179 225 L 177 225 L 176 226 L 171 226 L 170 225 L 170 224 L 168 222 L 168 221 L 167 220 L 167 219 L 166 218 L 166 213 L 168 211 L 168 210 L 170 208 L 170 207 L 171 206 L 171 205 L 173 203 L 173 202 L 175 200 L 175 199 L 177 197 L 177 196 L 179 194 L 179 193 L 182 190 L 182 189 L 183 188 L 183 187 Z M 383 170 L 384 169 L 387 169 L 389 171 L 389 172 L 392 175 L 392 176 L 394 178 L 394 179 L 397 182 L 397 183 L 399 185 L 399 186 L 402 189 L 402 190 L 403 191 L 403 194 L 402 195 L 402 196 L 401 197 L 400 197 L 400 198 L 399 199 L 398 199 L 397 200 L 397 201 L 396 202 L 396 203 L 395 204 L 394 204 L 392 206 L 392 208 L 391 209 L 389 209 L 387 211 L 385 211 L 384 210 L 381 210 L 380 209 L 374 209 L 372 207 L 370 207 L 368 205 L 368 203 L 369 202 L 369 201 L 370 200 L 370 198 L 371 197 L 371 196 L 372 195 L 372 194 L 373 193 L 373 192 L 374 191 L 374 187 L 376 185 L 377 185 L 377 182 L 378 181 L 378 179 L 379 178 L 380 178 L 380 177 L 381 176 L 381 175 L 382 174 L 382 172 L 383 171 Z M 362 139 L 363 138 L 366 138 L 367 139 L 367 140 L 369 142 L 369 143 L 372 146 L 372 147 L 374 149 L 374 150 L 377 153 L 377 154 L 379 156 L 379 157 L 380 158 L 380 161 L 379 162 L 379 163 L 378 164 L 378 167 L 377 168 L 377 171 L 376 172 L 375 172 L 374 173 L 374 174 L 373 175 L 373 176 L 372 177 L 372 178 L 371 179 L 371 183 L 370 184 L 369 184 L 369 188 L 368 189 L 368 190 L 367 191 L 366 191 L 366 193 L 363 196 L 363 197 L 362 198 L 362 200 L 361 201 L 361 202 L 359 204 L 359 205 L 358 206 L 355 206 L 354 207 L 350 207 L 349 208 L 344 208 L 343 209 L 338 209 L 337 210 L 334 210 L 334 211 L 333 212 L 330 212 L 329 211 L 326 211 L 325 210 L 324 210 L 323 209 L 323 208 L 321 206 L 321 204 L 319 202 L 319 201 L 318 201 L 317 200 L 317 199 L 316 198 L 316 194 L 321 189 L 321 188 L 326 183 L 326 181 L 327 180 L 328 180 L 331 177 L 331 175 L 332 174 L 333 174 L 336 171 L 336 169 L 337 168 L 338 168 L 341 165 L 341 164 L 343 162 L 343 161 L 344 160 L 345 160 L 346 159 L 346 157 L 347 156 L 348 156 L 351 153 L 351 152 L 356 147 L 356 146 L 362 140 Z M 214 139 L 215 138 L 217 138 L 225 146 L 225 147 L 233 155 L 233 156 L 242 165 L 242 166 L 249 173 L 249 174 L 251 176 L 253 176 L 254 177 L 254 179 L 255 180 L 255 181 L 263 189 L 263 190 L 265 192 L 266 192 L 267 193 L 267 195 L 266 196 L 266 199 L 264 201 L 263 201 L 262 202 L 262 203 L 261 204 L 261 207 L 260 208 L 259 208 L 259 210 L 258 211 L 257 211 L 256 212 L 247 212 L 246 213 L 215 213 L 212 210 L 212 208 L 211 207 L 211 206 L 210 206 L 209 205 L 209 203 L 208 202 L 208 201 L 206 201 L 205 200 L 205 197 L 204 197 L 203 196 L 203 193 L 202 192 L 202 191 L 200 191 L 199 190 L 199 186 L 198 186 L 197 185 L 197 182 L 196 182 L 195 181 L 195 179 L 194 178 L 194 177 L 192 175 L 192 173 L 193 172 L 193 171 L 195 169 L 195 168 L 197 166 L 197 165 L 199 163 L 199 162 L 201 160 L 201 159 L 203 157 L 203 156 L 204 155 L 204 154 L 206 152 L 206 151 L 208 149 L 208 148 L 210 146 L 210 145 L 212 143 L 212 142 L 214 140 Z M 448 133 L 449 132 L 451 132 L 452 133 L 452 134 L 453 135 L 453 136 L 454 137 L 454 138 L 455 139 L 455 140 L 456 141 L 456 143 L 457 144 L 457 145 L 458 146 L 458 147 L 459 148 L 459 150 L 460 151 L 460 152 L 461 153 L 461 154 L 462 155 L 462 157 L 463 158 L 463 159 L 464 160 L 464 161 L 465 162 L 465 164 L 466 165 L 466 166 L 467 167 L 467 168 L 468 169 L 468 171 L 469 172 L 469 177 L 466 180 L 466 181 L 463 184 L 463 185 L 459 189 L 459 190 L 456 193 L 456 194 L 453 197 L 453 198 L 450 201 L 450 202 L 447 205 L 447 206 L 445 208 L 443 208 L 442 207 L 442 205 L 443 204 L 443 194 L 444 193 L 444 182 L 445 181 L 445 170 L 446 169 L 446 158 L 447 157 L 447 147 L 448 146 Z M 127 132 L 128 131 L 130 131 L 131 132 L 131 134 L 130 135 L 130 139 L 131 140 L 131 145 L 132 146 L 132 155 L 133 156 L 133 163 L 134 164 L 134 169 L 135 170 L 135 179 L 136 180 L 136 187 L 137 188 L 137 193 L 138 194 L 138 198 L 139 199 L 139 211 L 138 212 L 136 212 L 135 211 L 133 211 L 132 210 L 132 209 L 131 208 L 131 206 L 129 204 L 129 203 L 126 200 L 126 199 L 124 197 L 123 197 L 122 196 L 122 194 L 121 193 L 120 193 L 119 192 L 119 189 L 116 186 L 116 185 L 113 182 L 113 181 L 111 179 L 111 176 L 112 175 L 112 174 L 113 173 L 113 171 L 114 170 L 114 168 L 115 167 L 115 166 L 116 165 L 116 163 L 117 162 L 117 160 L 118 159 L 118 158 L 119 157 L 119 154 L 120 153 L 120 151 L 121 150 L 121 149 L 122 148 L 122 146 L 123 145 L 123 143 L 124 142 L 124 140 L 125 139 L 125 137 L 126 136 L 126 134 L 127 133 Z M 137 116 L 138 115 L 140 115 L 141 116 L 144 116 L 145 117 L 149 117 L 150 118 L 154 118 L 155 119 L 158 119 L 159 120 L 162 120 L 163 121 L 167 121 L 168 122 L 171 122 L 172 123 L 175 123 L 176 124 L 180 124 L 181 125 L 184 125 L 185 126 L 188 126 L 189 127 L 192 127 L 193 128 L 196 128 L 197 129 L 200 129 L 201 130 L 204 130 L 205 131 L 205 135 L 204 136 L 203 136 L 202 137 L 202 138 L 201 139 L 201 141 L 200 142 L 199 142 L 199 143 L 198 144 L 198 146 L 197 147 L 196 147 L 195 148 L 195 149 L 194 150 L 194 151 L 192 153 L 192 154 L 190 156 L 190 159 L 189 160 L 188 160 L 187 161 L 187 162 L 185 164 L 185 165 L 183 167 L 183 168 L 181 170 L 181 171 L 179 173 L 179 174 L 178 175 L 178 177 L 177 178 L 176 178 L 176 179 L 174 181 L 174 182 L 172 184 L 172 185 L 171 186 L 171 187 L 168 190 L 168 191 L 167 192 L 167 195 L 166 196 L 165 196 L 164 197 L 164 200 L 163 201 L 161 201 L 161 202 L 159 204 L 159 207 L 158 208 L 158 209 L 157 210 L 155 210 L 155 211 L 153 213 L 153 214 L 151 216 L 149 216 L 148 215 L 148 209 L 147 208 L 147 201 L 146 200 L 146 199 L 145 198 L 145 186 L 144 185 L 144 178 L 143 177 L 143 170 L 142 169 L 142 162 L 141 161 L 141 154 L 140 153 L 140 147 L 139 146 L 139 139 L 138 138 L 138 129 L 137 128 Z M 434 113 L 435 112 L 439 112 L 440 113 L 440 122 L 439 123 L 439 133 L 438 134 L 438 144 L 437 145 L 437 156 L 436 157 L 436 168 L 435 169 L 435 180 L 434 181 L 434 191 L 433 192 L 433 202 L 432 203 L 432 205 L 431 206 L 429 206 L 427 204 L 427 203 L 424 200 L 424 199 L 422 197 L 422 196 L 420 194 L 419 194 L 418 193 L 418 191 L 417 190 L 417 189 L 415 187 L 415 186 L 413 184 L 412 184 L 411 183 L 411 182 L 410 181 L 410 180 L 409 180 L 408 179 L 408 176 L 406 174 L 406 173 L 404 171 L 404 170 L 402 168 L 402 167 L 399 164 L 399 163 L 397 161 L 396 161 L 395 160 L 395 158 L 394 157 L 394 156 L 393 155 L 392 155 L 391 154 L 391 152 L 390 151 L 390 150 L 388 148 L 388 147 L 387 147 L 386 146 L 386 144 L 385 143 L 384 143 L 383 142 L 383 140 L 381 138 L 381 137 L 379 135 L 379 134 L 378 133 L 378 131 L 379 130 L 380 130 L 381 129 L 383 129 L 384 128 L 386 128 L 387 127 L 389 127 L 390 126 L 392 126 L 393 125 L 396 125 L 397 124 L 399 124 L 400 123 L 402 123 L 403 122 L 405 122 L 406 121 L 409 121 L 410 120 L 412 120 L 413 119 L 415 119 L 416 118 L 418 118 L 419 117 L 421 117 L 422 116 L 425 116 L 426 115 L 428 115 L 429 114 L 431 114 L 432 113 Z M 383 57 L 384 56 L 386 56 L 387 57 L 388 57 L 389 58 L 389 60 L 388 61 L 384 61 L 383 60 Z M 210 51 L 211 50 L 213 50 L 214 51 L 214 54 L 213 55 L 210 55 L 210 56 L 209 57 L 207 57 L 207 58 L 206 59 L 202 59 L 202 61 L 201 62 L 200 62 L 199 63 L 195 63 L 194 64 L 193 64 L 191 66 L 190 66 L 189 67 L 188 67 L 187 68 L 186 68 L 186 69 L 185 70 L 184 70 L 183 71 L 182 71 L 182 72 L 181 73 L 179 73 L 178 72 L 178 70 L 179 69 L 180 69 L 180 68 L 190 58 L 191 58 L 192 57 L 193 57 L 194 56 L 196 56 L 197 55 L 198 55 L 199 54 L 201 54 L 202 53 L 204 53 L 205 52 L 207 52 L 208 51 Z M 260 43 L 261 42 L 264 42 L 265 43 L 265 45 L 263 47 L 263 48 L 262 49 L 262 50 L 261 51 L 260 51 L 260 52 L 258 54 L 258 55 L 256 57 L 256 60 L 255 61 L 254 61 L 252 63 L 252 64 L 251 65 L 251 67 L 250 68 L 249 68 L 248 69 L 248 70 L 246 72 L 246 73 L 244 75 L 244 76 L 242 78 L 242 79 L 241 80 L 241 82 L 240 83 L 240 84 L 239 85 L 237 85 L 237 86 L 235 88 L 235 89 L 233 91 L 233 92 L 232 93 L 232 95 L 230 97 L 229 97 L 229 98 L 227 100 L 227 101 L 225 103 L 225 104 L 224 105 L 224 107 L 223 108 L 222 108 L 221 109 L 221 110 L 218 113 L 218 114 L 214 118 L 213 118 L 212 119 L 209 119 L 208 118 L 203 118 L 202 117 L 201 117 L 200 116 L 197 116 L 196 115 L 189 115 L 188 114 L 185 114 L 183 112 L 180 112 L 179 111 L 174 111 L 173 110 L 171 110 L 170 109 L 167 109 L 166 108 L 162 108 L 161 107 L 158 107 L 157 106 L 156 106 L 155 105 L 155 103 L 156 102 L 157 102 L 159 100 L 160 100 L 161 99 L 162 99 L 164 97 L 165 97 L 166 96 L 167 96 L 168 95 L 169 95 L 171 93 L 172 93 L 173 92 L 174 92 L 175 91 L 176 91 L 178 89 L 179 89 L 180 88 L 181 88 L 182 87 L 183 87 L 185 85 L 186 85 L 187 84 L 188 84 L 189 83 L 190 83 L 192 81 L 193 81 L 194 80 L 195 80 L 196 79 L 197 79 L 198 78 L 199 78 L 201 76 L 202 76 L 203 75 L 204 75 L 205 74 L 206 74 L 208 72 L 209 72 L 210 71 L 211 71 L 212 70 L 213 70 L 215 68 L 216 68 L 217 67 L 218 67 L 219 66 L 220 66 L 222 64 L 223 64 L 224 63 L 225 63 L 226 62 L 227 62 L 229 60 L 230 60 L 231 59 L 232 59 L 233 58 L 234 58 L 236 56 L 237 56 L 238 55 L 239 55 L 240 54 L 241 54 L 242 53 L 243 53 L 245 51 L 246 51 L 247 50 L 248 50 L 249 49 L 250 49 L 252 47 L 253 47 L 254 46 L 255 46 L 256 45 L 257 45 L 259 43 Z M 316 42 L 317 41 L 320 41 L 321 42 L 322 42 L 324 44 L 325 44 L 326 45 L 327 45 L 328 46 L 329 46 L 330 47 L 331 47 L 332 48 L 333 48 L 335 50 L 336 50 L 337 51 L 338 51 L 339 52 L 340 52 L 341 53 L 342 53 L 344 55 L 345 55 L 347 57 L 349 57 L 350 58 L 351 58 L 352 59 L 353 59 L 355 61 L 356 61 L 357 62 L 358 62 L 359 63 L 360 63 L 361 64 L 362 64 L 364 66 L 365 66 L 366 67 L 367 67 L 368 68 L 369 68 L 370 69 L 371 69 L 373 71 L 374 71 L 375 72 L 376 72 L 377 73 L 378 73 L 380 75 L 382 75 L 384 77 L 385 77 L 386 78 L 387 78 L 388 79 L 389 79 L 390 80 L 391 80 L 392 81 L 393 81 L 395 83 L 396 83 L 397 84 L 398 84 L 399 85 L 400 85 L 401 86 L 402 86 L 404 88 L 405 88 L 406 89 L 407 89 L 408 90 L 409 90 L 410 91 L 411 91 L 413 93 L 414 93 L 415 94 L 416 94 L 417 95 L 418 95 L 419 96 L 420 96 L 422 98 L 423 98 L 424 99 L 425 99 L 426 100 L 426 102 L 425 103 L 423 103 L 422 104 L 420 104 L 418 106 L 413 106 L 411 108 L 407 108 L 406 109 L 405 109 L 404 110 L 402 110 L 401 111 L 400 111 L 399 112 L 394 112 L 393 113 L 392 113 L 391 114 L 388 114 L 387 115 L 386 115 L 385 116 L 381 116 L 380 117 L 378 117 L 377 118 L 375 118 L 374 119 L 368 119 L 366 117 L 366 116 L 365 115 L 365 114 L 364 113 L 363 113 L 362 112 L 362 110 L 360 108 L 360 107 L 358 105 L 358 104 L 356 102 L 356 101 L 354 99 L 354 98 L 352 96 L 352 95 L 351 95 L 350 94 L 350 93 L 349 92 L 349 91 L 347 89 L 346 89 L 345 88 L 345 85 L 343 83 L 343 82 L 342 81 L 341 81 L 340 80 L 340 78 L 338 76 L 338 75 L 336 73 L 336 72 L 334 70 L 334 69 L 332 67 L 332 66 L 331 66 L 330 65 L 330 64 L 329 63 L 329 62 L 327 60 L 327 59 L 325 57 L 324 57 L 323 56 L 323 55 L 322 54 L 322 52 L 321 51 L 321 50 L 317 46 L 317 45 L 316 44 Z M 287 35 L 288 34 L 291 34 L 295 38 L 295 39 L 298 42 L 298 43 L 300 45 L 300 46 L 303 49 L 303 50 L 305 52 L 305 53 L 308 56 L 308 57 L 310 59 L 310 60 L 313 63 L 313 64 L 315 66 L 315 67 L 318 70 L 318 71 L 320 73 L 320 74 L 323 77 L 323 78 L 325 80 L 325 81 L 328 84 L 328 85 L 330 87 L 330 88 L 333 91 L 333 92 L 335 94 L 335 95 L 338 98 L 338 99 L 340 101 L 340 102 L 344 106 L 344 107 L 345 108 L 345 109 L 348 112 L 348 113 L 350 115 L 350 116 L 353 119 L 353 120 L 355 122 L 355 123 L 358 126 L 358 130 L 354 134 L 354 135 L 350 139 L 350 140 L 346 144 L 346 145 L 345 146 L 344 146 L 344 147 L 341 150 L 341 152 L 340 153 L 339 153 L 339 155 L 338 156 L 336 156 L 335 157 L 335 158 L 334 159 L 334 160 L 333 161 L 332 161 L 330 163 L 330 165 L 329 166 L 328 166 L 327 167 L 327 169 L 326 170 L 324 170 L 323 171 L 323 172 L 319 176 L 319 177 L 318 178 L 318 179 L 317 180 L 316 180 L 313 183 L 313 184 L 308 189 L 308 190 L 306 192 L 306 193 L 305 194 L 304 194 L 304 195 L 297 202 L 297 203 L 294 206 L 292 206 L 291 205 L 290 205 L 288 203 L 288 201 L 282 195 L 281 195 L 280 194 L 280 193 L 279 192 L 279 191 L 277 189 L 276 189 L 275 188 L 275 187 L 274 186 L 274 185 L 269 180 L 268 180 L 266 178 L 266 176 L 258 168 L 258 167 L 256 167 L 255 166 L 255 165 L 254 164 L 254 163 L 251 160 L 251 159 L 250 158 L 249 158 L 248 157 L 248 156 L 246 156 L 245 155 L 245 153 L 242 150 L 242 149 L 241 149 L 240 148 L 240 147 L 238 145 L 237 145 L 236 144 L 236 143 L 235 142 L 234 142 L 233 141 L 233 140 L 232 139 L 232 138 L 230 136 L 229 136 L 228 135 L 228 133 L 223 128 L 223 126 L 224 125 L 224 124 L 227 121 L 227 120 L 229 118 L 229 117 L 232 114 L 232 113 L 234 111 L 234 110 L 236 108 L 236 107 L 239 104 L 239 103 L 241 101 L 241 100 L 244 97 L 244 96 L 246 94 L 246 93 L 248 91 L 248 90 L 250 88 L 250 87 L 253 84 L 253 83 L 254 82 L 254 81 L 257 78 L 257 77 L 260 74 L 260 73 L 262 71 L 262 70 L 264 68 L 264 67 L 267 64 L 267 63 L 269 61 L 269 60 L 272 57 L 272 56 L 274 54 L 274 53 L 276 51 L 276 50 L 279 47 L 279 46 L 281 44 L 281 43 L 283 41 L 283 40 L 285 38 L 285 37 L 286 36 L 287 36 Z"/>
</svg>
