<?xml version="1.0" encoding="UTF-8"?>
<!DOCTYPE svg PUBLIC "-//W3C//DTD SVG 1.1//EN" "http://www.w3.org/Graphics/SVG/1.1/DTD/svg11.dtd">
<svg xmlns="http://www.w3.org/2000/svg" version="1.1" width="512px" height="512px" style="shape-rendering:geometricPrecision; text-rendering:geometricPrecision; image-rendering:optimizeQuality; fill-rule:evenodd; clip-rule:evenodd" xmlns:xlink="http://www.w3.org/1999/xlink">
<g><path style="opacity:1" fill="#f9faf9" d="M 146.5,-0.5 C 150.5,-0.5 154.5,-0.5 158.5,-0.5C 165.614,3.09178 171.78,8.09178 177,14.5C 188.766,28.2635 199.766,42.5968 210,57.5C 221.819,75.4574 228.319,95.124 229.5,116.5C 228.406,150.414 212.406,174.247 181.5,188C 146.741,199.685 116.908,192.185 92,165.5C 75.4891,143.441 71.1558,119.108 79,92.5C 82.5163,80.3013 88.0163,69.1346 95.5,59C 104.688,55.0509 110.354,57.8843 112.5,67.5C 106.795,78.7743 101.962,90.441 98,102.5C 92.4065,137.216 106.24,160.049 139.5,171C 166.518,175.568 187.352,166.402 202,143.5C 209.446,127.924 210.446,111.924 205,95.5C 192.782,66.7856 175.282,41.7856 152.5,20.5C 142.991,25.2547 136.991,22.588 134.5,12.5C 135.778,5.55831 139.778,1.22498 146.5,-0.5 Z"/></g>
<g><path style="opacity:1" fill="#f9faf9" d="M 114.5,33.5 C 123.812,32.9802 128.312,37.3136 128,46.5C 124.988,53.7279 119.821,55.8945 112.5,53C 107.374,48.8257 106.207,43.6591 109,37.5C 110.5,35.5313 112.333,34.198 114.5,33.5 Z"/></g>
<g><path style="opacity:1" fill="#f9faf9" d="M 344.5,36.5 C 351.393,35.6554 357.727,37.1554 363.5,41C 385.389,62.8765 404.222,87.0432 420,113.5C 429.739,130.384 435.239,148.55 436.5,168C 433.077,216.087 407.744,244.753 360.5,254C 318.013,257.143 287.513,239.643 269,201.5C 260.52,179.819 260.52,158.153 269,136.5C 280.388,108.704 296.055,83.7035 316,61.5C 322.135,54.364 328.635,47.5307 335.5,41C 338.592,39.4541 341.592,37.9541 344.5,36.5 Z M 348.5,57.5 C 375.3,81.1548 395.8,109.488 410,142.5C 421.597,177.042 412.43,204.542 382.5,225C 350.521,240.27 322.355,235.103 298,209.5C 284.456,191.323 280.79,171.323 287,149.5C 293.717,129.818 303.384,111.818 316,95.5C 326.13,82.2437 336.964,69.5771 348.5,57.5 Z"/></g>
<g><path style="opacity:1" fill="#f9faf9" d="M 259.5,511.5 C 250.167,511.5 240.833,511.5 231.5,511.5C 176.081,499.902 146.414,465.736 142.5,409C 144.013,386.793 150.18,365.96 161,346.5C 179.916,312.899 203.416,282.732 231.5,256C 240.833,251.333 250.167,251.333 259.5,256C 292.994,287.483 319.494,323.983 339,365.5C 355.448,406.662 349.782,444.329 322,478.5C 304.883,496.591 284.05,507.591 259.5,511.5 Z M 243.5,273.5 C 244.873,273.343 246.207,273.51 247.5,274C 279.878,304.269 304.712,339.769 322,380.5C 334.107,419.841 323.94,452.008 291.5,477C 267.146,491.864 241.479,494.531 214.5,485C 177.094,467.368 160.594,437.868 165,396.5C 169.514,378.473 176.514,361.473 186,345.5C 202.34,319.318 221.506,295.318 243.5,273.5 Z"/></g>
<g><path style="opacity:1" fill="#f9faf9" d="M 301.5,399.5 C 310.208,398.217 315.208,401.884 316.5,410.5C 315.942,426.012 310.942,439.846 301.5,452C 289.556,455.278 284.389,450.778 286,438.5C 292.47,428.506 295.804,417.506 296,405.5C 297.36,402.977 299.193,400.977 301.5,399.5 Z"/></g>
<g><path style="opacity:1" fill="#f9faf9" d="M 269.5,452.5 C 279.99,451.489 284.49,456.155 283,466.5C 278.733,473.876 272.899,475.376 265.5,471C 260.608,463.369 261.942,457.202 269.5,452.5 Z"/></g>
</svg>
