<?xml version="1.0" encoding="UTF-8"?>
<!DOCTYPE svg PUBLIC "-//W3C//DTD SVG 1.1//EN" "http://www.w3.org/Graphics/SVG/1.1/DTD/svg11.dtd">
<svg xmlns="http://www.w3.org/2000/svg" version="1.1" width="512px" height="512px" style="shape-rendering:geometricPrecision; text-rendering:geometricPrecision; image-rendering:optimizeQuality; fill-rule:evenodd; clip-rule:evenodd" xmlns:xlink="http://www.w3.org/1999/xlink">
<g><path style="opacity:1" fill="#f9faf9" d="M 412.5,-0.5 C 418.5,-0.5 424.5,-0.5 430.5,-0.5C 457.157,4.76516 476.324,19.7652 488,44.5C 490.277,50.3315 491.944,56.3315 493,62.5C 493.667,78.5 493.667,94.5 493,110.5C 489.501,117.834 483.668,120.834 475.5,119.5C 442.407,116.91 419.574,100.243 407,69.5C 403.696,56.3964 402.196,43.063 402.5,29.5C 402.468,22.4545 402.968,15.4545 404,8.5C 405.688,4.31481 408.521,1.31481 412.5,-0.5 Z M 433.5,32.5 C 456.237,42.9697 465.57,60.6364 461.5,85.5C 447.375,79.2088 438.542,68.5422 435,53.5C 434.003,46.5327 433.503,39.5327 433.5,32.5 Z"/></g>
<g><path style="opacity:1" fill="#f9faf9" d="M 287.5,511.5 C 272.167,511.5 256.833,511.5 241.5,511.5C 163.783,499.228 104.949,459.228 65,391.5C 46.1158,358.297 37.4491,322.63 39,284.5C 40.9649,251.404 54.4649,224.238 79.5,203C 88.2768,194.748 97.1101,194.582 106,202.5C 107.846,205.569 108.846,208.902 109,212.5C 109.333,219.833 109.667,227.167 110,234.5C 114.678,248.42 124.178,253.92 138.5,251C 150.081,246.422 155.581,237.922 155,225.5C 149.738,213.304 144.738,200.971 140,188.5C 131.52,157.191 134.854,127.191 150,98.5C 156.836,90.7494 164.669,89.5827 173.5,95C 188.006,114.842 205.672,131.176 226.5,144C 243.185,151.409 254.018,146.243 259,128.5C 263.037,114.58 263.37,100.58 260,86.5C 257.64,78.9478 255.14,71.4478 252.5,64C 255.309,50.5917 263.309,45.925 276.5,50C 302.349,58.5019 324.516,72.6685 343,92.5C 361.025,117.313 366.025,144.646 358,174.5C 354.399,186.47 350.899,198.47 347.5,210.5C 350.95,229.101 361.95,236.267 380.5,232C 386.651,228.521 390.484,223.354 392,216.5C 392.084,201.455 392.751,186.455 394,171.5C 398.47,163.016 405.303,160.183 414.5,163C 461.792,190.327 489.292,231.161 497,285.5C 499.793,315.076 495.126,343.409 483,370.5C 449.542,437.279 397.042,481.779 325.5,504C 312.843,507.272 300.177,509.772 287.5,511.5 Z M 350.5,460.5 C 372.255,403.449 360.588,354.282 315.5,313C 288.729,291.19 258.062,281.856 223.5,285C 215.085,289.348 212.252,296.181 215,305.5C 226.268,322.508 226.268,339.508 215,356.5C 206.667,363.5 198.333,370.5 190,377.5C 176.946,395.42 172.279,415.42 176,437.5C 177.102,445.804 179.602,453.637 183.5,461C 139.088,439.587 106.255,406.42 85,361.5C 72.5907,335.458 67.924,308.124 71,279.5C 72.6895,268.43 76.3562,258.096 82,248.5C 93.7589,274.547 113.926,285.714 142.5,282C 172.494,273.516 186.994,253.683 186,222.5C 183.919,210.333 179.586,199 173,188.5C 166.179,171.882 164.846,154.882 169,137.5C 181.486,151.665 195.986,163.165 212.5,172C 245.699,186.494 270.199,177.661 286,145.5C 291.987,127.954 294.487,109.954 293.5,91.5C 308.246,99.7456 319.412,111.412 327,126.5C 330.183,135.933 331.183,145.599 330,155.5C 326.817,170.384 322.817,185.05 318,199.5C 314.356,222.24 321.522,240.74 339.5,255C 355.066,264.816 371.733,267.149 389.5,262C 412.703,251.462 424.203,233.295 424,207.5C 469.124,252.899 478.457,304.899 452,363.5C 428.68,406.99 394.847,439.323 350.5,460.5 Z M 253.5,317.5 C 296.342,328.513 321.842,355.847 330,399.5C 334.07,436.381 319.236,462.215 285.5,477C 257.675,485.499 234.508,478.665 216,456.5C 207.468,443.367 204.468,429.033 207,413.5C 208.487,405.025 212.654,398.192 219.5,393C 239.837,380.618 251.337,362.452 254,338.5C 254.565,331.482 254.399,324.482 253.5,317.5 Z"/></g>
<g><path style="opacity:1" fill="#f9faf9" d="M 75.5,59.5 C 81.8421,59.3338 88.1754,59.5005 94.5,60C 98.6667,61.5 101.5,64.3333 103,68.5C 105.088,86.2067 104.754,103.873 102,121.5C 96.6984,142.465 84.8651,158.632 66.5,170C 52.7974,177.74 38.1308,180.74 22.5,179C 18.3333,177.5 15.5,174.667 14,170.5C 13.3333,154.167 13.3333,137.833 14,121.5C 22.0233,88.3104 42.5233,67.6438 75.5,59.5 Z M 72.5,92.5 C 76.0032,116.493 67.0032,134.16 45.5,145.5C 41.5415,121.082 50.5415,103.415 72.5,92.5 Z"/></g>
</svg>
