<?xml version="1.0" encoding="UTF-8"?>
<svg version="1.1" xmlns="http://www.w3.org/2000/svg" width="512" height="512">
<path d="M0 0 C1.28849854 0.4328833 1.28849854 0.4328833 2.60302734 0.87451172 C22.08930369 7.5703164 40.31135821 16.90733812 57 29 C57.56122559 29.40573242 58.12245117 29.81146484 58.70068359 30.22949219 C66.97996203 36.27650644 74.60022665 42.91340604 82 50 C82.49886719 50.47163574 82.99773437 50.94327148 83.51171875 51.42919922 C91.50886421 59.01775016 98.43523202 67.14994188 105 76 C105.95326172 77.27810547 105.95326172 77.27810547 106.92578125 78.58203125 C138.95916531 122.98692915 154.01868921 181.21014323 145.48071289 235.57299805 C142.2979944 253.42894609 136.71099066 271.4322011 127.5 287.125 C125.64536516 290.41388578 125.00512806 291.70770038 124.9375 295.5625 C125.288125 296.696875 125.63875 297.83125 126 299 C126.50124271 300.66629335 127.00115002 302.33298876 127.5 304 C127.76425781 304.85980469 128.02851563 305.71960938 128.30078125 306.60546875 C133.00152803 322.70355688 129.61196015 341.35368102 122 356 C112.16161419 372.30910899 97.93547348 384.65479522 79.3125 389.75 C73.56361127 391.05794823 67.74456503 391.69928912 61.87426758 392.17871094 C57.48042446 392.59154837 54.63952729 393.5334327 51 396 C50.34 396 49.68 396 49 396 C44.38648515 403.90888261 44.71934874 412.54891436 44.7265625 421.40625 C44.71146553 423.36113086 44.69634527 425.31601186 44.67987633 427.27088165 C44.64230364 432.05667487 44.62495 436.84248889 44.61914062 441.62841797 C44.61508105 444.32484938 44.60044737 447.02085108 44.57479858 449.71716309 C44.55148857 452.24579205 44.54392956 454.77462981 44.55435181 457.30334473 C44.4593364 465.57610633 43.43200575 471.06879341 37.8515625 477.4609375 C37.11679687 478.09257812 36.38203125 478.72421875 35.625 479.375 C34.89539063 480.02210938 34.16578125 480.66921875 33.4140625 481.3359375 C26.79551741 485.89823557 19.59527874 485.3135405 11.875 485.21484375 C5.66728153 485.33112666 2.5615554 486.5628337 -2.16040039 490.55810547 C-7.18846005 494.49914334 -13.36907108 494.26935421 -19.4375 494.125 C-20.16904297 494.11597656 -20.90058594 494.10695313 -21.65429688 494.09765625 C-23.43634298 494.07436153 -25.21821759 494.0385019 -27 494 C-27.20625 494.5775 -27.4125 495.155 -27.625 495.75 C-29.57447009 498.94004196 -31.55433703 500.65726749 -35 502 C-39.78396897 502.60516304 -44.56084048 502.56362667 -49.375 502.53125 C-50.78694933 502.53394785 -52.19889684 502.53783271 -53.61083984 502.54284668 C-56.56300632 502.54872811 -59.51468708 502.54022345 -62.46679688 502.52148438 C-66.23972235 502.49869462 -70.01150954 502.51182514 -73.78439331 502.53577423 C-76.6979216 502.55026955 -79.61118264 502.54560937 -82.52471924 502.53526306 C-83.91530494 502.53260603 -85.30591537 502.53582936 -86.69647217 502.54518127 C-100.20847177 502.61612407 -100.20847177 502.61612407 -105 498 C-106.375 495.75 -106.375 495.75 -107 494 C-108.03898438 494.04640625 -109.07796875 494.0928125 -110.1484375 494.140625 C-118.43863566 494.39935163 -125.65058889 494.40149575 -133 490 C-133.70253906 489.30390625 -134.40507812 488.6078125 -135.12890625 487.890625 C-139.97850083 484.69715047 -145.33307881 485.48751674 -150.98828125 485.51171875 C-158.64810071 485.3904842 -164.61126009 483.84550679 -170.55859375 478.8515625 C-171.17863281 478.11679687 -171.79867187 477.38203125 -172.4375 476.625 C-173.07558594 475.89539063 -173.71367187 475.16578125 -174.37109375 474.4140625 C-177.43405469 469.87471032 -178.24837684 465.43497127 -178.27124023 460.02978516 C-178.28652016 458.29736069 -178.28652016 458.29736069 -178.30210876 456.52993774 C-178.30531883 454.6782045 -178.30531883 454.6782045 -178.30859375 452.7890625 C-178.3273151 450.8298377 -178.34605349 448.8706129 -178.36577702 446.91139793 C-178.41097411 442.10151095 -178.4347234 437.29148731 -178.45629883 432.48144531 C-178.46915646 429.7766778 -178.48990525 427.07216891 -178.51856995 424.36752319 C-178.54469479 421.82776594 -178.55870564 419.28784692 -178.5589447 416.74795532 C-178.65118624 408.71754435 -178.98889509 402.29787681 -184.625 396.125 C-189.74930877 392.89858337 -194.49073711 392.27786188 -200.45703125 391.6171875 C-218.86302369 389.53205962 -236.04054637 381.88531483 -248.12109375 367.46875 C-256.97622664 355.81814037 -263.08079709 342.73510114 -264 328 C-264.05285156 327.20464844 -264.10570312 326.40929687 -264.16015625 325.58984375 C-264.46269736 316.65830396 -263.00619831 307.29824855 -259.8359375 298.92578125 C-258.07019896 292.74569637 -260.72233946 288.18025785 -263.625 282.8125 C-270.9714327 268.62324753 -276.04998743 253.6962207 -279 238 C-279.22558594 236.81277344 -279.45117188 235.62554687 -279.68359375 234.40234375 C-288.02106057 180.64005769 -272.55260799 122.87037288 -241 79 C-234.37022766 69.94607205 -227.12027521 61.53270625 -219.36523438 53.42822266 C-218.14565415 52.15237424 -216.9390991 50.86410438 -215.734375 49.57421875 C-187.38991055 20.02249008 -146.78703715 0.79501136 -107 -7 C-106.29198242 -7.14953125 -105.58396484 -7.2990625 -104.85449219 -7.453125 C-70.65108856 -14.4785253 -32.87487147 -11.04661292 0 0 Z M-207.1875 66.875 C-234.33202886 94.16968529 -256.55423619 133.27431354 -260 172 C-206.94942567 200.45674012 -134.1004269 201.42971819 -76 203 C-76 138.65 -76 74.3 -76 8 C-125.80973827 8 -172.35010138 32.60753837 -207.1875 66.875 Z M-58 8 C-58 72.35 -58 136.7 -58 203 C-30.14489 202.44409303 -30.14489 202.44409303 -2.375 200.75 C-1.63813965 200.68753082 -0.9012793 200.62506165 -0.14208984 200.56069946 C39.92361928 197.13555398 79.82142482 190.29901548 117.625 176.25 C118.37160889 175.9806665 119.11821777 175.71133301 119.88745117 175.43383789 C122.13621571 174.59859146 122.13621571 174.59859146 125 173 C126.20653506 170.00715593 125.96981213 167.81339683 125.25 164.71875 C124.96129028 163.47097778 124.96129028 163.47097778 124.66674805 162.19799805 C124.33670776 160.86248901 124.33670776 160.86248901 124 159.5 C123.7728833 158.5716333 123.5457666 157.6432666 123.31176758 156.68676758 C119.33349271 140.95334929 113.75791964 126.24478895 106 112 C105.67918457 111.39994141 105.35836914 110.79988281 105.02783203 110.18164062 C91.30922169 84.62559048 71.51665308 61.97003669 48 45 C47.42878418 44.58443848 46.85756836 44.16887695 46.26904297 43.74072266 C16.46234022 22.30697089 -21.05107618 8 -58 8 Z M-262 191 C-269.90570956 214.71712869 -259.29133608 251.08665338 -249.03271484 273.00976562 C-246.68771511 277.52901806 -243.72782898 281.65503126 -240.72265625 285.75390625 C-238.44714356 290.04177709 -238.51074579 292.17870853 -239 297 C-240.0234375 300.0546875 -240.0234375 300.0546875 -241.375 302.875 C-246.56001411 314.65912297 -247.50460754 326.34907937 -243.3125 338.75 C-237.3717467 353.18962456 -228.43655757 362.94901949 -214.39453125 369.625 C-208.15018697 372.15435465 -202.32840581 373.28206198 -195.6875 373.875 C-184.20249086 375.11013353 -175.90922318 378.18418602 -168 387 C-161.02738167 396.5916018 -160.7171143 406.96220352 -160.7265625 418.42578125 C-160.70629282 421.02148884 -160.68544244 423.61719194 -160.6640625 426.21289062 C-160.63927219 430.2793769 -160.62410708 434.34579591 -160.61914062 438.41235352 C-160.61316925 442.35456369 -160.57594716 446.2962374 -160.5390625 450.23828125 C-160.54663071 452.0679821 -160.54663071 452.0679821 -160.55435181 453.93464661 C-160.54108856 455.06649887 -160.52782532 456.19835114 -160.51416016 457.36450195 C-160.51131012 458.35883743 -160.50846008 459.35317291 -160.50552368 460.37763977 C-159.8586179 463.73340735 -158.67114274 464.92858757 -156 467 C-152.95559865 467.48195275 -152.95559865 467.48195275 -149.75 467.25 C-148.67234375 467.21390625 -147.5946875 467.1778125 -146.484375 467.140625 C-145.66453125 467.09421875 -144.8446875 467.0478125 -144 467 C-143.9906543 466.41508789 -143.98130859 465.83017578 -143.97167969 465.22753906 C-143.91786721 462.5675142 -143.83424551 459.90922778 -143.75 457.25 C-143.73582031 456.32960938 -143.72164063 455.40921875 -143.70703125 454.4609375 C-143.46092256 447.66833772 -143.46092256 447.66833772 -141.203125 444.39453125 C-138.90277812 442.93846062 -137.69851527 442.43222946 -135 442.4375 C-134.34 442.41558594 -133.68 442.39367187 -133 442.37109375 C-129.6049895 443.43866541 -128.73501849 444.89523008 -127 448 C-126.47078761 451.85220016 -126.4855174 455.67874948 -126.5 459.5625 C-126.50766742 461.62631413 -126.49794594 463.6902844 -126.46875 465.75390625 C-126.47326172 466.66470947 -126.47777344 467.5755127 -126.48242188 468.51391602 C-125.85284052 471.75836286 -124.5087777 472.92347792 -122 475 C-119.47524538 476.26237731 -117.68799534 476.09856404 -114.875 476.0625 C-113.50988281 476.04896484 -113.50988281 476.04896484 -112.1171875 476.03515625 C-111.41851562 476.02355469 -110.71984375 476.01195312 -110 476 C-109.98541748 475.41508789 -109.97083496 474.83017578 -109.95581055 474.22753906 C-109.8811643 471.56770603 -109.78456101 468.90910552 -109.6875 466.25 C-109.66494141 465.32960938 -109.64238281 464.40921875 -109.61914062 463.4609375 C-109.58369141 462.57148438 -109.54824219 461.68203125 -109.51171875 460.765625 C-109.48553467 459.94868164 -109.45935059 459.13173828 -109.43237305 458.29003906 C-108.89928319 455.46655919 -107.97453291 454.07071854 -106 452 C-102.02655839 450.89626622 -99.91000228 450.58456417 -96.125 452.3125 C-94 454 -94 454 -93 456 C-92.84558791 458.10374996 -92.75007361 460.21195119 -92.68359375 462.3203125 C-92.62075195 464.20556641 -92.62075195 464.20556641 -92.55664062 466.12890625 C-92.51732422 467.44761719 -92.47800781 468.76632812 -92.4375 470.125 C-92.39430488 471.46485751 -92.35069027 472.80470156 -92.30664062 474.14453125 C-92.2002909 477.4295562 -92.09961683 480.71476398 -92 484 C-86.72 484 -81.44 484 -76 484 C-75.96261719 482.02515625 -75.92523438 480.0503125 -75.88671875 478.015625 C-75.82106684 475.42706409 -75.75461924 472.83852328 -75.6875 470.25 C-75.65366211 468.29707031 -75.65366211 468.29707031 -75.61914062 466.3046875 C-75.58369141 465.05429687 -75.54824219 463.80390625 -75.51171875 462.515625 C-75.48553467 461.36352539 -75.45935059 460.21142578 -75.43237305 459.02441406 C-74.9610787 455.7277487 -74.35786712 454.31912363 -72 452 C-68.02655839 450.89626622 -65.91000228 450.58456417 -62.125 452.3125 C-60 454 -60 454 -59 456 C-58.84558791 458.10374996 -58.75007361 460.21195119 -58.68359375 462.3203125 C-58.62075195 464.20556641 -58.62075195 464.20556641 -58.55664062 466.12890625 C-58.51732422 467.44761719 -58.47800781 468.76632812 -58.4375 470.125 C-58.39430488 471.46485751 -58.35069027 472.80470156 -58.30664062 474.14453125 C-58.2002909 477.4295562 -58.09961683 480.71476398 -58 484 C-52.72 484 -47.44 484 -42 484 C-41.96261719 482.10894531 -41.92523438 480.21789062 -41.88671875 478.26953125 C-41.82105883 475.78383434 -41.7546115 473.29815814 -41.6875 470.8125 C-41.65366211 468.94368164 -41.65366211 468.94368164 -41.61914062 467.03710938 C-41.58369141 465.83505859 -41.54824219 464.63300781 -41.51171875 463.39453125 C-41.47244263 461.73707886 -41.47244263 461.73707886 -41.43237305 460.04614258 C-40.94815097 456.63471466 -40.10659576 454.71373154 -38 452 C-34.01451574 450.81911577 -31.93317777 450.57398406 -28.125 452.3125 C-26 454 -26 454 -25 456 C-24.84876169 457.5195764 -24.75118307 459.04472502 -24.68359375 460.5703125 C-24.64169922 461.46621094 -24.59980469 462.36210937 -24.55664062 463.28515625 C-24.51732422 464.22230469 -24.47800781 465.15945313 -24.4375 466.125 C-24.39431641 467.06988281 -24.35113281 468.01476562 -24.30664062 468.98828125 C-24.20040928 471.32537092 -24.09836824 473.6625683 -24 476 C-22.39731229 476.03724993 -20.79437464 476.06385133 -19.19140625 476.0859375 C-18.29881104 476.10188965 -17.40621582 476.1178418 -16.48657227 476.13427734 C-13.29352994 475.96184992 -11.43767389 475.04450068 -9 473 C-7.78065685 470.5613137 -7.84347645 468.89241025 -7.7890625 466.16796875 C-7.76070312 465.20439453 -7.73234375 464.24082031 -7.703125 463.24804688 C-7.65134534 461.21957881 -7.6069854 459.19090678 -7.5703125 457.16210938 C-7.38893071 451.49014954 -7.22306074 447.22306074 -3 443 C4.06927118 442.42055154 4.06927118 442.42055154 7.21484375 444.37890625 C9.97275141 448.42826301 9.67612451 452.4548092 9.75 457.25 C9.79447266 458.65378906 9.79447266 458.65378906 9.83984375 460.0859375 C9.91039804 462.39071092 9.96316252 464.69448168 10 467 C11.91541138 467.10841951 13.83259773 467.18578079 15.75 467.25 C16.81734375 467.29640625 17.8846875 467.3428125 18.984375 467.390625 C22.76435561 466.90099021 23.65849406 465.94784098 26 463 C26.59886933 460.37762116 26.59886933 460.37762116 26.51416016 457.47216797 C26.5274234 456.36356415 26.54068665 455.25496033 26.55435181 454.11276245 C26.54930634 452.91797272 26.54426086 451.72318298 26.5390625 450.4921875 C26.55085541 449.25638947 26.56264832 448.02059143 26.57479858 446.74734497 C26.60415295 443.45983769 26.61754864 440.1728137 26.62164307 436.88519287 C26.62933524 432.27897897 26.6579532 427.67297221 26.69662476 423.06692505 C26.71610939 420.6183167 26.72560558 418.16960175 26.72354126 415.72091675 C26.78432758 405.872038 27.50979453 396.45999632 33 388 C33.53753906 387.47277344 34.07507813 386.94554687 34.62890625 386.40234375 C36.23303167 385.08853056 36.23303167 385.08853056 36 383 C36.5775 382.7215625 37.155 382.443125 37.75 382.15625 C39.98242667 381.05012343 39.98242667 381.05012343 41.9375 379.78125 C49.15043293 375.30048863 56.2233471 374.56600428 64.52734375 373.58203125 C79.1850098 371.71998247 90.68106864 366.71398561 100.375 355.125 C108.24722679 344.5482045 113.63059738 331.41937574 112 318 C110.84622675 311.23621334 109.53162092 304.89348105 105.76953125 299.07421875 C104.52663995 295.72409043 104.46538216 292.48727024 105 289 C106.72265625 285.75390625 106.72265625 285.75390625 109.0625 282.5625 C120.41924493 266.11225049 125.75474733 245.68512223 128 226 C128.11085938 225.08992188 128.22171875 224.17984375 128.3359375 223.2421875 C129.01517369 216.65176068 129.1297041 210.0574897 129.1875 203.4375 C129.20055176 202.55570068 129.21360352 201.67390137 129.22705078 200.76538086 C129.22817871 199.93401611 129.22930664 199.10265137 129.23046875 198.24609375 C129.23457764 197.50029053 129.23868652 196.7544873 129.24291992 195.98608398 C129.11202578 193.68099268 129.11202578 193.68099268 127 191 C126.20456787 191.30852905 126.20456787 191.30852905 125.39306641 191.62329102 C84.99475477 207.14819088 42.58606385 214.03815816 -0.375 217.6875 C-1.08320892 217.74843842 -1.79141785 217.80937683 -2.52108765 217.87216187 C-23.66596648 219.66275376 -44.84838894 220.20995253 -66.0625 220.1875 C-67.13583588 220.18689575 -68.20917175 220.1862915 -69.31503296 220.18566895 C-134.42184505 220.08730307 -200.60582591 213.97199229 -262 191 Z " fill="#FFFFFF" transform="translate(323,10)"/>
<path d="M0 0 C2.04609894 0.42901483 4.08989816 0.8691004 6.13163757 1.31840515 C7.25648056 1.55742554 8.38132355 1.79644592 9.54025269 2.04270935 C13.23013879 2.82969432 16.91660708 3.6315314 20.60307312 4.43437195 C23.17741483 4.98832569 25.75189524 5.5416352 28.32650757 6.09432983 C33.70846419 7.25138842 39.08853513 8.41691047 44.46757507 9.58744812 C50.67723807 10.93861747 56.88980205 12.27573925 63.1040681 13.60556442 C69.10093891 14.88925078 75.09551691 16.18332162 81.08917809 17.4819088 C83.6327293 18.03195522 86.17685847 18.57933599 88.72156715 19.12400246 C92.27302245 19.88561825 95.8217139 20.6589951 99.36991882 21.43559265 C100.42091766 21.65857529 101.4719165 21.88155792 102.55476379 22.11129761 C111.65341893 24.1263036 111.65341893 24.1263036 115.42729187 27.0710907 C117.15913732 30.5347816 117.03801106 34.29268513 116.42729187 38.0710907 C114.11479187 40.6335907 114.11479187 40.6335907 111.42729187 42.0710907 C110.43729187 42.0710907 109.44729187 42.0710907 108.42729187 42.0710907 C108.41311218 42.72593445 108.3989325 43.3807782 108.38432312 44.0554657 C107.68209702 57.49265709 102.36028696 67.08340261 92.42729187 76.0710907 C81.73545755 84.42675069 69.357747 85.61918252 56.17729187 85.5085907 C54.90112 85.50029236 53.62494812 85.49199402 52.31010437 85.48344421 C33.95319974 85.15514163 18.22915171 80.46446455 4.64213562 67.44999695 C-7.07338062 54.86666469 -11.6349017 40.51441296 -12.51997375 23.69804382 C-12.70540689 21.3865555 -12.91307123 19.29499296 -13.57270813 17.0710907 C-15.91713756 15.10741387 -15.91713756 15.10741387 -18.57270813 14.0710907 C-21.07302467 10.32061588 -21.10874367 8.51252804 -20.57270813 4.0710907 C-15.81026705 -3.39006699 -7.69187096 -1.4438622 0 0 Z M6.42729187 21.0710907 C5.64954022 33.45030447 8.5161329 43.4018964 16.42729187 53.0710907 C25.37388853 62.63469402 36.47234256 66.9234909 49.38822937 67.4070282 C51.52615918 67.43066624 53.66423295 67.4435085 55.80229187 67.4460907 C57.39170593 67.48282898 57.39170593 67.48282898 59.01322937 67.52030945 C68.00316034 67.55336067 76.37373167 66.00106652 83.36479187 60.0085907 C88.01065879 54.82666221 90.21175557 48.25025112 90.67729187 41.3835907 C90.59479187 40.6204657 90.51229187 39.8573407 90.42729187 39.0710907 C86.00124218 37.51129514 81.60149482 36.37033595 77.01664734 35.37528992 C75.94232452 35.14076614 75.94232452 35.14076614 74.84629822 34.90150452 C72.49641654 34.38952633 70.14550998 33.88245217 67.79447937 33.3757782 C66.15350139 33.02008631 64.51256161 32.66421813 62.87165833 32.30818176 C59.44097385 31.5646485 56.00976161 30.82361279 52.57817078 30.08427429 C48.18103341 29.13664349 43.78539963 28.18223257 39.39015007 27.22588921 C36.00561649 26.49034324 32.62025577 25.75866454 29.23463821 25.02812576 C27.61325532 24.67772549 25.99214599 24.32605685 24.37131882 23.97309494 C22.10809754 23.48078935 19.84380112 22.99376937 17.57914734 22.50810242 C16.29152496 22.22989655 15.00390259 21.95169067 13.67726135 21.66505432 C10.32212088 20.95123606 10.32212088 20.95123606 6.42729187 21.0710907 Z " fill="#FFFFFF" transform="translate(122.57270812988281,273.9289093017578)"/>
<path d="M0 0 C2.36522795 3.70552378 2.56998979 5.61311906 1.875 9.9375 C-0.26179285 13.32689556 -1.3024767 14.66332557 -5.125 15.9375 C-5.27195312 17.76861328 -5.27195312 17.76861328 -5.421875 19.63671875 C-7.1702278 39.59233634 -12.08059972 55.87472017 -27.125 69.9375 C-41.05337423 81.4044785 -56.64669651 84.11651894 -74.25 84.1875 C-75.50554687 84.208125 -76.76109375 84.22875 -78.0546875 84.25 C-92.27523085 84.3090064 -103.75470414 81.63645814 -114.4140625 71.83203125 C-122.08164745 63.71932433 -126.79182146 54.10037426 -127.25 42.875 C-127.20875 42.235625 -127.1675 41.59625 -127.125 40.9375 C-127.888125 40.855 -128.65125 40.7725 -129.4375 40.6875 C-132.125 39.9375 -132.125 39.9375 -133.9375 38.375 C-135.59254892 34.97779433 -136.04194227 31.63414915 -135.125 27.9375 C-131.9842523 24.02013777 -129.17385315 23.10689217 -124.34521484 22.01269531 C-123.65218954 21.85189106 -122.95916424 21.69108681 -122.24513817 21.5254097 C-119.87499371 20.98062422 -117.50043937 20.45868359 -115.125 19.9375 C-113.35639799 19.53952083 -111.58795061 19.14085402 -109.81964111 18.74157715 C-103.75247719 17.38031668 -97.67765204 16.05513773 -91.6015625 14.734375 C-90.50339581 14.49532692 -89.40522911 14.25627884 -88.27378464 14.00998688 C-82.47924166 12.7490551 -76.68399815 11.49140154 -70.88818359 10.23632812 C-64.92840808 8.94499578 -58.97133898 7.64158982 -53.01476479 6.33558273 C-48.40244553 5.326696 -43.78816869 4.32699971 -39.17332077 3.32975006 C-36.97586238 2.85319695 -34.77915125 2.3731837 -32.58324051 1.88954926 C-29.51406218 1.21444026 -26.44231189 0.5525014 -23.36962891 -0.10644531 C-22.47694305 -0.30587738 -21.5842572 -0.50530945 -20.66452026 -0.71078491 C-5.82645009 -3.84545706 -5.82645009 -3.84545706 0 0 Z M-35.90698242 21.48217773 C-36.68624588 21.64638214 -37.46550934 21.81058655 -38.26838684 21.97976685 C-40.83996126 22.52280799 -43.4102306 23.07176551 -45.98046875 23.62109375 C-47.76592358 24.00008912 -49.55143154 24.37883431 -51.33699036 24.75733948 C-55.07572915 25.5508507 -58.81383379 26.34726829 -62.55151367 27.14575195 C-67.35253977 28.17117227 -72.1550281 29.18954643 -76.95800304 30.20579433 C-80.64303277 30.98626659 -84.32728938 31.77033778 -88.0113163 32.55552864 C-89.78259384 32.9326095 -91.55410821 33.30857963 -93.32585716 33.68343925 C-95.79509997 34.20645652 -98.26326771 34.73427177 -100.73120117 35.26342773 C-101.4693808 35.41879501 -102.20756042 35.57416229 -102.96810913 35.73423767 C-106.33067051 36.24021235 -106.33067051 36.24021235 -109.125 37.9375 C-109.20015657 45.64856447 -107.55390663 52.07416176 -102.3984375 57.8828125 C-94.27730265 65.61568592 -85.61887314 66.43063993 -74.75 66.3125 C-73.69039063 66.32410156 -72.63078125 66.33570313 -71.5390625 66.34765625 C-57.8770558 66.29742828 -46.2842375 62.54647244 -36.234375 53.20703125 C-27.31694635 43.61253858 -24.7489996 32.65418155 -24.125 19.9375 C-28.24161455 19.9375 -31.91230347 20.6233844 -35.90698242 21.48217773 Z " fill="#FFFFFF" transform="translate(408.125,275.0625)"/>
<path d="M0 0 C2.63823988 2.5596833 4.17064442 5.10958123 5.96142578 8.3203125 C6.47039902 9.23157898 6.47039902 9.23157898 6.98965454 10.16125488 C10.85317174 17.15176188 14.44828366 24.28162897 18.00341797 31.43261719 C19.13574129 33.70814205 20.27672706 35.97918272 21.41845703 38.25 C22.15074194 39.71588914 22.88253147 41.18202587 23.61376953 42.6484375 C23.95020477 43.31725952 24.28664001 43.98608154 24.63327026 44.6751709 C28.75068086 52.99255925 30.91302696 59.91722983 28.05908203 68.9296875 C25.16854682 74.11271616 21.53318262 77.52513912 16.24658203 80.1796875 C9.93729175 80.96545992 3.55912704 80.898014 -2.44091797 78.6796875 C-13.55783399 74.8456356 -26.08413398 76.47802554 -36.88623047 80.33984375 C-42.76070296 82.06056798 -47.68782852 81.23196892 -53.06591797 78.4921875 C-57.93385705 74.30349573 -62.14034198 69.94310597 -62.99194336 63.32641602 C-63.34595401 56.3752941 -61.02413575 51.51447007 -57.87841797 45.4296875 C-56.86463094 43.39881979 -55.85162765 41.36756069 -54.83935547 39.3359375 C-54.3234082 38.31371094 -53.80746094 37.29148437 -53.27587891 36.23828125 C-51.36510597 32.39957641 -49.5603851 28.51656013 -47.75830078 24.62597656 C-36.18423239 -0.24250814 -36.18423239 -0.24250814 -24.63232422 -4.625 C-16.16038635 -7.07144195 -7.02440218 -5.33927615 0 0 Z M-23.75341797 17.1796875 C-25.62590007 20.41306558 -27.2513244 23.75499201 -28.87841797 27.1171875 C-29.35053711 28.07979492 -29.82265625 29.04240234 -30.30908203 30.03417969 C-31.2968919 32.05383353 -32.28054358 34.07552587 -33.26025391 36.09912109 C-34.73843951 39.14878524 -36.23321646 42.18988826 -37.72998047 45.23046875 C-38.65553137 47.12968642 -39.58005055 49.0294073 -40.50341797 50.9296875 C-40.94572754 51.8280835 -41.38803711 52.72647949 -41.84375 53.65209961 C-42.44098877 54.89552124 -42.44098877 54.89552124 -43.05029297 56.1640625 C-43.40446289 56.89334961 -43.75863281 57.62263672 -44.12353516 58.37402344 C-44.43532715 59.26782715 -44.43532715 59.26782715 -44.75341797 60.1796875 C-44.42341797 60.8396875 -44.09341797 61.4996875 -43.75341797 62.1796875 C-40.0778734 61.72024443 -36.70928994 61.16751425 -33.12841797 60.1796875 C-20.17699853 56.90461592 -6.32556794 57.8438378 6.24658203 62.1796875 C8.99723435 62.34826233 8.99723435 62.34826233 11.24658203 62.1796875 C10.63010905 56.98595188 8.22775712 52.6922665 5.91455078 48.08203125 C5.48153152 47.21075089 5.04851227 46.33947052 4.60237122 45.44178772 C3.68658661 43.60380664 2.76770688 41.7673649 1.84594727 39.93237305 C0.43979794 37.12858473 -0.95127207 34.31766392 -2.34130859 31.50585938 C-3.23428348 29.71829746 -4.12813467 27.93117298 -5.02294922 26.14453125 C-5.43664261 25.30591049 -5.850336 24.46728973 -6.27656555 23.60325623 C-9.21439874 17.79096331 -9.21439874 17.79096331 -13.75341797 13.1796875 C-18.82781314 12.33395497 -20.56491087 13.30792888 -23.75341797 17.1796875 Z " fill="#FFFFFF" transform="translate(272.75341796875,354.8203125)"/>
<path d="M0 0 C0.84129959 -0.00960754 1.68259918 -0.01921509 2.5493927 -0.02911377 C3.90879219 -0.03548859 3.90879219 -0.03548859 5.2956543 -0.04199219 C6.23160934 -0.04769226 7.16756439 -0.05339233 8.13188171 -0.05926514 C10.11313752 -0.06871201 12.09440901 -0.07524788 14.07568359 -0.07910156 C17.09785591 -0.08879656 20.11934502 -0.11981857 23.14135742 -0.15136719 C25.06778568 -0.15789857 26.9942188 -0.16314851 28.9206543 -0.16699219 C30.27094475 -0.18551239 30.27094475 -0.18551239 31.64851379 -0.20440674 C37.67033089 -0.18316438 42.07538917 0.64106382 46.6706543 4.87988281 C47.14889648 5.46769531 47.62713867 6.05550781 48.11987305 6.66113281 C48.85657227 7.54285156 48.85657227 7.54285156 49.6081543 8.44238281 C51.62339362 11.33067371 51.93851275 13.90665612 51.984375 17.32202148 C52.00362785 18.5742878 52.00362785 18.5742878 52.02326965 19.85185242 C52.03065659 20.75184464 52.03804352 21.65183685 52.0456543 22.57910156 C52.05372604 23.51031326 52.06179779 24.44152496 52.07011414 25.4009552 C52.08394669 27.37381127 52.09467255 29.3466912 52.10253906 31.31958008 C52.11970901 34.31996795 52.16359746 37.3192414 52.20776367 40.31933594 C52.21789491 42.23924974 52.22640966 44.15917288 52.2331543 46.07910156 C52.25066238 46.96897263 52.26817047 47.85884369 52.28620911 48.77568054 C52.26595514 54.66449441 51.49450877 59.42154148 47.80737305 64.16113281 C42.3086238 69.34150767 36.71572826 69.89493445 29.4284668 69.79003906 C28.45756607 69.79245102 27.48666534 69.79486298 26.48634338 69.79734802 C24.44495537 69.79637346 22.40353964 69.78307375 20.36230469 69.75805664 C17.24997678 69.72368917 14.14048342 69.73743405 11.02807617 69.75683594 C9.03652772 69.74993805 7.04498653 69.74026618 5.0534668 69.72753906 C4.13037216 69.73249893 3.20727753 69.7374588 2.25621033 69.74256897 C-3.73566846 69.63407231 -7.27482677 68.63484558 -12.19262695 65.16113281 C-15.87450976 61.18857505 -17.30099322 58.18083624 -17.36962891 52.80078125 C-17.38246414 51.92266785 -17.39529938 51.04455444 -17.40852356 50.13983154 C-17.41591049 49.19295471 -17.42329742 48.24607788 -17.4309082 47.27050781 C-17.43897995 46.29253235 -17.4470517 45.31455688 -17.45536804 44.3069458 C-17.469201 42.23573577 -17.47992668 40.16450301 -17.48779297 38.09326172 C-17.50498574 34.93705626 -17.54887701 31.78190386 -17.59301758 28.62597656 C-17.60314666 26.61166133 -17.61166209 24.59733721 -17.6184082 22.58300781 C-17.63591629 21.64422791 -17.65342438 20.705448 -17.67146301 19.73822021 C-17.65153801 13.67182767 -16.76762726 10.11057498 -13.19262695 5.16113281 C-8.8865508 1.82172681 -5.44193711 0.05027194 0 0 Z M0.80737305 18.16113281 C0.80737305 29.05113281 0.80737305 39.94113281 0.80737305 51.16113281 C11.69737305 51.16113281 22.58737305 51.16113281 33.80737305 51.16113281 C33.80737305 40.27113281 33.80737305 29.38113281 33.80737305 18.16113281 C22.91737305 18.16113281 12.02737305 18.16113281 0.80737305 18.16113281 Z " fill="#FFFFFF" transform="translate(179.192626953125,118.8388671875)"/>
<path d="M0 0 C2.81005071 2.27841949 3.84898818 3.54696453 5 7 C5.1010427 9.51355678 5.14684573 11.99944762 5.14526367 14.51318359 C5.14862228 15.27612228 5.1519809 16.03906097 5.15544128 16.82511902 C5.16494727 19.34957504 5.16689426 21.87396469 5.16796875 24.3984375 C5.17118171 26.15337145 5.17454582 27.90830514 5.17805481 29.66323853 C5.18404529 33.34353252 5.18589481 37.02380303 5.18530273 40.70410156 C5.18520115 45.41740212 5.19885007 50.13055192 5.21607494 54.84381676 C5.22720002 58.46923513 5.22922178 62.09461712 5.22869301 65.72005081 C5.22987248 67.45756169 5.23429244 69.19507353 5.24202538 70.9325676 C5.25183494 73.36449452 5.24894339 75.79609504 5.24291992 78.22802734 C5.24853943 78.94404617 5.25415894 79.660065 5.25994873 80.39778137 C5.22903957 85.31478665 4.73175172 89.13997037 1.3125 92.8125 C-2.04305003 94.53562029 -4.28017365 94.52208089 -8 94 C-11.66490932 91.25178173 -12.8733127 89.76660754 -13.62818909 85.19871521 C-13.65471668 83.69708253 -13.65388991 82.19480934 -13.63110352 80.69311523 C-13.63825882 79.86975677 -13.64541412 79.04639832 -13.65278625 78.1980896 C-13.66965558 75.48435498 -13.65028363 72.77227634 -13.62890625 70.05859375 C-13.62973504 68.16960005 -13.63219478 66.28060642 -13.63621521 64.39161682 C-13.63907189 60.43639368 -13.62438333 56.48173724 -13.59692383 52.52661133 C-13.56281787 47.45653189 -13.56886821 42.38746416 -13.5875864 37.31733608 C-13.59815308 33.41823388 -13.589222 29.51936724 -13.57420158 25.62028694 C-13.56901844 23.75078086 -13.56950319 21.8812502 -13.57574654 20.01174736 C-13.5811957 17.39978972 -13.56083518 14.78928259 -13.53344727 12.17749023 C-13.53997314 11.40491379 -13.54649902 10.63233734 -13.55322266 9.83634949 C-13.49105149 6.35033554 -13.28064943 4.37229451 -11.15415955 1.55140686 C-7.22923904 -1.27528655 -4.56410346 -1.21088459 0 0 Z " fill="#FFFFFF" transform="translate(141,94)"/>
<path d="M0 0 C2.68334961 1.81225586 2.68334961 1.81225586 5 5 C5.73645446 8.8339656 5.6768334 12.60990228 5.62890625 16.50390625 C5.63131821 17.61934311 5.63373016 18.73477997 5.63621521 19.88401794 C5.63523704 22.23838868 5.62185088 24.5927825 5.59692383 26.94702148 C5.56258698 30.55336448 5.57627548 34.15726127 5.59570312 37.76367188 C5.58880555 40.05209378 5.57913398 42.34050935 5.56640625 44.62890625 C5.57136612 45.70813858 5.57632599 46.78737091 5.58143616 47.89930725 C5.56559982 48.90392502 5.54976349 49.90854279 5.53344727 50.94360352 C5.52724869 51.82564957 5.52105011 52.70769562 5.5146637 53.61647034 C4.82756669 56.79857956 3.51458901 57.99136458 1 60 C-2.87165104 61.05590483 -5.0629369 61.37482524 -8.8125 59.875 C-11.86825646 57.25578018 -12.83891101 54.88453811 -13.18395996 50.84790039 C-13.26495105 48.17770487 -13.2770959 45.51515691 -13.265625 42.84375 C-13.26849518 41.37391663 -13.26849518 41.37391663 -13.27142334 39.87438965 C-13.27278175 37.80671939 -13.26910935 35.7390405 -13.26074219 33.67138672 C-13.25003793 30.51119787 -13.26064926 27.35157747 -13.2734375 24.19140625 C-13.27211584 22.17968625 -13.26955333 20.1679666 -13.265625 18.15625 C-13.26967346 17.21342163 -13.27372192 16.27059326 -13.27789307 15.29919434 C-13.23911012 9.85842954 -13.20356017 5.36678685 -9.3125 1.1875 C-5.95694997 -0.53562029 -3.71982635 -0.52208089 0 0 Z " fill="#FFFFFF" transform="translate(106,119)"/>
<path d="M0 0 C0.91471573 -0.00619858 1.82943146 -0.01239716 2.77186584 -0.01878357 C4.70426368 -0.02587983 6.63672268 -0.02271109 8.5690918 -0.01000977 C11.52181907 0.00384368 14.47136913 -0.03020119 17.42382812 -0.06835938 C19.30338619 -0.06931073 21.18294821 -0.06745089 23.0625 -0.0625 C23.94284409 -0.07575821 24.82318817 -0.08901642 25.73020935 -0.10267639 C30.20570996 -0.03489837 32.02814088 0.1177082 35.65429688 2.97460938 C38.63657499 6.95197928 38.2929632 8.69925761 37.59765625 13.56640625 C35.72750531 15.99760248 34.3162728 17.20709798 31.59765625 18.56640625 C28.73929132 18.6899586 25.90628161 18.75483825 23.046875 18.76953125 C22.19591751 18.77523132 21.34496002 18.7809314 20.46821594 18.7868042 C18.66510259 18.79625923 16.86197192 18.80279017 15.05883789 18.80664062 C12.30649427 18.81633112 9.55490217 18.847343 6.80273438 18.87890625 C5.05078568 18.88543788 3.29883165 18.89068772 1.546875 18.89453125 C0.72587814 18.90687805 -0.09511871 18.91922485 -0.94099426 18.9319458 C-5.602796 18.91386963 -8.59331931 18.55268875 -12.40234375 15.56640625 C-14.5033597 12.89238595 -14.40081351 11.5235594 -14.27734375 8.06640625 C-12.2453721 -0.06148036 -7.33537156 -0.04123276 0 0 Z " fill="#FFFFFF" transform="translate(184.40234375,50.43359375)"/>
<path d="M0 0 C3.53494505 0.9336246 4.94397547 2.52143196 6.9375 5.51171875 C7.61389058 8.53452621 7.39308841 10.32259988 6.9375 13.51171875 C5.06734906 15.94291498 3.65611655 17.15241048 0.9375 18.51171875 C-2.69773738 18.91563401 -4.62255537 18.74635588 -7.875 17.01171875 C-10.40331557 14.12221524 -11.0827944 12.33104579 -11.31640625 8.55078125 C-10.54454716 2.35215903 -5.97003323 -0.50880965 0 0 Z " fill="#FFFFFF" transform="translate(181.0625,84.48828125)"/>
<path d="M0 0 C2.93052231 1.99524923 4.64521503 3.42836485 5.4453125 6.97265625 C5.63409202 10.33922437 5.25759307 12.59815481 3.4375 15.4375 C0.19100111 17.51858903 -2.15247539 17.93249957 -6 18 C-8.88017082 16.78392788 -10.45238499 15.69696456 -12.375 13.25 C-13.32835544 9.81792041 -12.91654656 7.42177384 -12 4 C-8.40355554 -0.12533335 -5.35681029 -0.86091594 0 0 Z " fill="#FFFFFF" transform="translate(217,85)"/>
</svg>
