<!DOCTYPE svg PUBLIC "-//W3C//DTD SVG 1.1//EN" "http://www.w3.org/Graphics/SVG/1.1/DTD/svg11.dtd">
<!-- Uploaded to: SVG Repo, www.svgrepo.com, Transformed by: SVG Repo Mixer Tools -->
<svg fill="#ffffff" version="1.1" id="Layer_1" xmlns="http://www.w3.org/2000/svg" xmlns:xlink="http://www.w3.org/1999/xlink" viewBox="0 0 486.624 486.624" xml:space="preserve" width="800px" height="800px" stroke="#ffffff">
<g id="SVGRepo_bgCarrier" stroke-width="0"/>
<g id="SVGRepo_tracerCarrier" stroke-linecap="round" stroke-linejoin="round"/>
<g id="SVGRepo_iconCarrier"> <g> <g> <g> <path d="M243.312,0L0,243.312l243.312,243.312l243.312-243.312L243.312,0z M22.624,243.312L243.312,22.624L464,243.312 L243.312,464L22.624,243.312z"/> <path d="M355.872,207.904c-9.384-7.88-20.344-13.68-32.128-17.064c4.976-11.192,7.568-23.296,7.568-35.528 c0-38.536-24.76-72.216-61.6-83.808l-10.4-3.264V85.6l4.8,2.096c18.952,8.296,31.2,26.984,31.2,47.616 c0,4.8-0.704,9.432-1.928,13.848c-14.144-11.392-31.792-17.848-50.072-17.848c-18.28,0-35.928,6.456-50.072,17.848 c-1.224-4.416-1.928-9.048-1.928-13.848c0-20.632,12.248-39.32,31.2-47.616l4.8-2.096V68.24l-10.4,3.264 c-36.84,11.592-61.6,45.272-61.6,83.808c0,12.232,2.592,24.336,7.56,35.528c-11.792,3.384-22.744,9.176-32.128,17.064 c-29.528,24.776-39.424,65.384-24.608,101.056l4.184,10.08l13.288-11.176l-1.48-5.016c-5.832-19.84,0.616-41.24,16.424-54.512 c3.648-3.056,7.64-5.512,11.856-7.44c0.36,18.168,6.76,35.848,18.512,49.848c11.76,14.016,28.056,23.384,45.88,26.888 c-2.632,3.816-5.752,7.32-9.4,10.384c-15.808,13.248-37.976,15.888-56.528,6.704l-4.696-2.328l-13.264,11.16l9.168,5.848 c14.608,9.328,31.056,13.92,47.424,13.92c19.872,0,39.632-6.792,55.808-20.136c29.504,24.32,70.872,26.856,103.224,6.208 l9.168-5.848l-13.272-11.168l-4.696,2.328c-18.544,9.176-40.728,6.544-56.528-6.712c-3.648-3.056-6.768-6.56-9.4-10.376 c17.824-3.504,34.12-12.872,45.88-26.888c11.752-14.008,18.16-31.68,18.512-49.856c4.208,1.928,8.208,4.384,11.856,7.44 c15.808,13.272,22.248,34.672,16.424,54.512L363,307.84l13.288,11.176l4.184-10.08 C395.296,273.288,385.408,232.68,355.872,207.904z M243.312,147.312c15.992,0,31.416,6.128,43.184,16.928 c-3.016,4.488-6.728,8.456-10.96,11.8c-8.816-8.12-20.184-12.728-32.224-12.728c-12.04,0-23.408,4.608-32.224,12.736 c-4.224-3.352-7.944-7.32-10.96-11.8C211.896,153.44,227.32,147.312,243.312,147.312z M260.144,184.464 c-5.288,1.816-10.936,2.848-16.832,2.848s-11.544-1.032-16.832-2.848c5.032-3.224,10.776-5.152,16.832-5.152 C249.368,179.312,255.112,181.24,260.144,184.464z M181.176,280.464c-10.28-12.248-15.488-28.008-14.784-43.984 c3.328-0.352,6.712-0.4,10.128-0.112c2.016,0.176,4,0.496,5.952,0.896c-0.568,11.984,3.216,23.68,10.968,32.904 c7.744,9.232,18.584,15.016,30.496,16.536c0.056,1.992,0.024,3.984-0.152,6c-0.296,3.408-0.928,6.736-1.848,9.952 C206.088,300.584,191.464,292.704,181.176,280.464z M198.808,243.656c4.856,2.928,9.272,6.616,13.016,11.088 c3.76,4.488,6.64,9.504,8.68,14.816c-5.768-1.768-10.88-4.976-14.816-9.672C201.784,255.232,199.576,249.592,198.808,243.656z M305.448,280.464c-10.288,12.248-24.912,20.128-40.76,22.192c-0.928-3.216-1.552-6.544-1.848-9.952 c-0.176-2.008-0.2-4.008-0.152-6c11.912-1.512,22.752-7.296,30.496-16.536c7.752-9.232,11.536-20.92,10.968-32.904 c1.96-0.4,3.936-0.72,5.952-0.896c3.416-0.288,6.8-0.24,10.128,0.112C320.936,252.448,315.72,268.208,305.448,280.464z M266.144,269.48c2.04-5.288,4.912-10.272,8.656-14.736c3.744-4.472,8.16-8.16,13.008-11.088 c-0.76,5.936-2.976,11.584-6.88,16.232C277.032,264.528,271.84,267.696,266.144,269.48z M358.344,236.08 c-13.912-11.68-31.616-17.272-49.632-15.648c-18.104,1.576-34.496,10.12-46.168,24.032 c-11.68,13.912-17.232,31.536-15.656,49.632c1.584,18.104,10.128,34.496,24.04,46.168c1.048,0.88,2.12,1.728,3.2,2.528 c-7.52-2.816-14.672-6.928-21.112-12.328c-1.192-1.008-2.288-2.096-3.392-3.168l-6.312-6.2l-6.32,6.192 c-1.104,1.08-2.192,2.168-3.4,3.176c-6.44,5.4-13.584,9.512-21.112,12.328c1.096-0.816,2.168-1.656,3.208-2.528 c13.912-11.68,22.456-28.072,24.04-46.168c1.576-18.096-3.976-35.72-15.656-49.632c-11.672-13.912-28.064-22.456-46.168-24.032 c-2.024-0.176-4.04-0.264-6.048-0.264c-15.936,0-31.224,5.536-43.584,15.912c-1.048,0.872-2.072,1.784-3.056,2.72 c4.08-6.92,9.376-13.24,15.808-18.64c9.936-8.336,22.032-13.824,34.976-15.864l11.72-1.84l-6.112-10.168 c-6.736-11.24-10.296-24.024-10.296-36.976c0-8.408,1.44-16.52,4.128-24.096c-0.088,1.352-0.128,2.72-0.128,4.096 c0,37.496,30.504,68,68,68c37.496,0,68-30.504,68-68c0-1.376-0.04-2.744-0.128-4.096c2.688,7.576,4.128,15.688,4.128,24.096 c0,12.952-3.56,25.736-10.304,36.96l-6.112,10.168l11.72,1.84c12.944,2.048,25.04,7.528,34.976,15.864 c6.432,5.408,11.728,11.72,15.808,18.64C360.416,237.856,359.392,236.952,358.344,236.08z"/> <path d="M219.312,227.312c0,13.232,10.768,24,24,24c13.232,0,24-10.768,24-24s-10.768-24-24-24 C230.08,203.312,219.312,214.08,219.312,227.312z M243.312,219.312c4.416,0,8,3.584,8,8s-3.584,8-8,8c-4.416,0-8-3.584-8-8 S238.896,219.312,243.312,219.312z"/> <rect x="427.312" y="235.312" width="16" height="16"/> <rect x="395.312" y="235.312" width="16" height="16"/> <rect x="75.312" y="235.312" width="16" height="16"/> <rect x="43.312" y="235.312" width="16" height="16"/> <rect x="235.312" y="427.312" width="16" height="16"/> <rect x="235.312" y="395.312" width="16" height="16"/> </g> </g> </g> </g>
</svg>