<?xml version="1.0" encoding="UTF-8"?>
<!DOCTYPE svg PUBLIC "-//W3C//DTD SVG 1.1//EN" "http://www.w3.org/Graphics/SVG/1.1/DTD/svg11.dtd">
<svg xmlns="http://www.w3.org/2000/svg" version="1.1" width="96px" height="96px" style="shape-rendering:geometricPrecision; text-rendering:geometricPrecision; image-rendering:optimizeQuality; fill-rule:evenodd; clip-rule:evenodd" xmlns:xlink="http://www.w3.org/1999/xlink">
<g><path style="opacity:1" fill="#f9faf9" d="M 44.5,4.5 C 51.4539,4.47463 56.7872,7.30796 60.5,13C 59.8621,16.2928 57.8621,17.2928 54.5,16C 52.301,14.3029 49.9676,12.8029 47.5,11.5C 37.8527,18.2107 27.3527,22.8774 16,25.5C 15.0681,37.2956 15.9015,48.9622 18.5,60.5C 18.5731,64.0732 16.9065,65.2399 13.5,64C 11.7449,61.0699 10.5783,57.9033 10,54.5C 9.04344,42.7364 9.37677,31.0697 11,19.5C 17.2881,16.963 23.7881,14.7963 30.5,13C 35.3968,10.3922 40.0635,7.55889 44.5,4.5 Z"/></g>
<g><path style="opacity:1" fill="#f9faf9" d="M 72.5,15.5 C 75.8221,16.2234 79.1555,17.0567 82.5,18C 83.7014,18.9025 84.5348,20.0692 85,21.5C 92.5453,54.9025 81.0453,78.7358 50.5,93C 40.0635,91.8644 31.2302,87.3644 24,79.5C 22.3709,70.2591 25.8709,63.7591 34.5,60C 43.1667,59.3333 51.8333,59.3333 60.5,60C 63.7797,60.9498 66.1131,62.9498 67.5,66C 67.2409,67.2613 66.5742,68.2613 65.5,69C 59.8364,66.9257 53.8364,65.7591 47.5,65.5C 41.5377,64.9441 36.3711,66.6107 32,70.5C 30.6986,72.3646 30.3653,74.3646 31,76.5C 35.9176,80.7126 41.4176,84.0459 47.5,86.5C 73.7766,74.5993 84.2766,54.266 79,25.5C 76.0953,24.0441 73.0953,22.7107 70,21.5C 69.0339,18.6603 69.8672,16.6603 72.5,15.5 Z"/></g>
<g><path style="opacity:1" fill="#f9faf9" d="M 41.5,27.5 C 58.0187,26.1828 64.1853,33.5161 60,49.5C 55.3818,55.0527 49.5485,56.886 42.5,55C 41.0652,52.7328 41.3985,50.7328 43.5,49C 53.1222,49.5628 56.2889,45.3961 53,36.5C 44.6988,32.5707 40.1988,35.2373 39.5,44.5C 37.5,44.5 35.5,44.5 33.5,44.5C 32.1589,36.8522 34.8256,31.1855 41.5,27.5 Z"/></g>
</svg>
