<?xml version="1.0" encoding="UTF-8"?>
<!DOCTYPE svg PUBLIC "-//W3C//DTD SVG 1.1//EN" "http://www.w3.org/Graphics/SVG/1.1/DTD/svg11.dtd">
<svg xmlns="http://www.w3.org/2000/svg" version="1.1" width="100px" height="100px" style="shape-rendering:geometricPrecision; text-rendering:geometricPrecision; image-rendering:optimizeQuality; fill-rule:evenodd; clip-rule:evenodd" xmlns:xlink="http://www.w3.org/1999/xlink">
<g><path style="opacity:1" fill="#f9faf9" d="M 47.5,8.5 C 49.9363,8.31701 52.103,8.98368 54,10.5C 54.8856,15.4702 55.5523,20.4702 56,25.5C 56.9284,21.7023 58.4284,18.2023 60.5,15C 65.1823,13.4218 68.1823,14.9218 69.5,19.5C 68.2681,24.3621 66.9348,29.1954 65.5,34C 65.8333,34.5 66.1667,35 66.5,35.5C 71.3277,33.3018 74.3277,34.8018 75.5,40C 70.9487,48.9344 65.282,57.1011 58.5,64.5C 63.2149,65.6816 67.7149,67.3483 72,69.5C 76.8354,66.732 82.002,65.8987 87.5,67C 91.1906,68.6903 91.3573,70.5237 88,72.5C 86.0924,71.5457 84.0924,70.879 82,70.5C 78.621,71.9405 75.121,72.9405 71.5,73.5C 67.755,72.7946 64.0883,71.7946 60.5,70.5C 56.9117,71.7946 53.245,72.7946 49.5,73.5C 45.755,72.7946 42.0883,71.7946 38.5,70.5C 34.9117,71.7946 31.245,72.7946 27.5,73.5C 23.879,72.9405 20.379,71.9405 17,70.5C 14.9076,70.879 12.9076,71.5457 11,72.5C 7.6427,70.5237 7.80937,68.6903 11.5,67C 16.998,65.8987 22.1646,66.732 27,69.5C 29.9396,68.5771 32.7729,67.5771 35.5,66.5C 35.5402,63.5755 34.7068,60.9088 33,58.5C 32.6667,54.1667 32.3333,49.8333 32,45.5C 29.6958,38.8947 26.8625,32.5613 23.5,26.5C 24.6412,22.0132 27.3079,20.6799 31.5,22.5C 32.3142,20.2338 32.8142,17.9005 33,15.5C 35.6667,12.8333 38.3333,12.8333 41,15.5C 42.2754,17.7173 43.2754,20.0506 44,22.5C 44.3333,18.5 44.6667,14.5 45,10.5C 45.9947,9.93406 46.828,9.26739 47.5,8.5 Z M 48.5,13.5 C 49.7647,14.5145 50.4313,16.0145 50.5,18C 51.3222,25.1438 51.6555,32.3104 51.5,39.5C 53.1439,39.7135 54.6439,39.3802 56,38.5C 58.2843,31.6402 60.951,24.9735 64,18.5C 61.8793,28.3879 60.046,38.3879 58.5,48.5C 62.8395,47.0048 66.1728,44.1715 68.5,40C 69.3317,39.3123 69.9984,39.479 70.5,40.5C 66.2892,47.8811 61.1226,54.5478 55,60.5C 54.7744,63.095 54.2744,65.595 53.5,68C 52.1279,68.4017 50.7946,68.9017 49.5,69.5C 46.5,68.3333 43.5,67.1667 40.5,66C 40.0138,62.5729 38.8472,59.4063 37,56.5C 37.5007,45.8374 34.6674,36.1707 28.5,27.5C 28.6667,27.1667 28.8333,26.8333 29,26.5C 32.9973,30.4869 35.9973,35.1536 38,40.5C 40.215,41.8198 41.715,41.1531 42.5,38.5C 40.5288,31.7695 38.6954,25.1028 37,18.5C 40.3349,24.8395 42.8349,31.5062 44.5,38.5C 45.8333,38.5 47.1667,38.5 48.5,38.5C 48.5,30.1667 48.5,21.8333 48.5,13.5 Z"/></g>
<g><path style="opacity:1" fill="#f9faf9" d="M 14.5,74.5 C 18.9172,74.4588 23.0839,75.4588 27,77.5C 30.5096,75.9111 34.1763,74.9111 38,74.5C 42.0701,74.8048 45.9034,75.8048 49.5,77.5C 54.5018,74.8864 59.8351,74.0531 65.5,75C 66.8198,77.215 66.1531,78.715 63.5,79.5C 62.5539,79.0133 61.5539,78.6799 60.5,78.5C 53.1667,82.5 45.8333,82.5 38.5,78.5C 35.07,80.3825 31.4033,81.3825 27.5,81.5C 23.102,80.8023 18.7686,79.8023 14.5,78.5C 14.5,77.1667 14.5,75.8333 14.5,74.5 Z"/></g>
<g><path style="opacity:1" fill="#f9faf9" d="M 78.5,74.5 C 80.5,74.5 82.5,74.5 84.5,74.5C 84.5,75.8333 84.5,77.1667 84.5,78.5C 81.2107,79.3739 77.8774,80.0405 74.5,80.5C 74.238,79.0222 74.5713,77.6888 75.5,76.5C 76.7387,76.0576 77.7387,75.3909 78.5,74.5 Z"/></g>
<g><path style="opacity:1" fill="#f9faf9" d="M 68.5,77.5 C 71.1662,77.0658 72.3329,78.0658 72,80.5C 68.4034,82.0661 67.2368,81.0661 68.5,77.5 Z"/></g>
<g><path style="opacity:1" fill="#f9faf9" d="M 35.5,82.5 C 40.3473,82.6717 45.0139,83.6717 49.5,85.5C 53.0986,84.3012 56.7653,83.3012 60.5,82.5C 64.3764,83.4045 68.2097,84.4045 72,85.5C 73.707,85.3516 75.3736,85.0182 77,84.5C 79.9654,85.7216 80.1321,87.2216 77.5,89C 75.5767,89.8078 73.5767,90.3078 71.5,90.5C 67.8537,89.7817 64.3537,88.7817 61,87.5C 57.2097,88.5955 53.3764,89.5955 49.5,90.5C 45.6236,89.5955 41.7903,88.5955 38,87.5C 34.6463,88.7817 31.1463,89.7817 27.5,90.5C 25.0502,90.2389 22.7169,89.5723 20.5,88.5C 19.4173,87.635 19.2506,86.635 20,85.5C 23.3888,85.2966 26.8888,85.13 30.5,85C 32.3146,84.2432 33.9812,83.4098 35.5,82.5 Z"/></g>
</svg>
