<?xml version="1.0" encoding="UTF-8"?>
<svg version="1.1" xmlns="http://www.w3.org/2000/svg" width="512" height="512">
<path d="M0 0 C2.9492569 1.94646358 2.9492569 1.94646358 5.74768066 4.74095154 C6.27186539 5.25350874 6.79605012 5.76606594 7.33611923 6.29415518 C9.09052333 8.01932513 10.8149962 9.77161176 12.54101562 11.52514648 C13.80429688 12.77921105 15.06931688 14.0315261 16.33592129 15.28223419 C19.81351369 18.72637434 23.26564613 22.19509413 26.71413684 25.66833949 C30.43659829 29.40887075 34.18196428 33.12634405 37.92445374 36.84681702 C45.25305366 44.1398038 52.55981216 51.45430388 59.85902566 58.77669007 C65.79048341 64.72619916 71.72968437 70.66787295 77.67453003 76.60400391 C78.51993129 77.4481793 79.36533255 78.2923547 80.23635203 79.16211116 C81.95368685 80.87688824 83.67103965 82.59164733 85.38841021 84.30638862 C101.49942739 100.39458168 117.58581171 116.50722552 133.66391814 132.62829947 C147.46669263 146.46681709 161.29030823 160.28422483 175.12939453 174.08642578 C191.19193469 190.10617458 207.24144344 206.13879512 223.27031136 222.19224072 C224.97885612 223.90333393 226.68741763 225.61441041 228.39599609 227.32546997 C229.23668982 228.1673979 230.07738355 229.00932584 230.94355285 229.87676674 C236.87492368 235.8150512 242.81554016 241.74398891 248.75976562 247.66940308 C256.00145353 254.88867714 263.22876145 262.1219837 270.4378919 269.3737753 C274.11801997 273.07495974 277.80431199 276.76940042 281.50816536 280.44685555 C284.89671722 283.81161998 288.26633463 287.19420006 291.62161922 290.59212983 C292.84049663 291.81996531 294.06620854 293.04106025 295.29920864 294.25471294 C296.97158427 295.90283926 298.61751833 297.57355056 300.25904846 299.25231934 C301.64232 300.6375391 301.64232 300.6375391 303.05353642 302.0507431 C305.72745516 306.10223081 305.53054626 308.20909997 305 313 C301.81090055 317.87744622 297.59513187 321.18782024 292.9375 324.625 C292.24342041 325.13861084 291.54934082 325.65222168 290.83422852 326.18139648 C261.62846891 347.38292536 228.55734704 361.0828582 193 367 C191.88455811 367.18618896 190.76911621 367.37237793 189.61987305 367.56420898 C179.36767595 369.10928647 169.28793118 369.35824735 158.9375 369.3125 C158.08005188 369.31067719 157.22260376 369.30885437 156.33917236 369.30697632 C143.02797632 369.25941088 130.07506438 368.68953261 117 366 C116.14422363 365.82839355 115.28844727 365.65678711 114.40673828 365.47998047 C79.62092017 358.31536967 46.47246359 343.70270457 19 321 C18.43861328 320.54012695 17.87722656 320.08025391 17.29882812 319.60644531 C4.65992565 309.20083831 -7.01933797 298.01673754 -17 285 C-17.41958984 284.46213867 -17.83917969 283.92427734 -18.27148438 283.37011719 C-48.64492203 244.2837153 -64.49554645 196.40618017 -64.375 147.0625 C-64.37445618 146.21582764 -64.37391235 145.36915527 -64.37335205 144.49682617 C-64.32995261 129.7049094 -63.15773933 115.48515455 -60 101 C-59.79632813 100.03819824 -59.59265625 99.07639648 -59.3828125 98.08544922 C-52.30228651 65.61664834 -37.41668676 35.44082827 -17.125 9.25 C-16.67253906 8.66484619 -16.22007813 8.07969238 -15.75390625 7.47680664 C-11.05132996 1.55208692 -7.87530559 -1.25151119 0 0 Z M23.14453125 68.6796875 C9.96658286 82.12526927 4.6875 99.61712461 4.6875 118.14819336 C4.98265874 136.04722329 10.81435292 153.13493659 16.34399414 169.99365234 C17.0593811 172.18161292 17.76719201 174.37195026 18.47460938 176.5625 C19.78239881 180.60325441 21.11139797 184.63654092 22.4543457 188.66574097 C22.98343272 190.25951618 23.50739037 191.85500366 24.02612305 193.45217896 C24.75664906 195.69388251 25.50817895 197.92742853 26.265625 200.16015625 C26.48208679 200.83804199 26.69854858 201.51592773 26.92156982 202.21435547 C27.6032645 204.30064275 27.6032645 204.30064275 29 207 C32.6070434 208.62879853 35.76107895 207.60761851 39.49682617 206.75244141 C40.13953964 206.60789017 40.78225311 206.46333893 41.44444275 206.31440735 C43.56272672 205.83558316 45.6777686 205.34381539 47.79296875 204.8515625 C49.26443582 204.51553839 50.73606207 204.18021063 52.20783997 203.84555054 C55.2882223 203.14315195 58.36714384 202.43476999 61.44506836 201.72167969 C65.39777489 200.80606602 69.35293686 199.90166127 73.30912304 199.00121498 C76.34575663 198.30945157 79.38146659 197.61371002 82.4168644 196.91654587 C83.87559139 196.58163561 85.33450365 196.24753122 86.79360008 195.91423416 C88.82707866 195.44870806 90.85936201 194.97829964 92.89135742 194.50634766 C94.0495549 194.23907867 95.20775238 193.97180969 96.40104675 193.69644165 C98.91057376 193.25608729 98.91057376 193.25608729 100 192 C100.29157954 189.24945841 100.52439233 186.51573141 100.71875 183.7578125 C100.78155151 182.9196701 100.84435303 182.08152771 100.90905762 181.21798706 C101.11034267 178.52062354 101.30537409 175.82285146 101.5 173.125 C101.69540187 170.46946453 101.89209626 167.81402848 102.08935547 165.15863037 C102.21705005 163.43625634 102.34368164 161.71380317 102.46923828 159.99127197 C102.78836997 155.65097461 103.15189293 151.32207563 103.59375 146.9921875 C103.64665695 146.22164032 103.6995639 145.45109314 103.7540741 144.65719604 C104 142 104 142 104.56660461 139.45932007 C105.16793933 135.27148063 105.1657983 131.84381695 102.83857346 128.16309738 C98.6956691 122.92318039 93.8118187 118.36112863 89.01171875 113.734375 C87.46950948 112.20694731 85.92973235 110.67706039 84.39228821 109.14483643 C81.17415323 105.94956284 77.93770473 102.7746257 74.68481445 99.61474609 C70.50913419 95.55823969 66.36683088 91.46966566 62.2358427 87.36770248 C58.29666637 83.45838359 54.34274444 79.56413147 50.38671875 75.671875 C49.63068548 74.92602898 48.87465221 74.18018295 48.09570885 73.41173553 C45.96332046 71.31395433 43.82089205 69.22705617 41.67456055 67.14355469 C41.04014542 66.51720627 40.40573029 65.89085785 39.75209045 65.24552917 C32.49144 58.25143647 29.18512043 62.85265909 23.14453125 68.6796875 Z M-4 23 C-36.99642981 57.31981604 -47.01998418 111.56482753 -46.23246765 157.19825745 C-44.98374352 207.83684604 -21.45282025 254.84261743 13 291 C13.72574219 291.77859375 14.45148438 292.5571875 15.19921875 293.359375 C29.32227572 308.08285768 47.02737483 319.56224233 65 329 C65.65419922 329.34417969 66.30839844 329.68835938 66.98242188 330.04296875 C107.6216038 351.06740182 156.4050358 356.88382288 201 347 C201.84224121 346.81808105 202.68448242 346.63616211 203.55224609 346.44873047 C227.3817266 341.15486732 267.80553797 329.29169305 282 308 C266.16 292.16 250.32 276.32 234 260 C230.98003141 261.0066562 227.96001422 262.01406432 224.95703125 263.0703125 C214.13899971 266.69872059 204.67193844 267.5736879 194 263 C181.70718707 256.60773728 174.42264201 245.88045712 169.96484375 233.01171875 C167.54649354 224.15943217 165.7781417 211.11199421 168.59274292 202.10267639 C169.25707633 199.47605186 169.43179534 197.68974671 169 195 C166.17478174 190.73349956 162.53704997 187.34777047 158.8515625 183.83984375 C157.7966759 182.80108496 156.74391818 181.76016019 155.69320679 180.71717834 C152.93035942 177.98673753 150.13838022 175.28806881 147.33953857 172.59460449 C144.48813962 169.83872248 141.66800804 167.0512155 138.84375 164.26757812 C134.72516788 160.22032821 130.59714439 156.18327097 126.44384766 152.17163086 C125.60810211 151.36382675 124.77235657 150.55602264 123.9112854 149.72373962 C122.30519468 147.88837776 122.30519468 147.88837776 121 148 C117.20538148 179.16767785 116.50025803 209.89658949 121.55078125 241.0078125 C124.30207756 259.33383836 122.71638734 277.58338201 111.5859375 293.0078125 C104.68296745 301.67903103 96.66409761 306.97724039 85.5625 308.78125 C73.65907463 309.79739607 62.90907221 306.12547228 53.41015625 299.03515625 C34.07751103 282.71050769 27.8868577 257.14611937 20 234.125 C19.1581403 231.67376584 18.31609719 229.22259468 17.47387695 226.77148438 C16.2003285 223.06397114 14.92738938 219.35625428 13.65632629 215.64788818 C11.07577436 208.12026897 8.47395323 200.60043438 5.85546875 193.0859375 C-6.25984761 158.24138481 -6.25984761 158.24138481 -10 141 C-10.26039062 139.86046875 -10.52078125 138.7209375 -10.7890625 137.546875 C-15.44558524 113.33295675 -11.80386115 87.16143971 2.08203125 66.5625 C7.31795905 59.56704452 13.21383207 53.48668897 20 48 C18.43809102 44.24794633 16.10972261 41.8656188 13.24609375 39.015625 C12.78517838 38.55516785 12.324263 38.09471069 11.84938049 37.62030029 C10.87924882 36.65317817 9.90669939 35.68847596 8.93188477 34.72607422 C7.43377195 33.24631763 5.9439157 31.75861398 4.45507812 30.26953125 C0.69586466 25.70570949 0.69586466 25.70570949 -4 23 Z M91.96801758 212.28515625 C90.10642754 212.70559204 90.10642754 212.70559204 88.20722961 213.13452148 C86.85298112 213.44377888 85.49874871 213.75310671 84.14453125 214.0625 C82.75882732 214.3766645 81.37305878 214.69054419 79.98722839 215.00415039 C76.34188866 215.82987672 72.69743972 216.6594708 69.05316162 217.48986816 C65.33349649 218.336725 61.61300353 219.1799282 57.89257812 220.0234375 C50.59423607 221.67871305 43.29683104 223.33807472 36 225 C44.84920152 260.48346182 44.84920152 260.48346182 67.61328125 287.74609375 C72.74544781 290.49519056 78.01140858 292.77668312 83.92578125 291.625 C90.83881895 289.47726013 96.07821022 285.18491842 99.80078125 279.015625 C108.45853559 262.07204848 104.97651042 243.70063726 102.34179688 225.50341797 C101.68412924 220.68647234 101.30257663 215.85165976 101 211 C97.77017532 211 95.11855987 211.56941439 91.96801758 212.28515625 Z M185 212 C184.30318011 222.27809339 186.71579425 232.34014226 193.42578125 240.3515625 C198.15393698 245.30263376 202.40413311 248.73848241 209.4375 249.25 C212.96420129 249.00251219 215.71967359 248.28012738 219 247 C217.67185252 244.05495226 216.2264428 241.97753345 213.94311523 239.70019531 C213.32585068 239.07985413 212.70858612 238.45951294 212.07261658 237.82037354 C211.40798904 237.16293152 210.74336151 236.5054895 210.05859375 235.828125 C209.37571793 235.1457074 208.6928421 234.46328979 207.98927307 233.76019287 C206.54835568 232.32229178 205.10501339 230.88681713 203.65942383 229.45361328 C201.43706221 227.24956582 199.2228644 225.03756307 197.00976562 222.82421875 C195.60984722 221.42921346 194.20947237 220.03466603 192.80859375 218.640625 C192.14194199 217.97508606 191.47529022 217.30954712 190.78843689 216.62384033 C190.17432449 216.01610779 189.5602121 215.40837524 188.92749023 214.78222656 C188.38503159 214.24357971 187.84257294 213.70493286 187.28367615 213.14996338 C186.16310069 211.88879176 186.16310069 211.88879176 185 212 Z " fill="#FFFFFF" transform="translate(98,109)"/>
<path d="M0 0 C1.01790619 0.00215515 2.03581238 0.0043103 3.08456421 0.00653076 C17.69363523 0.05620146 32.02575853 0.30709809 46.375 3.3125 C47.34985352 3.51117676 48.32470703 3.70985352 49.32910156 3.91455078 C88.38660539 12.08468046 124.82400319 27.71035417 156.375 52.3125 C157.25929688 52.98539063 158.14359375 53.65828125 159.0546875 54.3515625 C174.64162389 66.45260257 189.26666068 80.75087979 201.375 96.3125 C202.15101563 97.2715625 202.92703125 98.230625 203.7265625 99.21875 C238.25804162 142.62975232 256.81395322 197.76040062 256.69067383 253.03979492 C256.6875221 255.97938487 256.71104926 258.9179558 256.73632812 261.85742188 C256.78098737 275.23056192 255.57551542 288.12666711 253.375 301.3125 C253.09281616 303.01805054 253.09281616 303.01805054 252.80493164 304.75805664 C245.77946967 343.86954746 228.79665906 381.05202178 204.375 412.3125 C203.61574219 413.28445313 202.85648437 414.25640625 202.07421875 415.2578125 C189.73986402 430.63741644 175.93895499 445.19015196 160.375 457.3125 C159.43914062 458.07691406 158.50328125 458.84132813 157.5390625 459.62890625 C125.58628299 485.2157721 86.41988322 501.72551276 46.375 509.3125 C45.56562988 509.47621094 44.75625977 509.63992188 43.92236328 509.80859375 C13.88110013 515.67977137 -20.7615176 514.58512909 -50.625 508.3125 C-52.14794678 507.99901611 -52.14794678 507.99901611 -53.70166016 507.67919922 C-90.84546555 499.78695344 -125.70945445 483.68345578 -155.625 460.3125 C-156.59695312 459.55324219 -157.56890625 458.79398437 -158.5703125 458.01171875 C-173.94991644 445.67736402 -188.50265196 431.87645499 -200.625 416.3125 C-201.77162109 414.90871094 -201.77162109 414.90871094 -202.94140625 413.4765625 C-228.5282721 381.52378299 -245.03801276 342.35738322 -252.625 302.3125 C-252.78871094 301.50312988 -252.95242187 300.69375977 -253.12109375 299.85986328 C-258.59069558 271.87335724 -258.46977511 238.21828161 -252.625 210.3125 C-252.42632324 209.33764648 -252.22764648 208.36279297 -252.02294922 207.35839844 C-241.93598313 159.13741149 -219.89911449 114.53770064 -185.40722656 79.14160156 C-183.63301167 77.32072238 -181.87518486 75.48496071 -180.1171875 73.6484375 C-173.01562574 66.30860161 -165.60158994 59.73928631 -157.40917969 53.64355469 C-155.59628085 52.2910746 -153.80174757 50.91656557 -152.0078125 49.5390625 C-143.60124472 43.15234877 -134.85975388 37.61076633 -125.65234375 32.45166016 C-123.78933792 31.40484113 -121.94116361 30.33571119 -120.09375 29.26171875 C-83.4933446 8.69459905 -41.63834482 -0.15855121 0 0 Z M-147.625 69.3125 C-148.50115967 70.01511963 -148.50115967 70.01511963 -149.39501953 70.73193359 C-163.39405396 82.07387166 -176.80073284 94.88649606 -187.625 109.3125 C-188.09292969 109.9204541 -188.56085938 110.5284082 -189.04296875 111.15478516 C-213.2102354 142.64984708 -229.65112791 179.98391539 -235.625 219.3125 C-235.80015137 220.44421631 -235.97530273 221.57593262 -236.15576172 222.74194336 C-237.70083885 233.71392062 -238.02479127 244.55394652 -238 255.625 C-237.99945618 256.54358795 -237.99891235 257.4621759 -237.99835205 258.40859985 C-237.86078677 309.17073941 -221.56220711 360.42112056 -189.625 400.3125 C-188.98304688 401.14523437 -188.34109375 401.97796875 -187.6796875 402.8359375 C-182.35877658 409.66479889 -176.58280363 416.04153473 -170.625 422.3125 C-170.11807617 422.84810547 -169.61115234 423.38371094 -169.08886719 423.93554688 C-161.18334564 432.23067304 -152.83034141 439.49779188 -143.625 446.3125 C-143.05136719 446.74159668 -142.47773438 447.17069336 -141.88671875 447.61279297 C-111.02721912 470.60938962 -74.71902833 486.40445328 -36.625 492.3125 C-35.48893311 492.48910156 -34.35286621 492.66570312 -33.18237305 492.84765625 C-22.21551746 494.39121619 -11.37820725 494.71227929 -0.3125 494.6875 C0.60608795 494.68695618 1.5246759 494.68641235 2.47109985 494.68585205 C53.23323941 494.54828677 104.48362056 478.24970711 144.375 446.3125 C145.20773437 445.67054688 146.04046875 445.02859375 146.8984375 444.3671875 C153.72729889 439.04627658 160.10403473 433.27030363 166.375 427.3125 C166.91060547 426.80557617 167.44621094 426.29865234 167.99804688 425.77636719 C175.74463187 418.39362299 182.64090542 410.66117197 189.04101562 402.08642578 C190.35426081 400.34007887 191.69688617 398.62037698 193.046875 396.90234375 C215.98698269 367.26600241 230.76244869 330.26235357 236.375 293.3125 C236.55015137 292.18078369 236.72530273 291.04906738 236.90576172 289.88305664 C238.45083885 278.91107938 238.77479127 268.07105348 238.75 257 C238.74945618 256.08141205 238.74891235 255.1628241 238.74835205 254.21640015 C238.61078677 203.45426059 222.31220711 152.20387944 190.375 112.3125 C189.41207031 111.06339844 189.41207031 111.06339844 188.4296875 109.7890625 C176.56983989 94.56812448 162.74008305 80.00542483 147.375 68.3125 C146.75061035 67.83345215 146.1262207 67.3544043 145.48291016 66.86083984 C103.78155707 35.0775394 53.49417854 17.82009042 1.0625 17.9375 C0.14391205 17.93804382 -0.7746759 17.93858765 -1.72109985 17.93914795 C-54.75630695 18.08287324 -106.23699309 36.00181217 -147.625 69.3125 Z " fill="#FFFFFF" transform="translate(255.625,-0.3125)"/>
<path d="M0 0 C1.47001465 0.29801514 1.47001465 0.29801514 2.96972656 0.60205078 C46.67418497 9.69862889 83.82791727 30.33304395 116 61 C116.79921875 61.75796875 117.5984375 62.5159375 118.421875 63.296875 C124.10464326 68.82287724 129.13716044 74.74549254 134 81 C134.42539062 81.54366211 134.85078125 82.08732422 135.2890625 82.64746094 C165.65064207 121.7313364 181.49552252 169.60361379 181.375 218.9375 C181.37418427 220.20750854 181.37418427 220.20750854 181.37335205 221.50317383 C181.32995261 236.2950906 180.15773933 250.51484545 177 265 C176.79632813 265.96180176 176.59265625 266.92360352 176.3828125 267.91455078 C169.30228651 300.38335166 154.41668676 330.55917173 134.125 356.75 C133.67253906 357.33515381 133.22007812 357.92030762 132.75390625 358.52319336 C128.05255474 364.44636999 128.05255474 364.44636999 125 366 C118.02335442 366.67539797 118.02335442 366.67539797 114.0507431 364.05353642 C113.12726326 363.13135539 112.20378342 362.20917437 111.25231934 361.25904846 C110.72813461 360.74649126 110.20394988 360.23393406 109.66388077 359.70584482 C107.90947667 357.98067487 106.1850038 356.22838824 104.45898438 354.47485352 C103.19570312 353.22078895 101.93068312 351.9684739 100.66407871 350.71776581 C97.18648631 347.27362566 93.73435387 343.80490587 90.28586316 340.33166051 C86.56340171 336.59112925 82.81803572 332.87365595 79.07554626 329.15318298 C71.74694634 321.8601962 64.44018784 314.54569612 57.14097434 307.22330993 C51.20951659 301.27380084 45.27031563 295.33212705 39.32546997 289.39599609 C38.48006871 288.5518207 37.63466745 287.7076453 36.76364797 286.83788884 C35.04631315 285.12311176 33.32896035 283.40835267 31.61158979 281.69361138 C15.50057261 265.60541832 -0.58581171 249.49277448 -16.66391814 233.37170053 C-30.46669263 219.53318291 -44.29030823 205.71577517 -58.12939453 191.91357422 C-74.19193469 175.89382542 -90.24144344 159.86120488 -106.27031136 143.80775928 C-107.97885612 142.09666607 -109.68741763 140.38558959 -111.39599609 138.67453003 C-112.23668982 137.8326021 -113.07738355 136.99067416 -113.94355285 136.12323326 C-119.87492368 130.1849488 -125.81554016 124.25601109 -131.75976562 118.33059692 C-139.00145353 111.11132286 -146.22876145 103.8780163 -153.4378919 96.6262247 C-157.11801997 92.92504026 -160.80431199 89.23059958 -164.50816536 85.55314445 C-167.89671722 82.18838002 -171.26633463 78.80579994 -174.62161922 75.40787017 C-175.84049663 74.18003469 -177.06620854 72.95893975 -178.29920864 71.74528706 C-179.97158427 70.09716074 -181.61751833 68.42644944 -183.25904846 66.74768066 C-184.18122949 65.82420082 -185.10341051 64.90072098 -186.05353642 63.9492569 C-188.72745516 59.89776919 -188.53054626 57.79090003 -188 53 C-184.81083659 48.12245596 -180.59506676 44.81240891 -175.9375 41.375 C-174.89855591 40.60567139 -174.89855591 40.60567139 -173.83862305 39.82080078 C-153.2032065 24.83357296 -130.34332467 13.5259144 -106 6 C-105.24074219 5.76442383 -104.48148437 5.52884766 -103.69921875 5.28613281 C-98.18317599 3.61655338 -92.63027249 2.22746278 -87 1 C-85.64600098 0.70367676 -85.64600098 0.70367676 -84.26464844 0.40136719 C-57.30005794 -5.21204501 -27.00372494 -5.60521183 0 0 Z M-163 55 C-163.66 55.99 -164.32 56.98 -165 58 C-120.12 102.88 -75.24 147.76 -29 194 C-27.98022546 189.92090185 -28.13308996 186.75148948 -28.55859375 182.65625 C-28.69929722 181.17686984 -28.83966521 179.69745774 -28.97973633 178.21801758 C-29.05495514 177.44712799 -29.13017395 176.6762384 -29.20767212 175.88198853 C-31.95879724 147.36870089 -34.25478759 117.22710846 -18 92 C-17.49984375 91.22269531 -16.9996875 90.44539063 -16.484375 89.64453125 C-7.56951112 77.07284214 6.49791782 69.57449561 21.35546875 66.5078125 C39.13536477 64.03044221 55.87751827 66.81778038 71 77 C89.17323974 91.01015794 100.13194841 110.39233597 103.28466797 133.04541016 C106.48534745 160.31880578 97.79396977 186.64712561 89.125 212.125 C88.37897587 214.34046185 87.63354282 216.55612282 86.88867188 218.77197266 C81.24588761 235.5139258 75.45703713 252.20612738 69.55908203 268.85986328 C69.25789459 269.71368591 68.95670715 270.56750854 68.64639282 271.44720459 C68.08925441 273.02576015 67.529388 274.60335689 66.96615601 276.17974854 C66.28534566 278.11105701 65.640722 280.0550243 65 282 C64.70613907 282.78369461 64.41227814 283.56738922 64.10951233 284.37483215 C63.71703713 287.21096271 63.71703713 287.21096271 66.00572205 289.72724915 C66.99739874 290.73633543 68.00600963 291.72893942 69.02709961 292.70825195 C69.8461805 293.52864708 69.8461805 293.52864708 70.68180847 294.36561584 C72.49146244 296.1710874 74.32144287 297.95438049 76.15234375 299.73828125 C77.41060882 300.98535662 78.66755622 302.23376277 79.92323303 303.48344421 C83.23269602 306.76999166 86.55977966 310.03812648 89.89080811 313.30279541 C93.28630304 316.63692781 96.66488858 319.9880975 100.04492188 323.33789062 C106.68014091 329.90874884 113.33409258 336.46028645 120 343 C149.45845125 313.85704623 163.08589322 264.26933626 163.38061523 223.87646484 C163.38108868 222.48014205 163.37916301 221.08381666 163.375 219.6875 C163.37412384 218.95799133 163.37324768 218.22848267 163.37234497 217.47686768 C163.16125848 163.58334575 141.45918151 115.06340876 105 76 C104.24203125 75.18789062 103.4840625 74.37578125 102.703125 73.5390625 C96.01841999 66.61405764 88.71132676 60.7240701 81 55 C80.18958252 54.39841064 80.18958252 54.39841064 79.36279297 53.78466797 C70.67304932 47.40719365 61.53202351 42.00544173 52 37 C51.01870117 36.48373047 51.01870117 36.48373047 50.01757812 35.95703125 C-16.78327518 1.39801696 -103.42653034 8.80173514 -163 55 Z M-1.45703125 99.66796875 C-8.12313598 107.85293278 -11.55244361 117.63145654 -13 128 C-13.11085938 128.7528125 -13.22171875 129.505625 -13.3359375 130.28125 C-15.28936415 146.11984447 -13.72882428 162.4278884 -12.56233025 178.26349449 C-12.31167104 181.67122252 -12.07938046 185.07797842 -11.890625 188.48974609 C-11.6692045 192.484825 -11.37221672 196.47112335 -11.0703125 200.4609375 C-11.01255646 201.67155853 -10.95480042 202.88217957 -10.89529419 204.12948608 C-10.19382912 212.24109586 -7.90049026 216.6468043 -1.76620483 222.05560303 C2.31405488 224.92366419 6.02838018 226.15113117 10.890625 227.05859375 C11.79770203 227.2592897 12.70477905 227.45998566 13.63934326 227.66676331 C16.50338151 228.29211226 19.37486272 228.8656267 22.25 229.4375 C24.15828514 229.84488854 26.0658481 230.25567523 27.97265625 230.66992188 C32.49617078 231.64534689 37.02716041 232.57791586 41.56225586 233.4977417 C46.15735374 234.44448833 50.73395994 235.47632754 55.31152344 236.50415039 C58.1999725 237.12091739 58.1999725 237.12091739 62 237 C72.34796398 208.47500438 72.34796398 208.47500438 81.3125 179.5 C81.5710376 178.56808838 81.8295752 177.63617676 82.09594727 176.67602539 C88.07906526 154.22534398 88.73290223 132.20793187 78.25 111.125 C70.09801797 97.23952677 58.29007751 88.17308434 43.046875 83.38671875 C25.60510808 80.09142309 9.93122521 86.63101029 -1.45703125 99.66796875 Z M26 248 C30.67466337 253.62303757 35.67765667 258.79741554 40.875 263.9375 C41.65875 264.71673828 42.4425 265.49597656 43.25 266.29882812 C45.16438581 268.20154085 47.08108034 270.10186171 49 272 C51.47378124 269.52621876 52.03138231 267.43825655 53.125 264.125 C53.47820312 263.07570313 53.83140625 262.02640625 54.1953125 260.9453125 C55.17570026 257.86577934 55.17570026 257.86577934 55 254 C50.5424293 252.99657958 46.08382262 251.99784135 41.625 251 C40.35398437 250.71382812 39.08296875 250.42765625 37.7734375 250.1328125 C36.56171875 249.86210937 35.35 249.59140625 34.1015625 249.3125 C32.98088379 249.06113281 31.86020508 248.80976563 30.70556641 248.55078125 C28.13354274 247.93350605 28.13354274 247.93350605 26 248 Z " fill="#FFFFFF" transform="translate(297,37)"/>
</svg>
