<?xml version="1.0" encoding="UTF-8"?>
<svg version="1.1" xmlns="http://www.w3.org/2000/svg" width="96" height="96">
<path d="M0 0 C0.33 1.65 0.66 3.3 1 5 C0.02289063 5.45375 -0.95421875 5.9075 -1.9609375 6.375 C-4.12360987 7.82611624 -4.88306651 8.56001991 -5.55957031 11.10546875 C-5.74003029 13.76065761 -5.72692106 16.34051189 -5.625 19 C-5.6038916 19.94464111 -5.5827832 20.88928223 -5.56103516 21.86254883 C-5.1221654 33.43103638 -1.56097499 42.5138548 5 52 C5.43957031 52.63679688 5.87914063 53.27359375 6.33203125 53.9296875 C10.33828023 59.12511125 15.88611432 63.60424985 22 66 C25.87157864 65.19564198 28.5604657 63.83710234 31.5625 61.3125 C34.63584711 58.9767562 34.63584711 58.9767562 37.9375 59.1875 C38.618125 59.455625 39.29875 59.72375 40 60 C40.296875 62.26953125 40.296875 62.26953125 40 65 C37.953125 66.94921875 37.953125 66.94921875 35.25 68.6875 C34.36828125 69.26886719 33.4865625 69.85023437 32.578125 70.44921875 C31.72734375 70.96097656 30.8765625 71.47273438 30 72 C29.35546875 72.39832031 28.7109375 72.79664062 28.046875 73.20703125 C24.08387307 74.74231635 20.98085601 74.41166831 17.10546875 72.78515625 C2.46363572 64.14118253 -7.23278401 52.45458421 -12 36 C-13.34883185 30.16954553 -13.26162858 24.39623867 -13.3125 18.4375 C-13.34150391 17.30119141 -13.37050781 16.16488281 -13.40039062 14.99414062 C-13.40876953 13.90166016 -13.41714844 12.80917969 -13.42578125 11.68359375 C-13.44036377 10.68900146 -13.45494629 9.69440918 -13.4699707 8.66967773 C-12.87306797 5.27896011 -11.6193983 4.15469097 -9 2 C-5.92116745 0.01365642 -3.63475376 -0.20193076 0 0 Z " fill="#FFFFFF" transform="translate(25,18)"/>
<path d="M0 0 C1.27326488 0.60294238 2.54032374 1.2191182 3.80175781 1.84643555 C4.47660217 2.1722612 5.15144653 2.49808685 5.84674072 2.83378601 C7.26467999 3.52171879 8.67983314 4.2154209 10.09228516 4.91455078 C12.25525801 5.98333969 14.42782591 7.03029377 16.60253906 8.07495117 C17.98206465 8.74751043 19.36099284 9.4212967 20.73925781 10.09643555 C21.38820007 10.40905838 22.03714233 10.72168121 22.70574951 11.04377747 C25.94070496 12.65868089 27.45284548 13.5925983 29.50488281 16.6706543 C29.97620506 20.61154196 29.88561127 24.57955785 29.87988281 28.5456543 C29.87746582 30.24516235 29.87746582 30.24516235 29.875 31.97900391 C29.70560548 43.53851937 27.07489642 52.52527236 21.50488281 62.6706543 C19.52488281 62.6706543 17.54488281 62.6706543 15.50488281 62.6706543 C15.23049636 57.95683582 16.00700511 54.83309159 17.94238281 50.5456543 C20.26133189 45.35279396 21.63731476 41.38949448 21.60253906 35.6862793 C21.59931641 34.75170898 21.59609375 33.81713867 21.59277344 32.85424805 C21.58439453 31.88616211 21.57601562 30.91807617 21.56738281 29.9206543 C21.56287109 28.93709961 21.55835938 27.95354492 21.55371094 26.94018555 C21.54194764 24.51694639 21.52550965 22.09383156 21.50488281 19.6706543 C17.78198234 17.75695684 14.04700795 15.87009363 10.29882812 14.0065918 C9.02666598 13.36953961 7.75802981 12.72539356 6.49316406 12.07397461 C4.67003652 11.13661186 2.83558348 10.22582838 0.99707031 9.3190918 C-0.10266113 8.76398926 -1.20239258 8.20888672 -2.33544922 7.63696289 C-6.19565513 6.45641158 -7.87617182 7.02308351 -11.49511719 8.6706543 C-12.17574219 9.0625293 -12.85636719 9.4544043 -13.55761719 9.8581543 C-16.16192536 10.95028353 -17.82834674 10.41142387 -20.49511719 9.6706543 C-20.49511719 8.0206543 -20.49511719 6.3706543 -20.49511719 4.6706543 C-18.79611534 3.65488095 -17.08541268 2.6586645 -15.37011719 1.6706543 C-14.41878906 1.1137793 -13.46746094 0.5569043 -12.48730469 -0.0168457 C-7.84264758 -2.05418877 -4.73430124 -1.80066152 0 0 Z " fill="#FFFFFF" transform="translate(54.4951171875,7.329345703125)"/>
<path d="M0 0 C1.32 0.33 2.64 0.66 4 1 C4 4.63 4 8.26 4 12 C7.80859375 11.95117188 7.80859375 11.95117188 11.6171875 11.90234375 C14 12 14 12 16 13 C16.042721 14.66611905 16.04063832 16.33382885 16 18 C15 19 15 19 12.49609375 19.09765625 C9.6640625 19.06510417 6.83203125 19.03255208 4 19 C4 22.63 4 26.26 4 30 C2.35 30.33 0.7 30.66 -1 31 C-3.13586678 27.79619983 -3.23132175 26.98060033 -3.125 23.3125 C-3.10695313 22.50425781 -3.08890625 21.69601563 -3.0703125 20.86328125 C-3.04710937 20.24839844 -3.02390625 19.63351563 -3 19 C-3.71027344 19.01160156 -4.42054687 19.02320312 -5.15234375 19.03515625 C-6.07144531 19.04417969 -6.99054687 19.05320312 -7.9375 19.0625 C-8.85402344 19.07410156 -9.77054688 19.08570312 -10.71484375 19.09765625 C-13 19 -13 19 -14 18 C-14.04063832 16.33382885 -14.042721 14.66611905 -14 13 C-11.59454362 11.79727181 -10.05003047 11.89928528 -7.375 11.9375 C-6.14910156 11.95103516 -6.14910156 11.95103516 -4.8984375 11.96484375 C-3.95871094 11.98224609 -3.95871094 11.98224609 -3 12 C-3.03480469 11.38511719 -3.06960937 10.77023438 -3.10546875 10.13671875 C-3.13253906 9.32847656 -3.15960938 8.52023438 -3.1875 7.6875 C-3.22230469 6.88699219 -3.25710937 6.08648437 -3.29296875 5.26171875 C-3 3 -3 3 -1.73828125 1.14453125 C-1.16464844 0.76683594 -0.59101562 0.38914062 0 0 Z " fill="#FFFFFF" transform="translate(47,31)"/>
</svg>
