<?xml version="1.0" encoding="UTF-8"?>
<svg version="1.1" xmlns="http://www.w3.org/2000/svg" width="512" height="512">
<path d="M0 0 C2.92387201 1.94924801 3.77793459 3.26816867 4.79296875 6.61328125 C5.0736434 11.20469493 3.62027994 14.37374092 1.875 18.5625 C-0.92017776 25.6738642 -3.13653375 32.74572577 -4.875 40.1875 C-5.07754395 41.04738525 -5.28008789 41.90727051 -5.48876953 42.79321289 C-13.91661136 80.02042278 -6.11396804 119.69572536 12.96875 152.37109375 C14.88626307 155.32987929 16.89565588 158.17120955 19 161 C19.39912598 161.54430664 19.79825195 162.08861328 20.20947266 162.64941406 C38.01314903 186.7819269 60.99425683 204.20184423 89 215 C90.69962891 215.66128906 90.69962891 215.66128906 92.43359375 216.3359375 C128.60589344 229.41026269 168.73394335 226.56739848 203.8984375 211.78125 C206.95287789 210.6457703 208.90994664 211.07955857 212 212 C214.375 213.5625 214.375 213.5625 216 216 C216.60284665 222.47886918 215.36098552 226.40956464 212.1875 232 C211.78442627 232.73130127 211.38135254 233.46260254 210.96606445 234.21606445 C203.42735403 247.6135779 194.35672417 259.66538771 184 271 C183.25234375 271.81984375 182.5046875 272.6396875 181.734375 273.484375 C171.63331593 284.03437003 159.51901067 292.56640703 147 300 C146.41669922 300.34659668 145.83339844 300.69319336 145.23242188 301.05029297 C132.0461339 308.75435639 117.89931758 313.84090851 103.1875 317.8125 C102.47239258 318.00739014 101.75728516 318.20228027 101.02050781 318.40307617 C88.18677547 321.68676344 75.41814858 322.37375441 62.25 322.3125 C61.45663239 322.31100952 60.66326477 322.30951904 59.84585571 322.3079834 C48.29927782 322.26897321 37.2532564 321.78640674 26 319 C24.73542969 318.70996094 23.47085938 318.41992188 22.16796875 318.12109375 C-3.49395791 311.80471839 -28.18187696 299.55891421 -48 282 C-48.76691162 281.33145996 -48.76691162 281.33145996 -49.54931641 280.64941406 C-62.57475001 269.25460364 -72.7925666 256.61996635 -82 242 C-82.93972656 240.54013672 -82.93972656 240.54013672 -83.8984375 239.05078125 C-106.06179592 203.09800299 -111.99689364 156.2787543 -102.39794922 115.43847656 C-91.47114089 71.02734398 -64.25733948 33.06835496 -25.13427734 9.28125 C-24.07781006 8.64703125 -24.07781006 8.64703125 -23 8 C-22.30986816 7.58492187 -21.61973633 7.16984375 -20.90869141 6.7421875 C-18.93227674 5.57209718 -16.94101877 4.4354379 -14.9375 3.3125 C-13.79152344 2.66925781 -12.64554687 2.02601563 -11.46484375 1.36328125 C-7.20430763 -0.313074 -4.54332456 -0.37701958 0 0 Z M-45.6875 47.625 C-46.450625 48.40875 -47.21375 49.1925 -48 50 C-48.72509766 50.65742188 -48.72509766 50.65742188 -49.46484375 51.328125 C-74.68367494 74.82614183 -88.40448139 112.64472878 -90.12280273 146.41333008 C-91.52315874 188.58149696 -77.26731197 227.8465225 -48.53125 258.78515625 C-20.37185222 288.27120119 17.70623527 305.29606301 58.53222656 306.28564453 C96.9878301 306.67458499 134.73033632 293.29793474 163 267 C163.60730957 266.43651855 164.21461914 265.87303711 164.84033203 265.29248047 C174.07686573 256.62159313 181.86325646 247.46029978 189 237 C186.49054333 235.74527166 185.6292931 236.13049797 182.9296875 236.7421875 C182.115 236.92136719 181.3003125 237.10054687 180.4609375 237.28515625 C179.18089844 237.57712891 179.18089844 237.57712891 177.875 237.875 C176.2064651 238.25067944 174.53719528 238.62311055 172.8671875 238.9921875 C172.12581543 239.16089355 171.38444336 239.32959961 170.62060547 239.50341797 C164.41384272 240.67954573 158.32167994 241.16268395 152.01171875 241.203125 C150.90681343 241.21364647 150.90681343 241.21364647 149.77958679 241.22438049 C147.41549494 241.24178605 145.05165358 241.24823271 142.6875 241.25 C141.87976135 241.25067474 141.07202271 241.25134949 140.23980713 241.25204468 C128.24897482 241.23611566 116.70482991 240.82741493 105 238 C104.27329102 237.83371094 103.54658203 237.66742188 102.79785156 237.49609375 C60.07322714 227.52147326 22.23493116 200.13835362 -1 163 C-17.17006431 135.53655743 -25.4353108 106.4602104 -25.375 74.5625 C-25.37667679 73.31182739 -25.37667679 73.31182739 -25.37838745 72.03588867 C-25.37003126 59.36243688 -24.46467452 47.30457699 -21.45751953 34.9453125 C-20.83938178 32.31707259 -20.40621428 29.66818641 -20 27 C-27.36947537 27 -40.87951819 42.92883172 -45.6875 47.625 Z " fill="#FFFFFF" transform="translate(122,174)"/>
<path d="M0 0 C3.23613354 1.74253345 3.82395315 2.47185944 5 6 C5.0845387 8.4410776 5.11605786 10.85259213 5.09765625 13.29296875 C5.0962413 13.99899734 5.09482635 14.70502594 5.09336853 15.43244934 C5.08777764 17.68417626 5.07522688 19.93580321 5.0625 22.1875 C5.05748382 23.71549335 5.05292112 25.24348827 5.04882812 26.77148438 C5.0378112 30.51436135 5.02055287 34.25716373 5 38 C5.58031982 38.27618164 6.16063965 38.55236328 6.75854492 38.83691406 C10.51356132 40.78538353 13.86612577 43.30745301 17.3125 45.75 C18.04662109 46.26304687 18.78074219 46.77609375 19.53710938 47.3046875 C32.41144853 56.3978321 32.41144853 56.3978321 34.125 61.0625 C33.96532534 64.81485462 33.5223097 66.18094798 31 69 C23.95610365 72.96674511 16.1234041 74.67596276 8.2890625 76.359375 C3.43501373 77.46943376 3.43501373 77.46943376 -0.19458008 80.60839844 C-1.02559973 82.72587199 -1.52929221 84.7745827 -2 87 C-2.48316627 88.74621502 -2.97170868 90.49094896 -3.46484375 92.234375 C-4.21147465 95.01097057 -4.94755345 97.78918407 -5.66210938 100.57421875 C-8.03998729 109.32029215 -8.03998729 109.32029215 -12 112 C-15.15077523 113.00172521 -17.81569332 112.84514989 -21 112 C-24.03316713 109.88367657 -25.89068416 107.00405443 -28 104 C-29.02118199 102.59566038 -30.04341039 101.19208135 -31.06640625 99.7890625 C-33.23645156 96.78183909 -35.39643121 93.76831815 -37.5234375 90.73046875 C-37.97638184 90.08489014 -38.42932617 89.43931152 -38.89599609 88.77416992 C-40 87 -40 87 -41 84 C-41.94319092 84.01571045 -42.88638184 84.0314209 -43.8581543 84.04760742 C-47.37123148 84.09886007 -50.88390898 84.13640991 -54.3972168 84.16479492 C-55.91518438 84.17984353 -57.43310876 84.20028738 -58.95092773 84.22631836 C-61.13796677 84.26287653 -63.32442896 84.27976523 -65.51171875 84.29296875 C-66.82615967 84.3086792 -68.14060059 84.32438965 -69.49487305 84.34057617 C-73.49736728 83.95167324 -76.1395298 82.8604702 -79 80 C-79.88944104 72.80620085 -78.52738101 69.36188816 -74.16992188 63.65039062 C-73.51572266 62.83763672 -72.86152344 62.02488281 -72.1875 61.1875 C-71.54490234 60.35541016 -70.90230469 59.52332031 -70.24023438 58.66601562 C-69.04508352 57.12160826 -67.84124153 55.58385614 -66.62573242 54.05541992 C-66.08924072 53.37713135 -65.55274902 52.69884277 -65 52 C-64.43337646 51.29593018 -63.86675293 50.59186035 -63.28295898 49.86645508 C-61.78092511 48.0888657 -61.78092511 48.0888657 -62.1171875 45.90625 C-62.36726563 45.1121875 -62.61734375 44.318125 -62.875 43.5 C-63.16503906 42.54609375 -63.45507812 41.5921875 -63.75390625 40.609375 C-64.74245232 37.74600017 -65.77433677 34.91300953 -66.83984375 32.078125 C-67.16291504 31.20220703 -67.48598633 30.32628906 -67.81884766 29.42382812 C-68.47238217 27.66522617 -69.14478773 25.91350245 -69.83740234 24.16992188 C-71.90422392 18.63096997 -72.46922028 15.4690753 -70 10 C-67.375 7.9375 -67.375 7.9375 -64 7 C-56.10198125 8.53523286 -48.64115437 11.5860996 -41.13671875 14.4296875 C-40.14800781 14.78804688 -39.15929687 15.14640625 -38.140625 15.515625 C-37.24891602 15.84852539 -36.35720703 16.18142578 -35.43847656 16.52441406 C-31.72290457 17.24907708 -30.07711511 15.70716004 -27.04882812 13.71899414 C-26.05012695 13.00924438 -26.05012695 13.00924438 -25.03125 12.28515625 C-23.92716797 11.50301758 -23.92716797 11.50301758 -22.80078125 10.70507812 C-22.04152344 10.16302734 -21.28226562 9.62097656 -20.5 9.0625 C-19.74074219 8.52431641 -18.98148437 7.98613281 -18.19921875 7.43164062 C-13.99301856 4.45022976 -13.99301856 4.45022976 -9.87695312 1.34692383 C-6.77339662 -0.88022514 -3.66939497 -0.56510189 0 0 Z M-21.36914062 31.4453125 C-26.12925416 35.01667314 -29.06271252 35.66564184 -35 35 C-38.1171875 34.125 -38.1171875 34.125 -40.875 33 C-44.34029562 31.49808311 -44.34029562 31.49808311 -48 31 C-47.46322765 35.29417877 -46.36143761 38.85532482 -44.62109375 42.77734375 C-43.24950452 47.68573539 -43.43418923 50.98839893 -45.93359375 55.45703125 C-46.75169744 56.58766894 -47.58678884 57.70618822 -48.4375 58.8125 C-49.27016351 59.94354523 -50.10222234 61.07503593 -50.93359375 62.20703125 C-51.61550781 63.12871094 -52.29742187 64.05039062 -53 65 C-53.33 65.66 -53.66 66.32 -54 67 C-53.42032471 67.00410889 -52.84064941 67.00821777 -52.2434082 67.01245117 C-49.59875891 67.04549277 -46.95638161 67.11614264 -44.3125 67.1875 C-43.40048828 67.19330078 -42.48847656 67.19910156 -41.54882812 67.20507812 C-37.11874142 67.35006278 -34.72599886 67.44760956 -31.125 70.1875 C-30.42375 71.115625 -29.7225 72.04375 -29 73 C-28.26136719 73.95519531 -27.52273438 74.91039062 -26.76171875 75.89453125 C-26.07722656 76.85746094 -25.39273438 77.82039063 -24.6875 78.8125 C-23.99011719 79.78832031 -23.29273438 80.76414062 -22.57421875 81.76953125 C-21.79498047 82.87361328 -21.79498047 82.87361328 -21 84 C-20.34 83.67 -19.68 83.34 -19 83 C-17.89991632 79.6548476 -16.9397232 76.30314144 -16.03125 72.90234375 C-15.14471461 69.82191382 -14.48166272 67.53654986 -12.3203125 65.12890625 C-9.08004796 63.55241391 -5.73436749 62.65889172 -2.25 61.8125 C-1.55261719 61.63525391 -0.85523438 61.45800781 -0.13671875 61.27539062 C1.57344679 60.84199251 3.28646044 60.41985982 5 60 C2.07394321 57.00245142 -0.8328304 54.19863566 -4.1875 51.6875 C-5.19876953 50.91986328 -5.19876953 50.91986328 -6.23046875 50.13671875 C-7.92992299 48.81984135 -7.92992299 48.81984135 -10 49 C-10.95168683 46.14493951 -11.1900946 44.09062718 -11.31640625 41.11328125 C-11.35830078 40.17548828 -11.40019531 39.23769531 -11.44335938 38.27148438 C-11.48267578 37.29501953 -11.52199219 36.31855469 -11.5625 35.3125 C-11.60568359 34.32443359 -11.64886719 33.33636719 -11.69335938 32.31835938 C-11.79941654 29.87904454 -11.90147714 27.43962887 -12 25 C-14.76975695 25 -19.12117813 29.64694251 -21.36914062 31.4453125 Z " fill="#FFFFFF" transform="translate(463,264)"/>
<path d="M0 0 C6.31107334 0.07371873 10.11605262 3.47965749 14.86328125 7.30078125 C15.69537109 7.94337891 16.52746094 8.58597656 17.38476562 9.24804688 C18.92917299 10.44319773 20.46692511 11.64703972 21.99536133 12.86254883 C22.6736499 13.39904053 23.35193848 13.93553223 24.05078125 14.48828125 C25.10688599 15.33821655 25.10688599 15.33821655 26.18432617 16.20532227 C27.96191555 17.70735614 27.96191555 17.70735614 30.14453125 17.37109375 C30.93859375 17.12101562 31.73265625 16.8709375 32.55078125 16.61328125 C33.50339844 16.32195313 34.45601563 16.030625 35.4375 15.73046875 C38.30721031 14.74390888 41.15820657 13.72577837 44.0078125 12.68359375 C44.88824219 12.36503418 45.76867187 12.04647461 46.67578125 11.71826172 C48.4454684 11.0729561 50.21004959 10.41344339 51.96875 9.73876953 C56.68327734 8.00478547 60.07330453 6.8698379 65.05078125 8.48828125 C67.48828125 10.48828125 67.48828125 10.48828125 69.05078125 13.48828125 C68.80179238 22.40741821 65.38814069 29.89086661 62.02539062 38.04492188 C61.4134082 39.58889648 61.4134082 39.58889648 60.7890625 41.1640625 C60.40790283 42.09130127 60.02674316 43.01854004 59.6340332 43.97387695 C58.82229274 46.44983226 58.82229274 46.44983226 59.80419922 48.62060547 C61.76487317 51.55816044 63.78832059 54.44350847 65.86328125 57.30078125 C67.15494643 59.092698 68.44659272 60.88459564 69.73486328 62.67895508 C70.63272927 63.91347916 71.54593879 65.13695293 72.47216797 66.3503418 C76.1360984 71.22666928 76.83315174 73.52270623 76.05078125 79.48828125 C74.3082478 82.72441479 73.57892181 83.3122344 70.05078125 84.48828125 C67.75899803 84.44044139 65.46821593 84.33816716 63.1796875 84.20703125 C48.83813589 83.12295884 48.83813589 83.12295884 35.49951172 87.03857422 C31.65298605 90.87163368 29.28559967 95.45583734 27.05224609 100.36230469 C24.90001162 104.931212 21.90814845 109.21301172 18.05078125 112.48828125 C14.81021924 113.55588737 12.23450265 113.77493558 9.05078125 112.48828125 C5.54712376 108.81584292 4.51402902 106.14856529 3.89453125 101.15625 C2.01562123 89.77275462 2.01562123 89.77275462 -2.94921875 79.48828125 C-10.31190096 74.56597863 -19.28792254 73.3058412 -27.93823242 72.23242188 C-31.48220705 71.35655755 -33.32934846 69.99552327 -35.94921875 67.48828125 C-37.09441197 64.34335977 -36.84834491 61.69004757 -35.94921875 58.48828125 C-33.82751879 55.45728131 -30.95478286 53.59865712 -27.94921875 51.48828125 C-26.54487913 50.46709926 -25.1413001 49.44487086 -23.73828125 48.421875 C-20.73105784 46.25182969 -17.7175369 44.09185004 -14.6796875 41.96484375 C-14.03410889 41.51189941 -13.38853027 41.05895508 -12.72338867 40.59228516 C-10.94921875 39.48828125 -10.94921875 39.48828125 -7.94921875 38.48828125 C-7.9649292 37.54509033 -7.98063965 36.60189941 -7.99682617 35.63012695 C-8.04807882 32.11704977 -8.08562866 28.60437227 -8.11401367 25.09106445 C-8.12906228 23.57309687 -8.14950613 22.05517249 -8.17553711 20.53735352 C-8.21209528 18.35031448 -8.22898398 16.16385229 -8.2421875 13.9765625 C-8.25789795 12.66212158 -8.2736084 11.34768066 -8.28979492 9.9934082 C-7.70957797 4.02195673 -5.92842617 0.73299038 0 0 Z M9.05078125 25.48828125 C9.04461792 26.35779419 9.04461792 26.35779419 9.03833008 27.24487305 C9.00528848 29.88952234 8.93463861 32.53189964 8.86328125 35.17578125 C8.85748047 36.08779297 8.85167969 36.99980469 8.84570312 37.93945312 C8.70071847 42.36953983 8.60317169 44.76228239 5.86328125 48.36328125 C4.93515625 49.06453125 4.00703125 49.76578125 3.05078125 50.48828125 C1.61798828 51.59623047 1.61798828 51.59623047 0.15625 52.7265625 C-0.80667969 53.41105469 -1.76960938 54.09554687 -2.76171875 54.80078125 C-3.73753906 55.49816406 -4.71335938 56.19554688 -5.71875 56.9140625 C-6.82283203 57.69330078 -6.82283203 57.69330078 -7.94921875 58.48828125 C-7.61921875 59.14828125 -7.28921875 59.80828125 -6.94921875 60.48828125 C-3.60406635 61.58836493 -0.25236019 62.54855805 3.1484375 63.45703125 C6.22886743 64.34356664 8.51423139 65.00661853 10.921875 67.16796875 C12.49836734 70.40823329 13.39188953 73.75391376 14.23828125 77.23828125 C14.41552734 77.93566406 14.59277344 78.63304687 14.77539062 79.3515625 C15.20878874 81.06172804 15.63092143 82.77474169 16.05078125 84.48828125 C19.04832983 81.56222446 21.85214559 78.65545085 24.36328125 75.30078125 C25.13091797 74.28951172 25.13091797 74.28951172 25.9140625 73.2578125 C27.2309399 71.55835826 27.2309399 71.55835826 27.05078125 69.48828125 C29.90584174 68.53659442 31.96015407 68.29818665 34.9375 68.171875 C36.34418945 68.1090332 36.34418945 68.1090332 37.77929688 68.04492188 C39.24399414 67.98594727 39.24399414 67.98594727 40.73828125 67.92578125 C41.72634766 67.88259766 42.71441406 67.83941406 43.73242188 67.79492188 C46.17173671 67.68886471 48.61115238 67.58680411 51.05078125 67.48828125 C50.63103027 66.85921875 50.2112793 66.23015625 49.77880859 65.58203125 C48.73273806 64.01171592 47.69100731 62.43850561 46.65234375 60.86328125 C45.38748194 58.98758373 44.04467655 57.16445927 42.67578125 55.36328125 C40.5471392 51.59722223 40.49492934 49.79613357 41.05078125 45.48828125 C41.99849863 42.30607505 43.04740007 39.18513819 44.17578125 36.0625 C45.1580564 33.62582575 45.1580564 33.62582575 45.05078125 31.48828125 C40.75660248 32.0250536 37.19545643 33.12684364 33.2734375 34.8671875 C28.36504586 36.23877673 25.06238232 36.05409202 20.59375 33.5546875 C19.46311231 32.73658381 18.34459303 31.90149241 17.23828125 31.05078125 C16.10723602 30.21811774 14.97574532 29.38605891 13.84375 28.5546875 C12.92207031 27.87277344 12.00039063 27.19085938 11.05078125 26.48828125 C10.39078125 26.15828125 9.73078125 25.82828125 9.05078125 25.48828125 Z " fill="#FFFFFF" transform="translate(251.94921875,15.51171875)"/>
<path d="M0 0 C8.27548856 -0.09038931 16.55059302 -0.16376597 24.82644272 -0.20724869 C28.66931252 -0.22811884 32.51182693 -0.25642506 36.35449219 -0.30175781 C40.06331115 -0.34523745 43.77178842 -0.36914142 47.48084259 -0.37950897 C48.89546335 -0.38689667 50.31006552 -0.40132343 51.72454071 -0.42292023 C53.70647423 -0.45197615 55.688752 -0.45363408 57.67089844 -0.45410156 C58.79896912 -0.46298401 59.92703979 -0.47186646 61.08929443 -0.48101807 C64.6847262 0.11315664 65.84904835 1.09991691 68 4 C68.7646433 9.11322699 68.68267057 10.95569853 65.83203125 15.31640625 C64.84492663 16.41616955 63.8370199 17.49750524 62.8125 18.5625 C61.70410766 19.7822619 60.59604591 21.00232428 59.48828125 22.22265625 C58.91158691 22.84414551 58.33489258 23.46563477 57.74072266 24.10595703 C54.92082575 27.17422634 52.21685702 30.34067284 49.5 33.5 C48.41450224 34.75168358 47.32856457 36.00298578 46.2421875 37.25390625 C42.54990378 41.51414812 38.8816285 45.79482796 35.22070312 50.08203125 C31.51344904 54.41861948 27.75782218 58.70534608 24 63 C43.8 63.495 43.8 63.495 64 64 C64 69.28 64 74.56 64 80 C55.72450715 80.11298669 47.44961439 80.2047061 39.17355728 80.25906086 C35.33058251 80.28514926 31.488163 80.32053148 27.64550781 80.37719727 C23.93666891 80.43154711 20.22836382 80.46142624 16.51915741 80.47438622 C15.10450587 80.48362104 13.68988339 80.50165527 12.27545929 80.52865028 C10.29363021 80.56496828 8.3112633 80.5670426 6.32910156 80.56762695 C5.20103088 80.57873001 4.07296021 80.58983307 2.91070557 80.60127258 C0 80 0 80 -2.3526001 77.63639832 C-4.48297808 74.22707134 -4.83833883 72.96305628 -4 69 C-0.25797843 62.95698379 4.90478835 57.82967242 9.6796875 52.6015625 C12.03540343 49.96030524 14.27510281 47.25205053 16.5 44.5 C20.10043998 40.04945613 23.86285226 35.79567436 27.71875 31.56640625 C31.01525265 27.85784077 34.13235469 24.01151234 37.25 20.15234375 C39 18 39 18 40 17 C20.2 16.505 20.2 16.505 0 16 C0 10.72 0 5.44 0 0 Z " fill="#FFFFFF" transform="translate(376,112)"/>
<path d="M0 0 C8.27548856 -0.09038931 16.55059302 -0.16376597 24.82644272 -0.20724869 C28.66931252 -0.22811884 32.51182693 -0.25642506 36.35449219 -0.30175781 C40.06331115 -0.34523745 43.77178842 -0.36914142 47.48084259 -0.37950897 C48.89546335 -0.38689667 50.31006552 -0.40132343 51.72454071 -0.42292023 C53.70647423 -0.45197615 55.688752 -0.45363408 57.67089844 -0.45410156 C58.79896912 -0.46298401 59.92703979 -0.47186646 61.08929443 -0.48101807 C64.68330164 0.11292122 65.83315967 1.11724502 68 4 C68.76174212 7.45713729 69.02381208 8.75601117 68 12 C63.41396197 18.18785993 56.87241116 22.82439093 50.90234375 27.60546875 C46.75997854 31.02305942 42.84883426 34.66303436 38.921875 38.32421875 C35.68186954 41.29133605 32.33567102 44.14085341 29 47 C40.55 47.33 52.1 47.66 64 48 C64 53.28 64 58.56 64 64 C55.72450715 64.11298669 47.44961439 64.2047061 39.17355728 64.25906086 C35.33058251 64.28514926 31.488163 64.32053148 27.64550781 64.37719727 C23.93666891 64.43154711 20.22836382 64.46142624 16.51915741 64.47438622 C15.10450587 64.48362104 13.68988339 64.50165527 12.27545929 64.52865028 C10.29363021 64.56496828 8.3112633 64.5670426 6.32910156 64.56762695 C5.20103088 64.57873001 4.07296021 64.58983307 2.91070557 64.60127258 C0 64 0 64 -2.35650635 61.64421082 C-4.43353577 58.30248592 -4.77414065 56.87070327 -4 53 C-0.65623897 47.38193998 4.90771669 43.5281291 9.9375 39.5234375 C13.79735371 36.34299682 17.43784743 32.96287947 21.05688477 29.51293945 C25.84642338 24.99761993 30.79061746 21.16750604 36 17 C24.12 16.67 12.24 16.34 0 16 C0 10.72 0 5.44 0 0 Z " fill="#FFFFFF" transform="translate(272,200)"/>
<path d="M0 0 C4.76984706 -0.09192425 9.53661287 -0.17152499 14.30664062 -0.21972656 C15.92849143 -0.23982144 17.55026997 -0.26710254 19.171875 -0.30175781 C21.5053898 -0.3503727 23.83794557 -0.37298889 26.171875 -0.390625 C26.89493835 -0.41127014 27.61800171 -0.43191528 28.36297607 -0.45318604 C31.77001485 -0.45469889 33.66512681 -0.24411722 36.45117188 1.78686523 C38.32849376 4.46938776 38.6701472 6.65010761 38.49804688 9.90869141 C37.56413464 13.83020719 34.97881984 16.34127744 32.25 19.1875 C31.17138473 20.36804183 30.09325043 21.54902331 29.015625 22.73046875 C28.50064453 23.2826709 27.98566406 23.83487305 27.45507812 24.40380859 C25.52750484 26.51831768 23.75339242 28.74016657 22 31 C25.3 31.33 28.6 31.66 32 32 C32 37.28 32 42.56 32 48 C27.22960979 48.11491839 22.46403212 48.21439809 17.69335938 48.2746582 C16.07144895 48.29977772 14.44965146 48.33388028 12.828125 48.37719727 C10.49450829 48.43796853 8.16238952 48.46623294 5.828125 48.48828125 C5.10506165 48.51408768 4.38199829 48.5398941 3.63702393 48.56648254 C-0.15108334 48.56858512 -1.67494456 48.31239136 -4.45019531 45.64526367 C-6.42618497 42.27257181 -6.75618365 40.85653662 -6 37 C-4.31480164 34.07065129 -2.17674421 31.57638084 0 29 C0.87594773 27.94088728 1.75088115 26.88093515 2.625 25.8203125 C5.06693348 22.86620669 7.52910613 19.92991368 10 17 C6.7 16.67 3.4 16.34 0 16 C0 10.72 0 5.44 0 0 Z " fill="#FFFFFF" transform="translate(200,272)"/>
</svg>
