<?xml version="1.0" encoding="UTF-8"?>
<svg version="1.1" xmlns="http://www.w3.org/2000/svg" width="512" height="512">
<path d="M0 0 C0.86188934 0.00215515 1.72377869 0.0043103 2.61178589 0.00653076 C15.57979591 0.05855376 28.24243611 0.42182772 40.9375 3.3125 C41.81535156 3.51117676 42.69320313 3.70985352 43.59765625 3.91455078 C81.68680538 12.85425087 127.41670389 34.53130583 149.9375 68.3125 C151.7479584 69.01162221 151.7479584 69.01162221 153.8828125 69.3046875 C155.10822754 69.52185425 155.10822754 69.52185425 156.35839844 69.7434082 C157.25075195 69.8899585 158.14310547 70.03650879 159.0625 70.1875 C160.98728673 70.53083226 162.91175522 70.87595243 164.8359375 71.22265625 C165.84108398 71.40070801 166.84623047 71.57875977 167.88183594 71.76220703 C238.26633721 84.43771565 238.26633721 84.43771565 253.81640625 106.35546875 C257.69258964 113.12190734 257.72351604 119.66138643 256.9375 127.3125 C254.12640973 137.28777663 246.66966456 143.29040736 238.01635742 148.36010742 C226.38012441 154.81743229 213.47876942 158.72486247 200.61010742 161.90893555 C199.01038338 162.30570747 199.01038338 162.30570747 197.37834167 162.710495 C196.57286392 162.90915665 195.76738617 163.1078183 194.9375 163.3125 C200.30183078 189.32367978 205.76823359 215.31115265 211.3828125 241.26953125 C211.6555172 242.53083736 211.92822189 243.79214348 212.20919037 245.09167099 C214.59202422 256.11057442 216.97875328 267.12863332 219.36835372 278.14607114 C220.92243526 285.31138817 222.47372908 292.47730154 224.02233505 299.64380455 C224.55145187 302.08936585 225.08174553 304.53467285 225.61325455 306.97971535 C226.34536598 310.34761859 227.07374657 313.71630817 227.80126953 317.08520508 C228.01932755 318.08369476 228.23738556 319.08218445 228.46205139 320.1109314 C228.65795364 321.02172958 228.8538559 321.93252777 229.05569458 322.8709259 C229.22706499 323.66124112 229.3984354 324.45155634 229.57499886 325.2658205 C229.9375 327.3125 229.9375 327.3125 229.9375 330.3125 C209.1475 330.3125 188.3575 330.3125 166.9375 330.3125 C166.9375 369.9125 166.9375 409.5125 166.9375 450.3125 C137.2375 450.3125 107.5375 450.3125 76.9375 450.3125 C76.9375 470.7725 76.9375 491.2325 76.9375 512.3125 C7.3075 512.3125 -62.3225 512.3125 -134.0625 512.3125 C-133.8125 425.0625 -133.8125 425.0625 -133.63964844 397.54980469 C-133.64612165 389.38563234 -133.64612165 389.38563234 -133.66851807 381.22149658 C-133.67804188 377.59463082 -133.65407357 373.96967472 -133.60943604 370.34307861 C-133.55347451 365.70589989 -133.55581162 361.07207197 -133.59901094 356.43479395 C-133.60512133 354.74000225 -133.59135052 353.04498402 -133.5546031 351.35057974 C-133.38950429 343.25734035 -133.50721741 337.15517581 -139.27968049 331.04531217 C-141.77784424 328.67651772 -144.41090511 326.50830328 -147.0625 324.3125 C-149.40982169 321.7121209 -151.53530743 318.99730127 -153.625 316.1875 C-154.16036377 315.47432617 -154.69572754 314.76115234 -155.24731445 314.02636719 C-180.33026087 280.0384741 -194.52886168 240.04063751 -194.32324219 197.75024414 C-194.31247041 195.11776946 -194.32323095 192.48597047 -194.3359375 189.85351562 C-194.34230721 180.82030562 -194.0332905 172.17769032 -192.0625 163.3125 C-193.53396484 162.96638672 -193.53396484 162.96638672 -195.03515625 162.61328125 C-215.70151306 157.66368879 -240.92720083 151.46080868 -252.96875 132.328125 C-256.3261079 126.14099402 -256.27093831 117.4960609 -254.34375 110.82421875 C-253.38839141 108.84030877 -252.33979668 107.10408775 -251.0625 105.3125 C-250.36125 104.301875 -249.66 103.29125 -248.9375 102.25 C-241.242948 93.70049777 -230.52655994 89.4199841 -220.0625 85.3125 C-218.97066406 84.88195312 -217.87882812 84.45140625 -216.75390625 84.0078125 C-196.44269468 76.68716381 -174.42165681 72.82163638 -153.13012695 69.68212891 C-149.22065393 68.98323386 -147.57607062 68.01238451 -145.125 65 C-136.13954583 54.47310808 -126.22450901 45.46326327 -115.0625 37.3125 C-114.49756836 36.89790527 -113.93263672 36.48331055 -113.35058594 36.05615234 C-80.21556891 12.07461248 -40.75757889 -0.18323298 0 0 Z M-114.0625 77.3125 C-126.24436933 89.05003597 -136.00482669 102.62052825 -144.3125 117.3125 C-144.71267334 118.01125244 -145.11284668 118.71000488 -145.52514648 119.42993164 C-149.04241739 125.79746767 -151.56155083 132.4922087 -154.0625 139.3125 C-102.67027746 147.5110028 -51.01271457 149.49675283 0.9375 150.3125 C0.9375 160.2125 0.9375 170.1125 0.9375 180.3125 C-51.0086767 179.67390775 -102.74455379 177.38052995 -154.1953125 169.828125 C-158.07308342 169.22439085 -158.07308342 169.22439085 -162.0625 169.3125 C-166.77404915 216.39915703 -157.75589011 260.68597294 -127.57519531 298.15917969 C-118.04170828 310.16090932 -118.04170828 310.16090932 -106.48892689 320.00582504 C-104.0625 322.3125 -104.0625 322.3125 -103.43164349 325.30347061 C-103.42887811 326.47967846 -103.42611273 327.65588631 -103.42326355 328.86773682 C-103.41490787 329.52452289 -103.4065522 330.18130897 -103.39794332 330.85799766 C-103.37600777 333.05723968 -103.38961988 335.25481259 -103.40307617 337.45410156 C-103.39462372 339.03103911 -103.38397996 340.60796621 -103.37130737 342.18487549 C-103.34312411 346.46563902 -103.34563905 350.74590212 -103.35360122 355.02673054 C-103.35672289 359.50046011 -103.33170191 363.97402934 -103.30964661 368.44769287 C-103.27216845 376.91908765 -103.26005639 385.39032188 -103.2570222 393.86179137 C-103.25145926 405.30933172 -103.20678437 416.75671476 -103.16428089 428.20416641 C-103.09834686 446.24031661 -103.0847322 464.27612043 -103.0625 482.3125 C-53.8925 482.3125 -4.7225 482.3125 45.9375 482.3125 C45.9375 461.64314534 45.62609604 440.97038125 44.9375 420.3125 C74.9675 420.3125 104.9975 420.3125 135.9375 420.3125 C135.9375 400.5125 135.9375 380.7125 135.9375 360.3125 C128.656875 360.27125 121.37625 360.23 113.875 360.1875 C111.58941162 360.16929199 109.30382324 360.15108398 106.94897461 360.13232422 C105.12093337 360.12647853 103.29288952 360.12138315 101.46484375 360.1171875 C100.52902466 360.10695557 99.59320557 360.09672363 98.62902832 360.08618164 C91.9603877 360.08441581 86.36701224 360.20692272 81.125 364.75 C74.20815778 372.85258661 75.9375 379.04137301 75.9375 390.3125 C66.0375 390.3125 56.1375 390.3125 45.9375 390.3125 C46.49821063 355.36153715 46.49821063 355.36153715 60.9296875 341.3828125 C70.63128499 333.10269449 81.76043822 330.562271 94.23828125 330.60546875 C95.4406694 330.59034744 96.64305756 330.57522614 97.88188171 330.55964661 C101.67145054 330.51712264 105.46021742 330.50796528 109.25 330.5 C111.84051559 330.47682844 114.4310125 330.45145765 117.02148438 330.42382812 C123.32724826 330.35723926 129.63084197 330.33591318 135.9375 330.3125 C135.9375 320.4125 135.9375 310.5125 135.9375 300.3125 C154.4175 300.3125 172.8975 300.3125 191.9375 300.3125 C188.20961643 281.5030582 188.20961643 281.5030582 184.25854492 262.74389648 C183.92095154 261.18760277 183.92095154 261.18760277 183.57653809 259.59986877 C182.85894432 256.29402097 182.13851286 252.9887996 181.41796875 249.68359375 C180.90926963 247.34281755 180.40075387 245.0020015 179.89241028 242.66114807 C178.57417047 236.59314093 177.25349412 230.52566679 175.93225098 224.45831299 C174.5763638 218.22969988 173.22286258 212.00056835 171.86914062 205.77148438 C169.22755157 193.61799058 166.58337963 181.46506038 163.9375 169.3125 C161.08344493 169.6276351 158.22945077 169.94330584 155.37548828 170.25927734 C154.57569046 170.34753281 153.77589264 170.43578827 152.95185852 170.52671814 C146.23111258 171.2714674 139.52041994 172.08487204 132.8125 172.9375 C131.21728516 173.13859375 131.21728516 173.13859375 129.58984375 173.34375 C127.03891116 173.66548925 124.48813271 173.98839363 121.9375 174.3125 C121.27083333 164.3125 120.60416667 154.3125 119.9375 144.3125 C120.82010498 144.19656494 121.70270996 144.08062988 122.61206055 143.96118164 C125.90162704 143.52826993 129.19098854 143.09385965 132.48022461 142.65844727 C133.90104429 142.47067588 135.32194197 142.28349373 136.74291992 142.09692383 C138.79106342 141.82790323 140.83891255 141.55673102 142.88671875 141.28515625 C144.11737061 141.12281494 145.34802246 140.96047363 146.6159668 140.79321289 C149.41780172 140.38771396 152.16973253 139.90280393 154.9375 139.3125 C151.67551639 120.25310575 137.36218785 101.56251761 124.9375 87.3125 C124.30158936 86.57604248 124.30158936 86.57604248 123.65283203 85.82470703 C117.32919447 78.53993201 110.62412632 72.17330038 102.9375 66.3125 C101.84097928 65.44161591 100.74463266 64.57051258 99.6484375 63.69921875 C35.26237757 13.52280455 -55.85266612 22.84472687 -114.0625 77.3125 Z M174.9375 105.3125 C176.61964351 110.68309361 178.75032107 115.82129915 180.9375 121 C181.47117187 122.28100586 181.47117187 122.28100586 182.015625 123.58789062 C182.36109375 124.40837891 182.7065625 125.22886719 183.0625 126.07421875 C183.37445313 126.81631592 183.68640625 127.55841309 184.0078125 128.32299805 C184.98888341 130.55238574 184.98888341 130.55238574 186.9375 133.3125 C204.85428403 128.47662452 204.85428403 128.47662452 221.9375 121.3125 C221.9375 120.6525 221.9375 119.9925 221.9375 119.3125 C213.23506938 115.06247574 204.38099167 112.1111396 195.0625 109.5 C193.99330322 109.19827881 192.92410645 108.89655762 191.82250977 108.58569336 C186.18700164 107.04449694 180.75680449 105.85236319 174.9375 105.3125 Z M-220.0625 119.3125 C-220.0625 119.9725 -220.0625 120.6325 -220.0625 121.3125 C-208.89043593 127.10352404 -196.41010732 130.96083342 -184.0625 133.3125 C-183.66925537 132.3066687 -183.66925537 132.3066687 -183.26806641 131.28051758 C-182.07474426 128.22860014 -180.88112504 125.17679898 -179.6875 122.125 C-179.06875 120.54235352 -179.06875 120.54235352 -178.4375 118.92773438 C-178.03789062 117.90615234 -177.63828125 116.88457031 -177.2265625 115.83203125 C-176.85998535 114.89464111 -176.4934082 113.95725098 -176.11572266 112.99145508 C-175.10782142 110.42777862 -174.08835858 107.8690369 -173.0625 105.3125 C-188.06063458 105.3125 -206.85138813 112.37993635 -220.0625 119.3125 Z " fill="#FFFFFF" transform="translate(255.0625,-0.31250000000000006)"/>
<path d="M0 0 C10.23 0 20.46 0 31 0 C31 9.9 31 19.8 31 30 C20.77 30 10.54 30 0 30 C0 20.1 0 10.2 0 0 Z " fill="#FFFFFF" transform="translate(0,180)"/>
<path d="M0 0 C10.23 0 20.46 0 31 0 C31 9.9 31 19.8 31 30 C20.77 30 10.54 30 0 30 C0 20.1 0 10.2 0 0 Z " fill="#FFFFFF" transform="translate(405,0)"/>
<path d="M0 0 C9.9 0 19.8 0 30 0 C30 9.9 30 19.8 30 30 C20.1 30 10.2 30 0 30 C0 20.1 0 10.2 0 0 Z " fill="#FFFFFF" transform="translate(286,150)"/>
</svg>
