<?xml version="1.0" encoding="UTF-8"?>
<svg version="1.1" xmlns="http://www.w3.org/2000/svg" width="512" height="512">
<path d="M0 0 C1.45108658 0.00273422 1.45108658 0.00273422 2.93148804 0.00552368 C17.26440977 0.05095174 31.21023917 0.55983928 45.3125 3.3125 C46.65803955 3.55395752 46.65803955 3.55395752 48.03076172 3.80029297 C107.84088904 14.62287989 165.35495829 48.68064457 202.3125 97.3125 C202.72918945 97.85277832 203.14587891 98.39305664 203.57519531 98.94970703 C211.2584873 108.9447116 218.00092968 119.40459036 224.3125 130.3125 C224.70679199 130.98974121 225.10108398 131.66698242 225.50732422 132.36474609 C238.68961173 155.2833756 247.29510918 180.85822563 252.625 206.6875 C252.77243652 207.39817627 252.91987305 208.10885254 253.07177734 208.84106445 C256.05713787 224.48358366 256.6873098 240.11919606 256.625 256 C256.62226578 257.45108658 256.62226578 257.45108658 256.61947632 258.93148804 C256.57404826 273.26440977 256.06516072 287.21023917 253.3125 301.3125 C253.15152832 302.20952637 252.99055664 303.10655273 252.82470703 304.03076172 C242.00212011 363.84088904 207.94435543 421.35495829 159.3125 458.3125 C158.77222168 458.72918945 158.23194336 459.14587891 157.67529297 459.57519531 C147.6802884 467.2584873 137.22040964 474.00092968 126.3125 480.3125 C125.63525879 480.70679199 124.95801758 481.10108398 124.26025391 481.50732422 C101.3416244 494.68961173 75.76677437 503.29510918 49.9375 508.625 C49.22682373 508.77243652 48.51614746 508.91987305 47.78393555 509.07177734 C32.14141634 512.05713787 16.50580394 512.6873098 0.625 512.625 C-0.34239105 512.62317719 -1.3097821 512.62135437 -2.30648804 512.61947632 C-16.63940977 512.57404826 -30.58523917 512.06516072 -44.6875 509.3125 C-45.58452637 509.15152832 -46.48155273 508.99055664 -47.40576172 508.82470703 C-107.21588904 498.00212011 -164.72995829 463.94435543 -201.6875 415.3125 C-202.10418945 414.77222168 -202.52087891 414.23194336 -202.95019531 413.67529297 C-210.6334873 403.6802884 -217.37592968 393.22040964 -223.6875 382.3125 C-224.08179199 381.63525879 -224.47608398 380.95801758 -224.88232422 380.26025391 C-238.06461173 357.3416244 -246.67010918 331.76677437 -252 305.9375 C-252.14743652 305.22682373 -252.29487305 304.51614746 -252.44677734 303.78393555 C-255.43213787 288.14141634 -256.0623098 272.50580394 -256 256.625 C-255.99817719 255.65760895 -255.99635437 254.6902179 -255.99447632 253.69351196 C-255.94904826 239.36059023 -255.44016072 225.41476083 -252.6875 211.3125 C-252.44604248 209.96696045 -252.44604248 209.96696045 -252.19970703 208.59423828 C-241.37712011 148.78411096 -207.31935543 91.27004171 -158.6875 54.3125 C-158.14722168 53.89581055 -157.60694336 53.47912109 -157.05029297 53.04980469 C-147.0552884 45.3665127 -136.59540964 38.62407032 -125.6875 32.3125 C-125.01025879 31.91820801 -124.33301758 31.52391602 -123.63525391 31.11767578 C-100.7166244 17.93538827 -75.14177437 9.32989082 -49.3125 4 C-48.60182373 3.85256348 -47.89114746 3.70512695 -47.15893555 3.55322266 C-31.51641634 0.56786213 -15.88080394 -0.0623098 0 0 Z M-125.0625 81.08886719 C-126.6423269 82.27848443 -128.24282397 83.44049486 -129.84375 84.6015625 C-136.46029489 89.49846082 -142.55621477 94.80803124 -148.5625 100.4375 C-149.26415283 101.09443848 -149.96580566 101.75137695 -150.6887207 102.42822266 C-190.47969835 140.30321576 -213.68473744 194.70941683 -215.59570312 249.36206055 C-216.64898732 296.33938521 -203.43824151 343.97746388 -174.91113281 381.6875 C-173.72151557 383.2673269 -172.55950514 384.86782397 -171.3984375 386.46875 C-166.50153918 393.08529489 -161.19196876 399.18121477 -155.5625 405.1875 C-154.90556152 405.88915283 -154.24862305 406.59080566 -153.57177734 407.3137207 C-115.69678424 447.10469835 -61.29058317 470.30973744 -6.63793945 472.22070312 C40.33938521 473.27398732 87.97746388 460.06324151 125.6875 431.53613281 C127.2673269 430.34651557 128.86782397 429.18450514 130.46875 428.0234375 C137.08529489 423.12653918 143.18121477 417.81696876 149.1875 412.1875 C149.88915283 411.53056152 150.59080566 410.87362305 151.3137207 410.19677734 C191.10469835 372.32178424 214.30973744 317.91558317 216.22070312 263.26293945 C217.27398732 216.28561479 204.06324151 168.64753612 175.53613281 130.9375 C174.34651557 129.3576731 173.18450514 127.75717603 172.0234375 126.15625 C167.12653918 119.53970511 161.81696876 113.44378523 156.1875 107.4375 C155.53056152 106.73584717 154.87362305 106.03419434 154.19677734 105.3112793 C116.32178424 65.52030165 61.91558317 42.31526256 7.26293945 40.40429688 C-39.71438521 39.35101268 -87.35246388 52.56175849 -125.0625 81.08886719 Z " fill="#FCFEFB" transform="translate(255.6875,-0.3125)"/>
<path d="M0 0 C0.99 1.485 0.99 1.485 2 3 C-17.38447429 19.51486933 -43.68063563 21.09791305 -68 20 C-82.98935231 18.76196591 -98.51533653 14.63982905 -111 6 C-112.80078125 3.81640625 -112.80078125 3.81640625 -114 2 C-102.45226709 -8.29594615 -88.9032819 -12.95717845 -74 -16 C-72.63294922 -16.28810547 -72.63294922 -16.28810547 -71.23828125 -16.58203125 C-46.19980162 -19.81377711 -20.62437488 -14.91444961 0 0 Z " fill="#FCFEFB" transform="translate(312,374)"/>
<path d="M0 0 C9.84288805 -1.65496431 19.90708758 1.17621406 29.4375 3.4375 C31.5703208 3.92939163 33.70401239 4.41734162 35.83790588 4.90455627 C37.75594966 5.34467266 39.67187483 5.79399281 41.58764648 6.24389648 C56.04776416 9.44794488 68.88889363 7.83406701 83.0625 4.5625 C104.61234181 -0.34627629 104.61234181 -0.34627629 114 0 C117 2 117 2 117.625 4.625 C116.38260841 11.33391461 110.91857311 15.5217062 105.625 19.4375 C87.73878742 31.29831168 68.08810006 40.88224385 46.20776367 36.6003418 C30.14456842 32.98398047 9.33832034 23.59476567 -0.0234375 9.703125 C-1.31850178 7.44453289 -1.92757287 5.60737659 -2 3 C-1.34 2.01 -0.68 1.02 0 0 Z " fill="#FCFEFB" transform="translate(278,257)"/>
<path d="M0 0 C14.41492737 3.29053979 27.51387841 4.02910293 42.06884766 0.62329102 C43.10436768 0.39617432 44.1398877 0.16905762 45.20678711 -0.06494141 C49.45893941 -1.00448303 53.69716938 -1.9866455 57.91650391 -3.06420898 C65.15336851 -4.89321 72.47437425 -6.21683574 79.94384766 -5.06420898 C81.94384766 -2.06420898 81.94384766 -2.06420898 81.94384766 0.12329102 C77.83641337 11.67544995 65.77211829 18.71022627 55.26708984 23.92333984 C37.39766499 32.33288922 21.94843217 35.07629335 3.06884766 28.74829102 C-11.09808556 23.4434241 -26.1018473 15.52021972 -35.05615234 2.93579102 C-35.99365234 0.12329102 -35.99365234 0.12329102 -36.05615234 -2.06420898 C-32.01356945 -10.14937477 -7.51230073 -1.72798052 0 0 Z " fill="#FCFEFB" transform="translate(153.05615234375,262.064208984375)"/>
</svg>
