<?xml version="1.0" encoding="UTF-8"?>
<!DOCTYPE svg PUBLIC "-//W3C//DTD SVG 1.1//EN" "http://www.w3.org/Graphics/SVG/1.1/DTD/svg11.dtd">
<svg xmlns="http://www.w3.org/2000/svg" version="1.1" width="512px" height="512px" style="shape-rendering:geometricPrecision; text-rendering:geometricPrecision; image-rendering:optimizeQuality; fill-rule:evenodd; clip-rule:evenodd" xmlns:xlink="http://www.w3.org/1999/xlink">
<g><path style="opacity:1" fill="#f9faf9" d="M 12.5,-0.5 C 17.1667,-0.5 21.8333,-0.5 26.5,-0.5C 28.7686,0.97576 31.1019,2.47576 33.5,4C 191.333,161.833 349.167,319.667 507,477.5C 508.524,479.898 510.024,482.231 511.5,484.5C 511.5,489.167 511.5,493.833 511.5,498.5C 510.024,500.769 508.524,503.102 507,505.5C 504.264,507.752 501.431,509.752 498.5,511.5C 493.833,511.5 489.167,511.5 484.5,511.5C 482.231,510.024 479.898,508.524 477.5,507C 445.986,475.32 414.32,443.82 382.5,412.5C 306.073,457.995 227.739,461.495 147.5,423C 92.9444,393.453 48.111,352.953 13,301.5C 6.42014,291.239 1.92014,280.239 -0.5,268.5C -0.5,259.833 -0.5,251.167 -0.5,242.5C 1.68229,232.8 5.18229,223.467 10,214.5C 32.8377,179.652 60.671,149.152 93.5,123C 63.6667,93.1667 33.8333,63.3333 4,33.5C 2.47576,31.1019 0.97576,28.7686 -0.5,26.5C -0.5,21.8333 -0.5,17.1667 -0.5,12.5C 0.97576,10.2314 2.47576,7.89805 4,5.5C 6.73612,3.24806 9.56945,1.24806 12.5,-0.5 Z M 122.5,152.5 C 135.673,164.84 148.34,177.673 160.5,191C 139.155,225.707 135.655,262.207 150,300.5C 168.039,339.189 198.206,362.022 240.5,369C 269.285,372.344 295.785,366.178 320,350.5C 331.125,360.624 341.959,371.124 352.5,382C 294.445,414.789 235.111,417.455 174.5,390C 122.004,363.174 79.1706,325.341 46,276.5C 38.6667,262.5 38.6667,248.5 46,234.5C 67.1591,203.172 92.6591,175.839 122.5,152.5 Z M 190.5,220.5 C 199.465,228.964 208.298,237.631 217,246.5C 215.833,280 232,296.167 265.5,295C 273.833,303.333 282.167,311.667 290.5,320C 255.871,336.008 225.371,330.175 199,302.5C 180.235,276.901 177.401,249.568 190.5,220.5 Z"/></g>
<g><path style="opacity:1" fill="#f9faf9" d="M 511.5,242.5 C 511.5,251.167 511.5,259.833 511.5,268.5C 509.08,280.239 504.58,291.239 498,301.5C 485.624,320.048 471.457,337.215 455.5,353C 442.219,359.97 431.719,357.137 424,344.5C 421.703,337.539 422.37,330.873 426,324.5C 440.136,309.37 453.136,293.37 465,276.5C 472.333,262.5 472.333,248.5 465,234.5C 430.639,183.465 385.805,144.632 330.5,118C 290.125,100.61 248.792,97.6102 206.5,109C 191.701,110.703 183.034,104.203 180.5,89.5C 182.458,75.7118 190.458,68.2118 204.5,67C 267.128,53.7923 325.794,63.7923 380.5,97C 433.097,128.93 474.93,171.43 506,224.5C 508.168,230.531 510.001,236.531 511.5,242.5 Z"/></g>
<g><path style="opacity:1" fill="#f9faf9" d="M 271.5,143.5 C 292.503,145.168 311.17,152.668 327.5,166C 347.623,182.727 360.79,203.894 367,229.5C 368.018,249.812 358.518,257.979 338.5,254C 333.288,251.753 329.788,247.92 328,242.5C 320.167,210.667 300.333,190.833 268.5,183C 257.038,176.555 253.538,167.055 258,154.5C 261.213,149.107 265.713,145.441 271.5,143.5 Z"/></g>
</svg>
