<?xml version="1.0" encoding="UTF-8"?>
<svg version="1.1" xmlns="http://www.w3.org/2000/svg" width="512" height="512">
<path d="M0 0 C15.02073071 11.69014284 23.53209479 26.0793934 26 45 C27.10946188 56.46443938 24.6721271 67.32530452 19.37890625 77.44921875 C19.05378052 78.08452515 18.72865479 78.71983154 18.39367676 79.37438965 C17.60189979 80.91940898 16.80182425 82.46017099 16 84 C23.17560089 83.12459545 30.34641361 82.21585228 37.51489258 81.28393555 C39.95337242 80.97091922 42.39284207 80.66551494 44.83325195 80.36791992 C48.34354812 79.9385106 51.84935946 79.48173822 55.35546875 79.01953125 C56.44522507 78.89222122 57.53498138 78.76491119 58.65776062 78.63374329 C63.39302671 77.98531639 66.25165067 77.59063564 70.06176758 74.58349609 C70.70138428 73.73094238 71.34100098 72.87838867 72 72 C72.48275391 71.4222583 72.96550781 70.8445166 73.46289062 70.24926758 C73.85669922 69.71970459 74.25050781 69.1901416 74.65625 68.64453125 C75.11443115 68.03174316 75.5726123 67.41895508 76.04467773 66.78759766 C76.52493408 66.13581543 77.00519043 65.4840332 77.5 64.8125 C78.01699463 64.11688965 78.53398926 63.4212793 79.06665039 62.70458984 C85.69597099 53.75724835 92.18809448 44.70949922 98.67773438 35.66064453 C101.93595185 31.11862883 105.20380655 26.58402718 108.49511719 22.06591797 C109.46957014 20.72817934 110.441728 19.38876461 111.41113281 18.04736328 C119.0122646 7.57169181 125.99571462 0.02583372 139 -3 C149.4709547 -4.24988253 158.618254 -2.27669325 167.3125 3.75 C175.3409241 10.33363612 180.14692657 18.85333386 181.3828125 29.20703125 C181.90803693 43.96583761 175.08075801 53.37383802 166.66748047 64.73974609 C165.03245251 66.95601093 163.42056031 69.18709293 161.81640625 71.42578125 C155.69710449 79.9634897 149.48528079 88.43138582 143.24194336 96.87866211 C139.18636886 102.37172689 135.17674715 107.89613056 131.1875 113.4375 C129.60619683 115.62617862 128.02402015 117.81422215 126.44140625 120.00195312 C125.52156734 121.27701438 124.60459748 122.55415368 123.69140625 123.83398438 C114.98478428 136.03160014 107.36839583 143.46105001 92.23945618 146.14465332 C88.70725157 146.72284072 85.16761578 147.24026537 81.625 147.75 C80.16260221 147.97161475 78.70036085 148.19426437 77.23828125 148.41796875 C66.72310697 150 66.72310697 150 62 150 C62.41660889 150.88333008 62.83321777 151.76666016 63.26245117 152.67675781 C70.62465125 168.28994005 77.97805148 183.90703519 85.25 199.5625 C85.77360107 200.68881836 86.29720215 201.81513672 86.83666992 202.97558594 C88.23052878 205.98097288 89.6177468 208.98926014 91 212 C91.41056641 212.89058105 91.82113281 213.78116211 92.24414062 214.69873047 C92.61216797 215.50842285 92.98019531 216.31811523 93.359375 217.15234375 C93.67874023 217.85222412 93.99810547 218.55210449 94.32714844 219.27319336 C95 221 95 221 95 223 C96.10923828 222.54560547 97.21847656 222.09121094 98.36132812 221.62304688 C102.50056145 219.93173504 106.64704498 218.25886636 110.79589844 216.59130859 C112.58632288 215.86873752 114.37477626 215.14126148 116.16113281 214.40869141 C118.73773525 213.35305997 121.32104573 212.31560704 123.90625 211.28125 C124.69616333 210.95314331 125.48607666 210.62503662 126.29992676 210.2869873 C131.44578032 208.25411473 135.46034769 207.50618983 141 208 C143.8100346 209.79363911 145.50940468 211.01880935 147 214 C147.2734375 215.98828125 147.2734375 215.98828125 147.375 218.3125 C147.42398437 219.07175781 147.47296875 219.83101562 147.5234375 220.61328125 C146.72188628 224.26811555 144.83220597 225.58194164 142 228 C139.0313469 229.57353559 135.94430641 230.75324461 132.8046875 231.94140625 C131.88489105 232.30173447 130.9650946 232.66206268 130.01742554 233.03330994 C126.97459268 234.22204162 123.92494353 235.3921467 120.875 236.5625 C118.73224775 237.39585185 116.59000332 238.23051047 114.44824219 239.06640625 C109.9422634 240.82304836 105.43361727 242.57258228 100.92285156 244.31689453 C94.09394933 246.95985555 87.27596169 249.63007918 80.4609375 252.30859375 C79.35906097 252.74166336 78.25718445 253.17473297 77.12191772 253.6209259 C74.91999363 254.48638501 72.71807908 255.35186841 70.51617432 256.21737671 C66.21708801 257.90562347 61.91598533 259.58869624 57.61483765 261.27168274 C49.62657591 264.39741314 41.64212267 267.53171755 33.671875 270.703125 C32.33173379 271.23509673 30.99156589 271.76700126 29.65136719 272.29882812 C27.30655701 273.23073182 24.96331352 274.16659272 22.62207031 275.10742188 C21.63303711 275.49994141 20.64400391 275.89246094 19.625 276.296875 C18.37589844 276.79719238 18.37589844 276.79719238 17.1015625 277.30761719 C15 278 15 278 12 278 C17.24890791 289.75755373 25.10564394 297.20783269 37.0234375 302.2890625 C50.85053599 307.22985091 64.00468821 306.83969084 77.5 300.77734375 C84.79971698 297.07045622 91.84668441 292.91801853 98.91601562 288.79345703 C103.9191584 285.88393464 108.94413225 283.01260576 113.96966553 280.14199829 C115.75373002 279.12286926 117.53726557 278.10281862 119.32080078 277.08276367 C128.35484044 271.91984985 137.41618753 266.80653855 146.51464844 261.7578125 C150.83773276 259.35563127 155.14080585 256.94663327 159.3515625 254.3515625 C159.98271973 253.96806641 160.61387695 253.58457031 161.26416016 253.18945312 C162.83180331 252.22814171 164.38556484 251.24428192 165.9375 250.2578125 C174.68621666 246.66458958 184.04010053 250.28484788 192.69921875 252.65625 C194.1388013 253.04163026 195.57865259 253.42600786 197.01875305 253.80944824 C200.81238726 254.82237429 204.60229716 255.84859576 208.39154053 256.87780762 C212.1358848 257.89250431 215.88349269 258.89497287 219.63085938 259.8984375 C221.11363926 260.29622218 222.59639685 260.69408993 224.07913208 261.09204102 C226.29426339 261.68653531 228.50949149 262.28065402 230.72506332 262.87350464 C237.98624445 264.81671198 245.2422275 266.77002578 252.46732235 268.84403229 C255.20852884 269.62905333 257.95385653 270.39901207 260.69974709 271.16746521 C262.58374041 271.70151772 264.46141931 272.25769201 266.33879089 272.8145752 C272.86225392 274.63279456 278.62812006 276.00721181 285 273 C288.6215159 269.86319739 290.88078424 266.54980494 291.25 261.75 C290.97307391 257.59610869 290.30173912 255.45260869 288 252 C282.4089206 247.2593997 275.6948674 246.01359874 268.71875 244.21484375 C267.41859567 243.87018699 266.11875466 243.52434637 264.81921387 243.17738342 C261.41110263 242.26991328 257.99991198 241.37468801 254.58758545 240.48321533 C249.12659217 239.05565807 243.66915045 237.61489614 238.21437073 236.16378975 C236.31827045 235.66213826 234.41983225 235.16935023 232.5213623 234.67674255 C231.35995728 234.36954788 230.19855225 234.06235321 229.00195312 233.74584961 C227.47689148 233.34758217 227.47689148 233.34758217 225.92102051 232.94126892 C221.72140142 231.58798471 218.06435755 230.16735989 215.0625 226.875 C213.52307125 222.70948691 213.74240662 219.2394343 215 215 C216.9375 212.4375 216.9375 212.4375 220 211 C228.15349996 209.95693061 235.73911949 212.16709932 243.53125 214.32421875 C244.80295044 214.6674971 246.07465088 215.01077545 247.3848877 215.36445618 C250.06306657 216.08866908 252.73863772 216.82164571 255.41259766 217.5612793 C258.81048195 218.500536 262.21358121 219.41893769 265.6188736 220.33092022 C268.90510751 221.21381998 272.18669007 222.11342522 275.46875 223.01171875 C276.67631958 223.33589279 277.88388916 223.66006683 279.12805176 223.99406433 C290.88490807 227.27022126 301.48006001 231.39152216 308.3125 242.046875 C313.31290968 251.5329463 314.59991187 261.68900284 311.9375 272.125 C308.63559524 281.67748727 302.80543146 288.22578043 294 293 C292.906875 293.598125 291.81375 294.19625 290.6875 294.8125 C281.86984903 297.65208252 274.46660091 297.14378111 265.578125 295.0390625 C264.63672165 294.82037506 263.6953183 294.60168762 262.72538757 294.37637329 C249.37913755 291.21631611 236.15628011 287.56028943 222.92614746 283.95098877 C219.38070646 282.98482282 215.83383823 282.02392528 212.28710938 281.0625 C207.08495382 279.6516344 201.88347392 278.23832293 196.68286133 276.82177734 C195.55514313 276.51487976 194.42742493 276.20798218 193.26553345 275.89178467 C191.10637487 275.30213996 188.94813026 274.70913712 186.79086304 274.11260986 C185.31790268 273.70616241 185.31790268 273.70616241 183.81518555 273.29150391 C182.95757126 273.05348053 182.09995697 272.81545715 181.21635437 272.57022095 C175.81996076 271.18184339 172.92819791 271.87464959 168.125 274.5 C166.74270033 275.32116812 165.36512604 276.15058824 164 277 C165.63119957 282.13675889 168.7645503 286.04162489 171.9375 290.3125 C173.12388864 291.93119861 174.30875859 293.55101128 175.4921875 295.171875 C176.38115723 296.38907227 176.38115723 296.38907227 177.28808594 297.63085938 C179.77191893 301.06826887 182.17426733 304.55826665 184.5625 308.0625 C188.26803959 313.49062563 192.01502734 318.88574229 195.8125 324.25 C202.04424311 333.05430307 208.2362228 341.885882 214.41064453 350.73046875 C215.84862643 352.78384505 217.29520371 354.83073521 218.74609375 356.875 C227.66573372 369.49389108 231.31830597 379.48206596 230 395 C229.18615949 398.45998481 227.96902069 401.05869891 226 404 C225.56429688 404.69222656 225.12859375 405.38445312 224.6796875 406.09765625 C220.00636685 412.92887633 213.78512188 418.2006233 205.74609375 420.52734375 C195.86915096 422.22735808 185.8470227 422.08743801 177 417 C176.31808594 416.61070312 175.63617188 416.22140625 174.93359375 415.8203125 C168.46540153 411.54193878 164.36852373 405.27120622 160 399 C159.42717285 398.18257324 158.8543457 397.36514648 158.26416016 396.52294922 C154.16532135 390.67002219 150.09330991 384.7987929 146.02685547 378.92333984 C142.9900605 374.54336118 139.93391137 370.17704956 136.875 365.8125 C136.30563721 364.99974609 135.73627441 364.18699219 135.1496582 363.34960938 C134.00580736 361.71688204 132.86184631 360.08423192 131.71777344 358.45166016 C129.98047369 355.97213143 128.2439862 353.49203605 126.5078125 351.01171875 C125.92813721 350.18365723 125.34846191 349.3555957 124.7512207 348.50244141 C123.59306709 346.84747493 122.43534504 345.19220636 121.27807617 343.53662109 C118.21103459 339.15042651 115.1339414 334.77171428 112.04296875 330.40234375 C111.39779297 329.48775391 110.75261719 328.57316406 110.08789062 327.63085938 C108.84610661 325.87092087 107.60143537 324.11301505 106.35351562 322.35742188 C105.79728516 321.56787109 105.24105469 320.77832031 104.66796875 319.96484375 C103.92969849 318.92251587 103.92969849 318.92251587 103.17651367 317.85913086 C102 316 102 316 101 313 C100.25447876 313.42297363 100.25447876 313.42297363 99.49389648 313.85449219 C79.12294236 325.29690046 59.4420123 331.0157676 36 325.5 C15.36080261 318.91010105 1.04292051 306.03215139 -9.0680542 286.98834229 C-11.59035542 282.0105272 -13.92179525 276.94564993 -16.25 271.875 C-16.98738828 270.28864711 -17.72568404 268.70271576 -18.46484375 267.1171875 C-19.94899839 263.92933589 -21.42739781 260.73892257 -22.90039062 257.54589844 C-24.8121206 253.40250652 -26.73898936 249.26636909 -28.671875 245.1328125 C-34.89709496 231.80691127 -41.01062844 218.43352588 -47 205 C-50.61375815 208.31468851 -53.15672264 211.98532067 -55.8125 216.0625 C-56.21275391 216.66771484 -56.61300781 217.27292969 -57.02539062 217.89648438 C-57.8807166 219.19491486 -58.70907891 220.51138417 -59.51416016 221.84155273 C-61 224 -61 224 -63.20068359 226.12915039 C-65.93264145 229.14089442 -67.09311849 231.00190575 -68 235 C-66.63059173 243.19046881 -62.46513959 250.84687621 -59 258.3125 C-58.07614479 260.38663598 -57.15683078 262.46280096 -56.2421875 264.54101562 C-54.42200503 268.66427867 -52.58169054 272.77760463 -50.7265625 276.88525391 C-48.00886649 282.93868932 -45.40843295 289.03530383 -42.875 295.16796875 C-42.49666016 296.07162674 -42.11832031 296.97528473 -41.72851562 297.90632629 C-37.68128836 307.79705587 -36.47818473 317.74079899 -40 328 C-44.18395645 337.11960677 -50.61587811 344.33703174 -59.875 348.4375 C-70.07298921 351.98943123 -80.34529969 351.77362668 -90.1875 347.25 C-101.6778253 340.9152935 -106.643351 330.58863805 -111.43359375 318.7890625 C-111.82882736 317.83433044 -112.22406097 316.87959839 -112.63127136 315.89593506 C-113.90743688 312.80862455 -115.17255939 309.71692434 -116.4375 306.625 C-117.32067384 304.48226381 -118.20463334 302.33985128 -119.08935547 300.19775391 C-120.87356391 295.87601811 -122.6540709 291.55278516 -124.43212891 287.22851562 C-126.79316308 281.4930111 -129.17773731 275.76764669 -131.57421875 270.046875 C-131.92356979 269.21235809 -132.27292084 268.37784119 -132.63285828 267.51803589 C-133.94772746 264.37774379 -135.26294136 261.23759942 -136.58053589 258.09844971 C-137.46455751 255.99094776 -138.34586381 253.88232976 -139.2265625 251.7734375 C-139.96253662 250.01652588 -139.96253662 250.01652588 -140.71337891 248.22412109 C-144.85868054 237.83648289 -146.04836854 228.91712472 -143 218 C-139.61683304 210.6846122 -134.80763066 204.11295081 -130.25 197.5 C-129.11290916 195.83915823 -127.97582439 194.17831226 -126.83911133 192.51721191 C-125.66669828 190.80493957 -124.49264569 189.09380054 -123.31835938 187.3828125 C-120.39857529 183.12588549 -117.4971864 178.85650417 -114.59667969 174.58642578 C-113.19746547 172.52670686 -111.79707199 170.46778855 -110.39550781 168.40966797 C-107.12033726 163.59978124 -103.85168262 158.78588532 -100.60827637 153.95452881 C-99.47428499 152.26605391 -98.33806005 150.57910362 -97.20117188 148.89257812 C-95.78659797 146.7926827 -94.3760917 144.69003828 -92.97070312 142.58398438 C-83.54063897 128.61178823 -73.21976167 116.23245486 -59 107 C-61.96300503 104.69467132 -65.03464727 102.746305 -68.25 100.8125 C-82.21985475 91.91414837 -90.3922919 78.6214107 -94.609375 62.69921875 C-97.05068164 45.82978987 -94.72785723 29.62051352 -84.875 15.45703125 C-64.53799118 -11.19292406 -28.57563884 -19.10703934 0 0 Z M-65.74609375 25.0625 C-72.78581225 34.89352833 -75.30384704 44.98310048 -74 57 C-71.67034697 68.44149119 -65.74494319 76.67439525 -56.375 83.49609375 C-46.94728704 89.46594489 -36.72987355 91.30262436 -25.8125 88.875 C-15.11179118 85.75395993 -6.52197335 80.00850857 -0.39453125 70.51171875 C5.25837228 59.85243145 6.4671708 49.37054821 3.0390625 37.8046875 C-1.42828109 25.74621872 -8.83465833 18.6352218 -20.23046875 13.1640625 C-36.13730589 6.47825507 -54.79775966 12.1302396 -65.74609375 25.0625 Z M130.53735352 27.44360352 C128.79698348 29.92147139 127.09834167 32.4261526 125.40673828 34.9375 C122.92718353 38.57291801 120.3338443 42.12583806 117.75 45.6875 C117.20512939 46.44184326 116.66025879 47.19618652 116.09887695 47.97338867 C112.09855606 53.50651559 108.05639174 59.00789689 104 64.5 C99.2127353 70.98802999 94.43278096 77.48117687 89.6875 84 C89.12998047 84.75990234 88.57246094 85.51980469 87.99804688 86.30273438 C87.23137695 87.35944336 87.23137695 87.35944336 86.44921875 88.4375 C85.99893311 89.05496094 85.54864746 89.67242187 85.0847168 90.30859375 C83.82138314 92.12594654 83.82138314 92.12594654 83 95 C73.4522016 98.26540805 62.61534699 99.02528177 52.6375618 100.38671494 C49.96797371 100.75191239 47.29961232 101.12512971 44.63143921 101.5005188 C37.05570325 102.56558744 29.47878968 103.62177539 21.89941406 104.66064453 C17.23259925 105.30087954 12.56781866 105.95453217 7.90400314 106.61624527 C6.14837679 106.8627546 4.39206062 107.1044105 2.63502884 107.34069443 C-11.77458176 109.28072122 -25.96481598 112.09842204 -38.8125 119.25 C-39.87029663 119.82741943 -39.87029663 119.82741943 -40.94946289 120.41650391 C-47.23125179 123.94682476 -52.7661364 128.03240609 -58 133 C-58.77988281 133.73863281 -59.55976562 134.47726563 -60.36328125 135.23828125 C-68.4461345 143.53279678 -74.5648549 153.34017907 -80.95849609 162.94384766 C-84.39621352 168.090146 -87.88912438 173.19875976 -91.375 178.3125 C-92.79587544 180.40213807 -94.21644591 182.49198355 -95.63671875 184.58203125 C-98.24940026 188.42567064 -100.86301877 192.26866828 -103.47814941 196.11064148 C-104.63546355 197.81089704 -105.79260782 199.51126809 -106.94970703 201.21166992 C-108.39697199 203.33835678 -109.84454243 205.4648358 -111.29248047 207.59106445 C-112.59673506 209.50797171 -113.89458847 211.42925476 -115.18505859 213.35546875 C-116.35209922 215.05595086 -117.5609531 216.72886255 -118.81884766 218.36328125 C-119.36976074 219.09933594 -119.92067383 219.83539063 -120.48828125 220.59375 C-120.97466064 221.20927734 -121.46104004 221.82480469 -121.9621582 222.45898438 C-124.6575659 229.05832648 -123.16848343 235.7313021 -120.53733826 242.09912109 C-120.17568069 242.9236377 -119.81402313 243.7481543 -119.44140625 244.59765625 C-119.06552872 245.49427979 -118.68965118 246.39090332 -118.30238342 247.31469727 C-117.07247418 250.23803164 -115.81802894 253.1500884 -114.5625 256.0625 C-113.70000476 258.09557131 -112.83918603 260.1293546 -111.97998047 262.16381836 C-110.65508618 265.29894276 -109.3283637 268.43319731 -107.99438477 271.56446838 C-104.9682181 278.67139885 -102.02344172 285.80729099 -99.12890625 292.96875 C-98.3621366 294.85678646 -97.595133 296.74472792 -96.82788086 298.63256836 C-95.73255637 301.32779828 -94.64039117 304.02403463 -93.55960083 306.72512817 C-92.56434582 309.20836389 -91.55352982 311.68471958 -90.5390625 314.16015625 C-90.25329849 314.88517334 -89.96753448 315.61019043 -89.67311096 316.35717773 C-87.27257296 322.1468913 -84.18256449 325.72340568 -78.6875 328.9375 C-74.09024215 330.26213362 -71.32517289 329.93009744 -67 328 C-63.59008019 325.9826523 -61.38844697 323.76000494 -59.5625 320.1875 C-58.29389049 312.99871279 -60.48554655 307.05838568 -63.359375 300.59375 C-63.70051834 299.80327271 -64.04166168 299.01279541 -64.3931427 298.19836426 C-65.12464221 296.50569269 -65.86059222 294.81493859 -66.60061646 293.12597656 C-68.15664654 289.57094173 -69.686603 286.00489384 -71.21803284 282.43920898 C-72.38718755 279.71765872 -73.55948173 276.99747493 -74.73193359 274.27734375 C-77.76923264 267.21914726 -80.77638139 260.14932359 -83.71179199 253.0480957 C-84.27365467 251.69540062 -84.84086254 250.34491191 -85.41369629 248.99682617 C-91.31968686 235.08897377 -91.31968686 235.08897377 -90 229 C-87.64651017 224.76478358 -84.8511243 220.91128965 -82 217 C-80.6216063 214.97891768 -79.25043025 212.95289294 -77.88671875 210.921875 C-74.2778499 205.61331798 -70.66347268 200.30850993 -67.04736328 195.00488281 C-65.21475134 192.31518716 -63.38612587 189.62283547 -61.55859375 186.9296875 C-60.58095993 185.49463443 -59.60311423 184.05972567 -58.625 182.625 C-58.19147217 181.98401367 -57.75794434 181.34302734 -57.3112793 180.68261719 C-52.2891944 173.34054192 -52.2891944 173.34054192 -47.6875 172.125 C-43.37486215 171.97880889 -41.63125017 172.73387023 -38 175 C-36.27172852 177.47900391 -36.27172852 177.47900391 -34.87890625 180.4765625 C-34.34370361 181.60562012 -33.80850098 182.73467773 -33.25708008 183.89794922 C-32.69178385 185.14010106 -32.12693683 186.38245741 -31.5625 187.625 C-30.95811423 188.91882852 -30.35220626 190.21194694 -29.74487305 191.50439453 C-27.80224719 195.65708376 -25.89926783 199.82734442 -24 204 C-23.3562693 205.40957349 -22.71238938 206.81907885 -22.06835938 208.22851562 C-19.51151891 213.82926964 -16.96185957 219.43321165 -14.4296875 225.04516602 C-9.13046371 236.78319704 -3.63043607 248.41672706 2 260 C18.51563493 253.81006379 34.97027781 247.4780876 51.375 241 C52.20259827 240.67353485 53.03019653 240.3470697 53.88287354 240.01071167 C56.26362104 239.07104873 58.64368224 238.12967271 61.0234375 237.1875 C61.72656067 236.90975235 62.42968384 236.6320047 63.15411377 236.34584045 C67.46811467 234.63384702 71.7413862 232.84560715 76 231 C70.68403497 218.90695675 65.10165414 206.9524454 59.42245483 195.02694702 C56.30438682 188.47290912 53.20447406 181.91026717 50.10760498 175.34619141 C49.38313593 173.81158016 48.657789 172.27738297 47.93145752 170.74365234 C45.99162136 166.64670375 44.06830837 162.54296406 42.1739502 158.42477417 C41.33439285 156.60982775 40.4774731 154.80294462 39.62011719 152.99633789 C35.0594757 142.99351809 35.0594757 142.99351809 37 137 C39.1812657 133.63721538 41.28753052 132.78501613 45.05834961 131.97998047 C49.86824408 130.9736638 54.69621825 130.27234504 59.56640625 129.6328125 C61.36922698 129.38474133 63.17195888 129.13602393 64.97460938 128.88671875 C67.77353515 128.50304854 70.57278378 128.12364788 73.3737793 127.75537109 C76.10658308 127.39406003 78.83642952 127.0148253 81.56640625 126.6328125 C82.39370743 126.52848907 83.22100861 126.42416565 84.07337952 126.31668091 C90.88169356 125.34114913 96.66008024 123.42361829 101.51171875 118.3984375 C102.22972656 117.40070313 102.94773437 116.40296875 103.6875 115.375 C104.09701904 114.81578857 104.50653809 114.25657715 104.9284668 113.68041992 C106.30133151 111.79780169 107.64991014 109.89900183 109 108 C110.02181733 106.59127131 111.04531393 105.18375945 112.0703125 103.77734375 C114.83859063 99.9707507 117.58764052 96.15071095 120.33105469 92.32617188 C123.02767638 88.56762718 125.7312616 84.81412481 128.4375 81.0625 C129.23438232 79.95757202 129.23438232 79.95757202 130.04736328 78.83032227 C134.0594032 73.27774102 138.11673227 67.75962118 142.1875 62.25 C146.41885925 56.5166429 150.64462247 50.77974271 154.8125 45 C155.43451294 44.14583496 155.43451294 44.14583496 156.0690918 43.27441406 C159.54733315 38.42383076 160.49899898 34.98798773 160 29 C158.29153969 24.07016573 155.52957069 20.95330055 150.8515625 18.6640625 C141.88119372 15.44684163 135.62031352 20.48857818 130.53735352 27.44360352 Z M137.65234375 291.0625 C136.57275391 291.69414062 135.49316406 292.32578125 134.38085938 292.9765625 C133.24455078 293.64429688 132.10824219 294.31203125 130.9375 295 C129.78592339 295.67467738 128.63423216 296.34915914 127.48242188 297.0234375 C124.65381074 298.68036452 121.82639988 300.33930473 119 302 C121.8342289 307.14286136 124.95144718 311.92080856 128.375 316.6875 C129.4483444 318.19500805 130.52124279 319.70283373 131.59375 321.2109375 C132.15191406 321.99436523 132.71007812 322.77779297 133.28515625 323.58496094 C136.16904362 327.6463809 139.02153685 331.72967448 141.875 335.8125 C143.05988268 337.50651962 144.24477861 339.20052997 145.4296875 340.89453125 C146.01975586 341.73838379 146.60982422 342.58223633 147.21777344 343.45166016 C148.98049831 345.97211525 150.74398484 348.49203529 152.5078125 351.01171875 C153.0845874 351.83567139 153.6613623 352.65962402 154.25561523 353.50854492 C155.41636654 355.16641295 156.57733579 356.82412839 157.73852539 358.48168945 C160.72380727 362.74392723 163.70401206 367.00957753 166.67578125 371.28125 C174.31469601 382.26401151 174.31469601 382.26401151 182.125 393.125 C182.78757812 394.03507812 183.45015625 394.94515625 184.1328125 395.8828125 C186.67377864 398.76399168 188.58172161 399.79872617 192.3671875 400.3359375 C198.09465733 400.42515043 201.56447399 400.00279176 206 396 C209.27232388 392.29136627 209.70674276 388.51603153 209.5234375 383.71484375 C208.48438327 378.32571917 205.1840484 374.35853664 202 370 C201.09227663 368.70897823 200.18750508 367.41587771 199.28515625 366.12109375 C196.73373036 362.46937078 194.15640114 358.83677342 191.57177734 355.20849609 C189.08042764 351.70791371 186.6024102 348.19795519 184.125 344.6875 C183.38866333 343.64468872 183.38866333 343.64468872 182.63745117 342.58081055 C178.78753901 337.12505932 174.95353079 331.6582718 171.125 326.1875 C170.54572754 325.35984131 169.96645508 324.53218262 169.36962891 323.67944336 C166.31320052 319.31088629 163.26026255 314.93992459 160.2109375 310.56640625 C159.27870361 309.23089722 159.27870361 309.23089722 158.32763672 307.8684082 C157.14840754 306.17895683 155.97026662 304.48874509 154.79345703 302.79760742 C149.59827751 295.24749014 149.59827751 295.24749014 144 288 C141.82453757 288 139.43544413 290.01691234 137.65234375 291.0625 Z " fill="#FFFFFF" transform="translate(185,70)"/>
<path d="M0 0 C2.41796875 0.43359375 2.41796875 0.43359375 5.54296875 2.30859375 C8.21959089 6.76963065 8.49736289 10.36277094 7.41796875 15.43359375 C5.85671821 18.55041755 3.79796374 20.90580464 1.41796875 23.43359375 C0.82628906 24.11421875 0.23460937 24.79484375 -0.375 25.49609375 C-8.31868895 34.14406852 -19.78513976 40.25459159 -31.6328125 40.8671875 C-33.38656763 40.89024805 -35.14073789 40.89103601 -36.89453125 40.87109375 C-37.81371338 40.8649707 -38.73289551 40.85884766 -39.67993164 40.85253906 C-49.17504524 40.63489562 -58.16955471 38.67567926 -65.58203125 32.43359375 C-68.16712025 29.02597644 -67.87906107 25.59201117 -67.58203125 21.43359375 C-66.71697381 18.60249666 -65.7494662 17.58073355 -63.51953125 15.62109375 C-59.32915972 13.92711377 -55.93016106 14.4073743 -51.58203125 15.43359375 C-50.55078125 15.94921875 -49.51953125 16.46484375 -48.45703125 16.99609375 C-41.96933533 20.03578345 -33.41474867 19.49709577 -26.66796875 17.625 C-21.0042914 15.09124961 -17.25950173 11.39082879 -13.37109375 6.6171875 C-9.02237853 1.30947613 -6.93180015 -0.33788686 0 0 Z " fill="#FFFFFF" transform="translate(504.58203125,375.56640625)"/>
<path d="M0 0 C3.59394332 3.06982659 4.79679106 5.07774403 5.8125 9.6875 C5.52391094 14.87215177 2.11474865 18.4153072 -1.0546875 22.2890625 C-5.98132908 29.15470358 -5.73228452 36.86248822 -5 45 C-3.64475715 50.18226387 -1.10330634 53.95430242 2.25 58.0625 C4.45767858 60.8555479 5.42050199 62.66596471 5.5 66.25 C4.75362319 71.84782609 4.75362319 71.84782609 3 74 C-0.78494956 76.61341755 -4.22132863 77.77414547 -8.8515625 76.94921875 C-16.4948119 73.5722922 -20.92266837 65.07154675 -24.02734375 57.73828125 C-28.39399173 45.44502731 -29.21153541 30.90576165 -24.26171875 18.609375 C-19.45474603 8.66801965 -12.90346769 -3.94752358 0 0 Z " fill="#FFFFFF" transform="translate(27,258)"/>
<path d="M0 0 C12.74207835 2.59419559 24.54641204 9.97868105 31.875 20.7578125 C38.39820341 31.38519805 42.18747034 42.40765428 40 55 C37.69723404 58.02035325 36.20111316 59.68095432 32.5 60.6640625 C31.675 60.65117188 30.85 60.63828125 30 60.625 C29.175 60.63789062 28.35 60.65078125 27.5 60.6640625 C23.81200537 59.68443893 22.33346244 57.98075853 20 55 C19.03125 51.546875 19.03125 51.546875 18.5 47.75 C16.78855738 37.60446962 13.65602392 31.39789243 5.1796875 25.3671875 C1.54817252 23.08935552 -1.62413732 22.18044101 -5.859375 21.625 C-14.21360697 20.48393417 -14.21360697 20.48393417 -18.25 18 C-20.39109367 14.32955371 -20.59866039 11.685735 -20.6640625 7.5 C-18.01341513 -2.47890776 -8.12033409 -0.85818087 0 0 Z " fill="#FFFFFF" transform="translate(361,21)"/>
<path d="M0 0 C3.67552256 1.99756661 4.77375004 3.50036467 6.5 7.3125 C7.12392742 11.91396471 6.36380554 14.03490684 4 18 C1.29013532 20.27042717 -0.45183064 20.91835776 -3.9375 21.4375 C-7.8124426 20.88393677 -9.95425348 19.40826469 -13 17 C-14.72869779 13.54260443 -14.48966895 9.78024432 -14 6 C-10.36346592 0.18154547 -6.71004518 -0.90154158 0 0 Z " fill="#FFFFFF" transform="translate(370,269)"/>
</svg>
