<?xml version="1.0" encoding="UTF-8"?>
<!DOCTYPE svg PUBLIC "-//W3C//DTD SVG 1.1//EN" "http://www.w3.org/Graphics/SVG/1.1/DTD/svg11.dtd">
<svg xmlns="http://www.w3.org/2000/svg" version="1.1" width="512px" height="512px" style="shape-rendering:geometricPrecision; text-rendering:geometricPrecision; image-rendering:optimizeQuality; fill-rule:evenodd; clip-rule:evenodd" xmlns:xlink="http://www.w3.org/1999/xlink">
<g><path style="opacity:1" fill="#f9faf9" d="M 233.5,-0.5 C 248.5,-0.5 263.5,-0.5 278.5,-0.5C 308.599,2.56891 337.432,10.5689 365,23.5C 365.333,17.1667 365.667,10.8333 366,4.5C 367.366,2.63834 368.866,0.971672 370.5,-0.5C 373.833,-0.5 377.167,-0.5 380.5,-0.5C 383.799,1.98018 385.632,5.31351 386,9.5C 386.168,18.1858 386.668,26.8525 387.5,35.5C 393.337,38.9175 399.004,42.5842 404.5,46.5C 403.888,38.3628 407.555,33.6961 415.5,32.5C 422.261,33.0932 425.761,36.7599 426,43.5C 426.333,50.5 426.667,57.5 427,64.5C 476.175,109.849 504.342,165.849 511.5,232.5C 511.5,247.833 511.5,263.167 511.5,278.5C 501.026,367.433 457.36,434.6 380.5,480C 348.466,497.292 314.466,507.792 278.5,511.5C 263.167,511.5 247.833,511.5 232.5,511.5C 143.853,500.61 76.6868,456.943 31,380.5C 13.7076,348.465 3.20759,314.465 -0.5,278.5C -0.5,263.167 -0.5,247.833 -0.5,232.5C 3.95828,187.124 19.2916,145.791 45.5,108.5C 50.89,104.464 56.0567,104.798 61,109.5C 63.6355,113.351 63.9688,117.351 62,121.5C 22.0744,181.382 10.741,246.382 28,316.5C 53.0691,398.569 106.236,453.402 187.5,481C 271.343,503.285 346.343,486.618 412.5,431C 479.39,366.983 503.223,289.483 484,198.5C 473.728,158.272 454.395,123.272 426,93.5C 424.836,99.16 421.336,102.16 415.5,102.5C 411.232,102.122 408.065,100.122 406,96.5C 405.831,88.8117 405.331,81.1451 404.5,73.5C 398.423,68.7119 392.256,64.0452 386,59.5C 385.667,83.1667 385.333,106.833 385,130.5C 380.389,135.916 374.889,136.916 368.5,133.5C 367.667,132.5 366.833,131.5 366,130.5C 365.667,102.833 365.333,75.1667 365,47.5C 310.645,19.3514 253.811,12.8514 194.5,28C 168.219,35.3089 143.886,46.6423 121.5,62C 112.946,64.7229 107.612,61.7229 105.5,53C 105.82,50.2005 106.82,47.7005 108.5,45.5C 146.084,19.0831 187.75,3.74978 233.5,-0.5 Z M 174.5,175.5 C 201.063,179.626 212.229,194.959 208,221.5C 199.233,247.267 182.066,264.767 156.5,274C 141.21,277.056 132.044,270.889 129,255.5C 125.921,231.813 131.588,210.48 146,191.5C 153.636,182.605 163.136,177.271 174.5,175.5 Z M 334.5,175.5 C 348.816,176.908 359.983,183.574 368,195.5C 381.046,214.731 385.379,235.731 381,258.5C 377.115,272.028 368.282,277.195 354.5,274C 331.24,265.741 314.74,250.241 305,227.5C 296.699,204.962 303.199,188.462 324.5,178C 327.952,177.115 331.286,176.282 334.5,175.5 Z M 243.5,322.5 C 251.507,322.334 259.507,322.5 267.5,323C 277.882,326.048 284.049,332.881 286,343.5C 286.667,359.5 286.667,375.5 286,391.5C 265.667,384.833 245.333,384.833 225,391.5C 224.057,374.114 224.39,356.78 226,339.5C 229.084,330.915 234.917,325.248 243.5,322.5 Z M 245.5,407.5 C 258.94,406.321 271.94,408.154 284.5,413C 284.957,413.414 285.291,413.914 285.5,414.5C 279.392,431.389 267.392,438.889 249.5,437C 237.474,433.808 229.474,426.308 225.5,414.5C 225.709,413.914 226.043,413.414 226.5,413C 232.828,410.673 239.162,408.84 245.5,407.5 Z"/></g>
<g><path style="opacity:1" fill="#f9faf9" d="M 332.5,66.5 C 337.948,65.975 342.115,67.975 345,72.5C 345.667,91.8333 345.667,111.167 345,130.5C 341.345,135.275 336.512,136.775 330.5,135C 328.667,133.833 327.167,132.333 326,130.5C 325.333,111.167 325.333,91.8333 326,72.5C 327.494,69.6865 329.66,67.6865 332.5,66.5 Z"/></g>
<g><path style="opacity:1" fill="#f9faf9" d="M 76.5,71.5 C 85.0257,69.5576 90.359,72.7243 92.5,81C 90.9764,90.4285 85.6431,93.7618 76.5,91C 71.7255,87.3449 70.2255,82.5116 72,76.5C 73.7073,74.9625 75.2073,73.2959 76.5,71.5 Z"/></g>
<g><path style="opacity:1" fill="#f9faf9" d="M 165.5,155.5 C 194.021,152.671 214.521,164.004 227,189.5C 233.17,209.824 230.836,229.158 220,247.5C 208.623,266.878 192.789,281.378 172.5,291C 157.633,297.572 142.966,297.572 128.5,291C 112.978,279.115 105.645,263.282 106.5,243.5C 107.35,219.448 114.85,197.782 129,178.5C 138.792,166.839 150.958,159.172 165.5,155.5 Z M 174.5,175.5 C 163.136,177.271 153.636,182.605 146,191.5C 131.588,210.48 125.921,231.813 129,255.5C 132.044,270.889 141.21,277.056 156.5,274C 182.066,264.767 199.233,247.267 208,221.5C 212.229,194.959 201.063,179.626 174.5,175.5 Z"/></g>
<g><path style="opacity:1" fill="#f9faf9" d="M 325.5,155.5 C 350.619,152.978 370.452,161.978 385,182.5C 403.076,209.29 408.076,238.29 400,269.5C 390.576,290.796 374.409,299.296 351.5,295C 315.93,283.763 292.763,260.263 282,224.5C 276.813,188.84 291.313,165.84 325.5,155.5 Z M 334.5,175.5 C 331.286,176.282 327.952,177.115 324.5,178C 303.199,188.462 296.699,204.962 305,227.5C 314.74,250.241 331.24,265.741 354.5,274C 368.282,277.195 377.115,272.028 381,258.5C 385.379,235.731 381.046,214.731 368,195.5C 359.983,183.574 348.816,176.908 334.5,175.5 Z"/></g>
<g><path style="opacity:1" fill="#f9faf9" d="M 240.5,301.5 C 250.506,301.334 260.506,301.5 270.5,302C 291.319,307.153 303.486,320.32 307,341.5C 307.667,365.167 307.667,388.833 307,412.5C 302.702,437.464 288.202,452.63 263.5,458C 230.475,460.072 210.642,444.905 204,412.5C 203.057,386.798 203.39,361.131 205,335.5C 210.553,317.443 222.387,306.11 240.5,301.5 Z M 243.5,322.5 C 234.917,325.248 229.084,330.915 226,339.5C 224.39,356.78 224.057,374.114 225,391.5C 245.333,384.833 265.667,384.833 286,391.5C 286.667,375.5 286.667,359.5 286,343.5C 284.049,332.881 277.882,326.048 267.5,323C 259.507,322.5 251.507,322.334 243.5,322.5 Z M 245.5,407.5 C 239.162,408.84 232.828,410.673 226.5,413C 226.043,413.414 225.709,413.914 225.5,414.5C 229.474,426.308 237.474,433.808 249.5,437C 267.392,438.889 279.392,431.389 285.5,414.5C 285.291,413.914 284.957,413.414 284.5,413C 271.94,408.154 258.94,406.321 245.5,407.5 Z"/></g>
</svg>
