<?xml version="1.0" encoding="UTF-8"?>
<!DOCTYPE svg PUBLIC "-//W3C//DTD SVG 1.1//EN" "http://www.w3.org/Graphics/SVG/1.1/DTD/svg11.dtd">
<svg xmlns="http://www.w3.org/2000/svg" version="1.1" width="100px" height="100px" style="shape-rendering:geometricPrecision; text-rendering:geometricPrecision; image-rendering:optimizeQuality; fill-rule:evenodd; clip-rule:evenodd" xmlns:xlink="http://www.w3.org/1999/xlink">
<g><path style="opacity:1" fill="#f9faf9" d="M 27.5,5.5 C 29.5,5.5 31.5,5.5 33.5,5.5C 33.6567,6.87344 33.49,8.20677 33,9.5C 23.6667,12.1667 17.6667,18.1667 15,27.5C 12.5237,29.0628 11.0237,28.3962 10.5,25.5C 13.3083,16.3617 18.975,9.69504 27.5,5.5 Z"/></g>
<g><path style="opacity:1" fill="#f9faf9" d="M 54.5,7.5 C 60.4123,6.60868 64.0789,8.94202 65.5,14.5C 72.2932,14.2898 75.9599,17.6231 76.5,24.5C 81.646,26.7404 83.9793,30.7404 83.5,36.5C 88.1065,38.808 89.6065,42.4747 88,47.5C 86.0651,50.5521 84.7318,53.8855 84,57.5C 78.1667,64.6667 71.6667,71.1667 64.5,77C 60.0565,78.9403 55.3899,79.9403 50.5,80C 46.1667,84.3333 41.8333,88.6667 37.5,93C 35.3927,93.8542 34.0593,93.1875 33.5,91C 37.1192,86.3781 41.1192,82.0448 45.5,78C 43.3512,76.8362 41.1846,75.6695 39,74.5C 38.3162,73.2161 38.4829,72.0495 39.5,71C 43.5682,71.3451 47.5682,72.3451 51.5,74C 55.4525,74.9115 59.1191,74.2448 62.5,72C 66.5,68 70.5,64 74.5,60C 67.5457,59.8802 64.2123,56.3802 64.5,49.5C 60.988,48.9954 58.6546,46.9954 57.5,43.5C 54.1282,42.7314 51.2949,41.0648 49,38.5C 50.5309,43.1271 51.6975,47.9604 52.5,53C 52.4581,54.9674 51.9581,56.8008 51,58.5C 48.9154,59.6469 47.4154,58.9803 46.5,56.5C 47.1268,48.2156 44.6268,40.8822 39,34.5C 38.3333,33.1667 38.3333,31.8333 39,30.5C 41.694,29.117 44.5274,28.617 47.5,29C 50.06,31.9706 52.7267,34.8039 55.5,37.5C 56.8333,36.8333 57.8333,35.8333 58.5,34.5C 55.4475,28.8941 51.7808,23.7274 47.5,19C 40.8818,19.0705 34.5485,20.5705 28.5,23.5C 27.4164,24.6651 26.5831,25.9984 26,27.5C 25.6456,36.1919 24.9789,44.8586 24,53.5C 19.1667,58.3333 14.3333,63.1667 9.5,68C 8.20677,68.49 6.87344,68.6567 5.5,68.5C 5.33982,66.8008 5.50649,65.1341 6,63.5C 10.3333,59.1667 14.6667,54.8333 19,50.5C 20.1089,42.5429 20.7756,34.5429 21,26.5C 22.0681,21.7647 24.9014,18.5981 29.5,17C 35.6171,14.6274 41.9504,13.294 48.5,13C 50.3962,10.932 52.3962,9.0987 54.5,7.5 Z M 55.5,12.5 C 61.6634,14.2204 62.1634,17.2204 57,21.5C 55.3804,19.7585 53.8804,17.9252 52.5,16C 53.7101,14.9609 54.7101,13.7942 55.5,12.5 Z M 66.5,19.5 C 68.8184,19.8184 70.1517,21.1517 70.5,23.5C 68.9142,26.7569 66.5809,29.4235 63.5,31.5C 61.9733,29.8067 60.6399,27.9734 59.5,26C 61.7293,23.5997 64.0626,21.433 66.5,19.5 Z M 72.5,29.5 C 77.0685,29.0826 78.5685,31.0826 77,35.5C 74.1667,38.3333 71.3333,41.1667 68.5,44C 63.2652,45.0038 61.7652,43.1704 64,38.5C 67.0379,35.6306 69.8712,32.6306 72.5,29.5 Z M 79.5,40.5 C 83.5893,41.5984 84.4226,43.9318 82,47.5C 79.8333,49.6667 77.6667,51.8333 75.5,54C 71.4943,54.9874 69.661,53.4874 70,49.5C 73.0623,46.2678 76.229,43.2678 79.5,40.5 Z"/></g>
<g><path style="opacity:1" fill="#f9faf9" d="M 88.5,60.5 C 90.9477,60.0847 92.2811,61.0847 92.5,63.5C 87.1781,75.8317 78.1781,83.8317 65.5,87.5C 65.3433,86.1266 65.51,84.7932 66,83.5C 75.7138,77.9534 83.2138,70.2867 88.5,60.5 Z"/></g>
<g><path style="opacity:1" fill="#f9faf9" d="M 89.5,73.5 C 95.1244,73.8641 95.9577,76.1974 92,80.5C 89.1312,83.7041 85.9646,86.5374 82.5,89C 78.6201,90.2512 77.2868,89.0845 78.5,85.5C 83.601,82.7358 87.2677,78.7358 89.5,73.5 Z"/></g>
</svg>
