<?xml version="1.0" encoding="UTF-8"?>
<!DOCTYPE svg PUBLIC "-//W3C//DTD SVG 1.1//EN" "http://www.w3.org/Graphics/SVG/1.1/DTD/svg11.dtd">
<svg xmlns="http://www.w3.org/2000/svg" version="1.1" width="64px" height="64px" style="shape-rendering:geometricPrecision; text-rendering:geometricPrecision; image-rendering:optimizeQuality; fill-rule:evenodd; clip-rule:evenodd" xmlns:xlink="http://www.w3.org/1999/xlink">
<g><path style="opacity:1" fill="#f9faf9" d="M 25.5,2.5 C 29.5,2.5 33.5,2.5 37.5,2.5C 36.8516,7.82833 36.6849,13.1617 37,18.5C 39.6479,20.8196 41.9812,23.4862 44,26.5C 44.6667,37.1667 44.6667,47.8333 44,58.5C 43.5,59 43,59.5 42.5,60C 35.1667,60.6667 27.8333,60.6667 20.5,60C 20,59.5 19.5,59 19,58.5C 18.3333,47.8333 18.3333,37.1667 19,26.5C 21.0188,23.4862 23.3521,20.8196 26,18.5C 26.3151,13.1617 26.1484,7.82833 25.5,2.5 Z M 29.5,19.5 C 30.8333,19.5 32.1667,19.5 33.5,19.5C 33.3505,20.552 33.5172,21.552 34,22.5C 38.4579,24.4387 40.6245,27.772 40.5,32.5C 34.5,32.5 28.5,32.5 22.5,32.5C 22.3755,27.772 24.5421,24.4387 29,22.5C 29.4828,21.552 29.6495,20.552 29.5,19.5 Z M 30.5,35.5 C 32.9893,35.5394 34.4893,36.5394 35,38.5C 32.6667,37.1667 30.3333,37.1667 28,38.5C 27.8333,38.1667 27.6667,37.8333 27.5,37.5C 28.6016,36.8243 29.6016,36.1577 30.5,35.5 Z M 30.5,39.5 C 35.2004,41.2888 35.5337,43.6222 31.5,46.5C 27.8646,44.6778 27.5313,42.3445 30.5,39.5 Z M 27.5,48.5 C 30.2469,48.1866 32.9135,48.52 35.5,49.5C 34.1667,49.8333 32.8333,50.1667 31.5,50.5C 29.6672,50.4146 28.3339,49.7479 27.5,48.5 Z"/></g>
</svg>
