<?xml version="1.0" encoding="UTF-8"?>
<!DOCTYPE svg PUBLIC "-//W3C//DTD SVG 1.1//EN" "http://www.w3.org/Graphics/SVG/1.1/DTD/svg11.dtd">
<svg xmlns="http://www.w3.org/2000/svg" version="1.1" width="512px" height="512px" style="shape-rendering:geometricPrecision; text-rendering:geometricPrecision; image-rendering:optimizeQuality; fill-rule:evenodd; clip-rule:evenodd" xmlns:xlink="http://www.w3.org/1999/xlink">
<g><path style="opacity:1" fill="#f9faf9" d="M 511.5,214.5 C 511.5,215.5 511.5,216.5 511.5,217.5C 509.871,228.978 503.537,236.812 492.5,241C 485.209,242.081 477.876,242.747 470.5,243C 463.5,250 456.5,257 449.5,264C 453.966,284.374 452.966,304.541 446.5,324.5C 453.096,334.491 454.096,344.991 449.5,356C 456.833,363.333 464.167,370.667 471.5,378C 477.833,378.333 484.167,378.667 490.5,379C 502.667,382.328 509.667,390.162 511.5,402.5C 511.5,403.833 511.5,405.167 511.5,406.5C 508.953,421.045 500.286,429.045 485.5,430.5C 482.962,449.205 472.296,457.705 453.5,456C 442.818,453.318 436.151,446.651 433.5,436C 432.766,429.524 432.266,423.024 432,416.5C 424.333,408.833 416.667,401.167 409,393.5C 409.405,404.869 404.571,413.035 394.5,418C 381.733,419.139 368.9,419.639 356,419.5C 343.1,419.639 330.267,419.139 317.5,418C 307.69,412.841 302.857,404.675 303,393.5C 295.333,401.167 287.667,408.833 280,416.5C 281.429,442.835 269.929,460.669 245.5,470C 241.227,471.03 236.894,471.697 232.5,472C 170.833,472.667 109.167,472.667 47.5,472C 19.4469,468.778 3.44685,453.278 -0.5,425.5C -0.5,358.833 -0.5,292.167 -0.5,225.5C 0.578617,214.327 4.74528,204.327 12,195.5C 29.2347,182.466 46.7347,169.799 64.5,157.5C 65.4996,137.178 65.833,116.844 65.5,96.5C 60.2235,97.4404 56.0568,95.7737 53,91.5C 52.3333,79.5 52.3333,67.5 53,55.5C 56.2898,45.5389 63.1231,40.0389 73.5,39C 117.833,38.3333 162.167,38.3333 206.5,39C 216.902,40.0685 223.735,45.5685 227,55.5C 227.667,67.1667 227.667,78.8333 227,90.5C 224.371,95.5639 220.204,97.5639 214.5,96.5C 214.167,116.844 214.5,137.178 215.5,157.5C 221.759,162.211 228.259,166.545 235,170.5C 246.687,161.432 258.52,161.266 270.5,170C 278.697,179.613 281.864,190.78 280,203.5C 284.5,208 289,212.5 293.5,217C 294.5,217.667 295.5,217.667 296.5,217C 320.623,202.755 346.623,197.755 374.5,202C 390.403,203.965 404.903,209.465 418,218.5C 422.667,213.833 427.333,209.167 432,204.5C 432.333,198.5 432.667,192.5 433,186.5C 437.678,168.57 449.178,161.404 467.5,165C 478.271,169.611 484.271,177.778 485.5,189.5C 500.756,191.091 509.423,199.425 511.5,214.5 Z M 72.5,57.5 C 117.168,57.3333 161.835,57.5 206.5,58C 207.667,58.5 208.5,59.3333 209,60.5C 209.499,66.4908 209.666,72.4908 209.5,78.5C 163.167,78.5 116.833,78.5 70.5,78.5C 70.3338,72.4908 70.5005,66.4908 71,60.5C 71.5133,59.4734 72.0133,58.4734 72.5,57.5 Z M 83.5,96.5 C 121.167,96.5 158.833,96.5 196.5,96.5C 196.333,119.502 196.5,142.502 197,165.5C 198.122,167.624 199.622,169.457 201.5,171C 210.167,177 218.833,183 227.5,189C 209.9,191.067 201.233,200.9 201.5,218.5C 141.163,218.833 80.8297,218.5 20.5,217.5C 22.6422,212.715 25.6422,208.549 29.5,205C 47.2784,192.888 64.7784,180.388 82,167.5C 83.4798,143.924 83.9798,120.257 83.5,96.5 Z M 249.5,182.5 C 255.156,181.243 258.989,183.243 261,188.5C 261.333,196.5 261.667,204.5 262,212.5C 268.015,218.348 273.848,224.348 279.5,230.5C 275.779,234.888 272.445,239.555 269.5,244.5C 262.348,237.848 255.348,231.015 248.5,224C 240.167,223.667 231.833,223.333 223.5,223C 218.257,218.255 218.257,213.588 223.5,209C 230.719,207.571 238.053,207.071 245.5,207.5C 245.334,200.492 245.5,193.492 246,186.5C 247.376,185.295 248.542,183.962 249.5,182.5 Z M 455.5,182.5 C 461.156,181.243 464.989,183.243 467,188.5C 467.5,194.825 467.666,201.158 467.5,207.5C 473.842,207.334 480.175,207.5 486.5,208C 491.924,210.017 493.758,213.85 492,219.5C 490.833,220.667 489.667,221.833 488.5,223C 480.167,223.333 471.833,223.667 463.5,224C 456.667,230.833 449.833,237.667 443,244.5C 439.692,239.692 436.192,235.025 432.5,230.5C 438.485,224.014 444.652,217.681 451,211.5C 451.333,203.167 451.667,194.833 452,186.5C 453.376,185.295 454.542,183.962 455.5,182.5 Z M 345.5,218.5 C 370.584,216.268 393.251,222.435 413.5,237C 430.662,253.149 437.495,272.983 434,296.5C 432.854,306.897 430.687,317.064 427.5,327C 427.542,328.967 428.042,330.801 429,332.5C 436.881,340.995 436.048,348.495 426.5,355C 421.319,355.56 416.152,355.393 411,354.5C 401.022,354.314 394.689,358.981 392,368.5C 390.828,378.791 390.161,389.124 390,399.5C 386.959,401.929 383.459,402.929 379.5,402.5C 379.666,393.827 379.5,385.16 379,376.5C 375.984,370.628 371.484,369.128 365.5,372C 363.513,373.319 362.346,375.152 362,377.5C 361.5,385.827 361.334,394.16 361.5,402.5C 357.833,402.5 354.167,402.5 350.5,402.5C 350.666,393.827 350.5,385.16 350,376.5C 346.96,370.632 342.46,369.132 336.5,372C 334.951,373.214 333.785,374.714 333,376.5C 332.5,385.16 332.334,393.827 332.5,402.5C 329.393,402.649 326.393,402.149 323.5,401C 322.874,400.25 322.374,399.416 322,398.5C 321.667,389.5 321.333,380.5 321,371.5C 319.653,362.826 314.82,357.326 306.5,355C 299.833,355 293.167,355 286.5,355C 276.02,348.972 274.853,341.472 283,332.5C 283.985,330.634 284.485,328.634 284.5,326.5C 279.219,310.254 277.053,293.588 278,276.5C 281.971,251.393 295.805,234.226 319.5,225C 328.14,222.173 336.807,220.007 345.5,218.5 Z M 18.5,236.5 C 83.1675,236.333 147.834,236.5 212.5,237C 214.888,238.861 217.554,240.194 220.5,241C 227.449,242.122 234.449,242.789 241.5,243C 248.681,250.014 255.681,257.181 262.5,264.5C 258.319,284.713 259.319,304.713 265.5,324.5C 259.002,334.311 258.002,344.644 262.5,355.5C 255.348,363.152 248.015,370.652 240.5,378C 234.167,378.333 227.833,378.667 221.5,379C 204.596,384.966 198.263,396.799 202.5,414.5C 141.167,414.5 79.8333,414.5 18.5,414.5C 18.5,355.167 18.5,295.833 18.5,236.5 Z M 314.5,300.5 C 319.248,300.275 323.915,300.775 328.5,302C 333.833,306.667 333.833,311.333 328.5,316C 324.5,317.333 320.5,318.667 316.5,320C 308.546,319.694 305.38,315.527 307,307.5C 308.171,303.677 310.671,301.343 314.5,300.5 Z M 387.5,300.5 C 392.248,300.275 396.915,300.775 401.5,302C 406.833,307.667 406.833,313.333 401.5,319C 399.635,320.301 397.635,320.635 395.5,320C 390.196,318.792 385.363,316.625 381,313.5C 378.369,306.762 380.536,302.428 387.5,300.5 Z M 275.5,369.5 C 282.06,372.803 289.06,374.303 296.5,374C 285,385.5 273.5,397 262,408.5C 261.911,417.242 261.244,425.909 260,434.5C 255.959,439.313 251.625,439.646 247,435.5C 245.568,427.946 245.068,420.279 245.5,412.5C 237.721,412.932 230.054,412.432 222.5,411C 217.825,405.035 218.825,400.368 225.5,397C 233.5,396.667 241.5,396.333 249.5,396C 258.369,387.298 267.036,378.465 275.5,369.5 Z M 435.5,369.5 C 445.246,377.742 454.579,386.575 463.5,396C 471.167,396.333 478.833,396.667 486.5,397C 491.906,398.98 493.739,402.814 492,408.5C 491.167,409.333 490.333,410.167 489.5,411C 482.281,412.429 474.947,412.929 467.5,412.5C 467.891,419.921 467.391,427.254 466,434.5C 461.959,439.313 457.625,439.646 453,435.5C 451.725,426.935 451.058,418.268 451,409.5C 439.167,397.667 427.333,385.833 415.5,374C 419.5,373.667 423.5,373.333 427.5,373C 430.599,372.613 433.266,371.446 435.5,369.5 Z M 20.5,432.5 C 89.5,432.5 158.5,432.5 227.5,432.5C 227.92,440.84 231.586,447.34 238.5,452C 237.833,452.333 237.167,452.667 236.5,453C 172.167,453.667 107.833,453.667 43.5,453C 31.6235,450.751 23.9568,443.918 20.5,432.5 Z"/></g>
<g><path style="opacity:1" fill="#f9faf9" d="M 307.5,283.5 C 315.507,283.334 323.507,283.5 331.5,284C 348.358,290.876 353.858,303.042 348,320.5C 345.108,326.392 340.608,330.559 334.5,333C 328.167,335.444 321.667,337.278 315,338.5C 294.048,334.857 285.714,322.524 290,301.5C 292.683,292.318 298.517,286.318 307.5,283.5 Z M 314.5,300.5 C 310.671,301.343 308.171,303.677 307,307.5C 305.38,315.527 308.546,319.694 316.5,320C 320.5,318.667 324.5,317.333 328.5,316C 333.833,311.333 333.833,306.667 328.5,302C 323.915,300.775 319.248,300.275 314.5,300.5 Z"/></g>
<g><path style="opacity:1" fill="#f9faf9" d="M 380.5,283.5 C 388.507,283.334 396.507,283.5 404.5,284C 419.556,289.599 425.723,300.432 423,316.5C 418.186,333.638 407.02,340.471 389.5,337C 376.901,335.375 368.067,328.875 363,317.5C 359.621,301.254 365.455,289.92 380.5,283.5 Z M 387.5,300.5 C 380.536,302.428 378.369,306.762 381,313.5C 385.363,316.625 390.196,318.792 395.5,320C 397.635,320.635 399.635,320.301 401.5,319C 406.833,313.333 406.833,307.667 401.5,302C 396.915,300.775 392.248,300.275 387.5,300.5 Z"/></g>
<g><path style="opacity:1" fill="#f9faf9" d="M 77.5,303.5 C 94.1747,303.854 99.6747,311.854 94,327.5C 85.6667,335.5 77.3333,335.5 69,327.5C 64.2437,316.699 67.0771,308.699 77.5,303.5 Z"/></g>
<g><path style="opacity:1" fill="#f9faf9" d="M 136.5,303.5 C 150.632,303.786 156.465,310.786 154,324.5C 150.167,332.122 144.001,334.955 135.5,333C 125.448,328.324 122.615,320.824 127,310.5C 129.529,307.115 132.696,304.782 136.5,303.5 Z"/></g>
<g><path style="opacity:1" fill="#f9faf9" d="M 194.5,303.5 C 208.014,302.846 214.181,309.179 213,322.5C 208.277,333.602 200.444,336.436 189.5,331C 182.989,324.749 181.823,317.582 186,309.5C 188.322,306.605 191.155,304.605 194.5,303.5 Z"/></g>
<g><path style="opacity:1" fill="#f9faf9" d="M 338.5,341.5 C 346.986,341.151 350.82,345.151 350,353.5C 344.333,361.5 338.667,361.5 333,353.5C 331.873,348.089 333.707,344.089 338.5,341.5 Z"/></g>
<g><path style="opacity:1" fill="#f9faf9" d="M 367.5,341.5 C 376.374,340.871 380.208,344.871 379,353.5C 374.449,360.471 369.116,361.138 363,355.5C 360.606,349.517 362.106,344.851 367.5,341.5 Z"/></g>
</svg>
