<?xml version="1.0" encoding="UTF-8"?>
<!DOCTYPE svg PUBLIC "-//W3C//DTD SVG 1.1//EN" "http://www.w3.org/Graphics/SVG/1.1/DTD/svg11.dtd">
<svg xmlns="http://www.w3.org/2000/svg" version="1.1" width="96px" height="96px" style="shape-rendering:geometricPrecision; text-rendering:geometricPrecision; image-rendering:optimizeQuality; fill-rule:evenodd; clip-rule:evenodd" xmlns:xlink="http://www.w3.org/1999/xlink">
<g><path style="opacity:1" fill="#f9faf9" d="M 41.5,9.5 C 50.5062,9.33356 59.5062,9.50023 68.5,10C 71.792,12.4119 72.9587,15.5786 72,19.5C 69.5417,24.2529 66.7084,28.7529 63.5,33C 73.3426,33.2375 76.1759,37.7375 72,46.5C 68.5,50 65,53.5 61.5,57C 58.4428,57.9809 56.4428,56.9809 55.5,54C 58.4021,49.0915 62.0688,44.7582 66.5,41C 63.1667,40.6667 59.8333,40.3333 56.5,40C 54.5819,38.2298 54.0819,36.0631 55,33.5C 58.3751,27.9154 61.8751,22.4154 65.5,17C 58.4763,16.1689 51.4763,16.3356 44.5,17.5C 43.5428,19.9176 42.2095,22.0843 40.5,24C 35.9167,24.9337 34.4167,23.1004 36,18.5C 37.3426,15.1381 39.176,12.1381 41.5,9.5 Z"/></g>
<g><path style="opacity:1" fill="#f9faf9" d="M 31.5,26.5 C 36.2129,26.4676 37.7129,28.8009 36,33.5C 33.1667,38.5 30.3333,43.5 27.5,48.5C 32.1315,49.3283 36.7982,49.8283 41.5,50C 42.0968,51.0617 42.4302,52.2284 42.5,53.5C 40.2024,59.8952 38.0358,66.2285 36,72.5C 40.1667,68.3333 44.3333,64.1667 48.5,60C 53.0833,59.0663 54.5833,60.8996 53,65.5C 46.5,72 40,78.5 33.5,85C 28.6433,86.7528 25.6433,85.2528 24.5,80.5C 27.3024,72.76 30.3024,65.0933 33.5,57.5C 30.1518,56.7125 26.8185,55.8792 23.5,55C 21.5559,53.278 20.5559,51.1113 20.5,48.5C 23.2947,40.7125 26.9614,33.3792 31.5,26.5 Z"/></g>
</svg>
