<?xml version="1.0" encoding="UTF-8"?>
<!DOCTYPE svg PUBLIC "-//W3C//DTD SVG 1.1//EN" "http://www.w3.org/Graphics/SVG/1.1/DTD/svg11.dtd">
<svg xmlns="http://www.w3.org/2000/svg" version="1.1" width="100px" height="100px" style="shape-rendering:geometricPrecision; text-rendering:geometricPrecision; image-rendering:optimizeQuality; fill-rule:evenodd; clip-rule:evenodd" xmlns:xlink="http://www.w3.org/1999/xlink">
<g><path style="opacity:1" fill="#f9faf9" d="M 42.5,7.5 C 46.8461,7.33432 51.1794,7.50098 55.5,8C 58.3616,8.93048 60.695,10.5971 62.5,13C 71.235,14.7493 74.9016,20.0826 73.5,29C 72.352,34.3362 72.6853,39.5028 74.5,44.5C 73.6906,46.0709 73.3573,47.7376 73.5,49.5C 79.5,49.5 85.5,49.5 91.5,49.5C 91.5,62.8333 91.5,76.1667 91.5,89.5C 63.5,89.5 35.5,89.5 7.5,89.5C 7.5,76.1667 7.5,62.8333 7.5,49.5C 13.5,49.5 19.5,49.5 25.5,49.5C 26.1426,40.5268 26.3093,31.5268 26,22.5C 29.1733,14.8218 34.6733,9.82179 42.5,7.5 Z M 43.5,12.5 C 46.8499,12.335 50.1832,12.5017 53.5,13C 57.6716,16.1673 62.1716,18.6673 67,20.5C 69.0378,27.0275 68.8711,33.5275 66.5,40C 69.0525,43.055 69.0525,46.055 66.5,49C 55.1667,49.6667 43.8333,49.6667 32.5,49C 32,48.5 31.5,48 31,47.5C 30.4719,44.7813 30.9719,42.2813 32.5,40C 27.3169,27.0144 30.9835,17.8477 43.5,12.5 Z M 71.5,53.5 C 76.8333,53.5 82.1667,53.5 87.5,53.5C 87.5,64.1667 87.5,74.8333 87.5,85.5C 82.1667,85.5 76.8333,85.5 71.5,85.5C 71.5,74.8333 71.5,64.1667 71.5,53.5 Z"/></g>
<g><path style="opacity:1" fill="#f9faf9" d="M 56.5,21.5 C 61.6075,21.217 62.6075,23.0503 59.5,27C 54.9018,29.7362 49.9018,31.4029 44.5,32C 41.68,32.7355 39.68,34.4022 38.5,37C 37.2068,37.49 35.8734,37.6567 34.5,37.5C 33.8224,33.7273 35.1558,30.894 38.5,29C 43.0108,27.1635 47.6775,25.8302 52.5,25C 54.3237,24.34 55.657,23.1733 56.5,21.5 Z"/></g>
<g><path style="opacity:1" fill="#f9faf9" d="M 39.5,41.5 C 40.8333,41.5 42.1667,41.5 43.5,41.5C 43.5,42.8333 43.5,44.1667 43.5,45.5C 42.1667,45.5 40.8333,45.5 39.5,45.5C 39.5,44.1667 39.5,42.8333 39.5,41.5 Z"/></g>
<g><path style="opacity:1" fill="#f9faf9" d="M 55.5,41.5 C 56.8333,41.5 58.1667,41.5 59.5,41.5C 59.5,42.8333 59.5,44.1667 59.5,45.5C 58.1667,45.5 56.8333,45.5 55.5,45.5C 55.5,44.1667 55.5,42.8333 55.5,41.5 Z"/></g>
</svg>
